<ttFont>
<head>
    <!-- Most of this table will be recalculated by the compiler -->
    <tableVersion value="1.0"/>
    <fontRevision value="1.05199"/>
    <checkSumAdjustment value="0xcf138d41"/>
    <magicNumber value="0x5f0f3cf5"/>
    <flags value="00000000 00000011"/>
    <unitsPerEm value="1000"/>
    <created value="Sat Apr  9 14:31:12 2016"/>
    <modified value="Tue Jul 26 14:47:39 2016"/>
    <xMin value="-607"/>
    <yMin value="-343"/>
    <xMax value="1406"/>
    <yMax value="913"/>
    <macStyle value="00000000 00000000"/>
    <lowestRecPPEM value="7"/>
    <fontDirectionHint value="2"/>
    <indexToLocFormat value="0"/>
    <glyphDataFormat value="0"/>
  </head>
    <TTGlyph name=".notdef" xMin="50" yMin="0" xMax="450" yMax="660">
      <contour>
        <pt x="50" y="660" on="1"/>
        <pt x="450" y="660" on="1"/>
        <pt x="450" y="0" on="1"/>
        <pt x="50" y="0" on="1"/>
      </contour>
      <contour>
        <pt x="370" y="80" on="1"/>
        <pt x="370" y="580" on="1"/>
        <pt x="130" y="580" on="1"/>
        <pt x="130" y="80" on="1"/>
      </contour>
    </TTGlyph>
    <TTGlyph name="A" xMin="-10" yMin="0" xMax="699" yMax="660">
      <contour>
        <pt x="431" y="126" on="1"/>
        <pt x="253" y="126" on="1"/>
        <pt x="222" y="0" on="1"/>
        <pt x="-10" y="0" on="1"/>
        <pt x="204" y="660" on="1"/>
        <pt x="484" y="660" on="1"/>
        <pt x="699" y="0" on="1"/>
        <pt x="461" y="0" on="1"/>
      </contour>
      <contour>
        <pt x="397" y="271" on="1"/>
        <pt x="344" y="491" on="1"/>
        <pt x="341" y="491" on="1"/>
        <pt x="315" y="379" on="1"/>
        <pt x="288" y="271" on="1"/>
      </contour>
    </TTGlyph>
    <TTGlyph name="A.swsh" xMin="-1" yMin="-110" xMax="929" yMax="660">
      <contour>
        <pt x="661" y="126" on="1"/>
        <pt x="473" y="126" on="1"/>
        <pt x="466" y="103" on="1"/>
        <pt x="435" y="-4" on="0"/>
        <pt x="301" y="-110" on="0"/>
        <pt x="176" y="-110" on="1"/>
        <pt x="40" y="-110" on="0"/>
        <pt x="-1" y="-47" on="1"/>
        <pt x="54" y="107" on="1"/>
        <pt x="78" y="79" on="0"/>
        <pt x="126" y="56" on="0"/>
        <pt x="160" y="56" on="1"/>
        <pt x="202" y="56" on="0"/>
        <pt x="258" y="116" on="0"/>
        <pt x="279" y="181" on="1"/>
        <pt x="380" y="494" on="1"/>
        <pt x="277" y="494" on="1"/>
        <pt x="244" y="494" on="0"/>
        <pt x="214" y="459" on="0"/>
        <pt x="214" y="432" on="1"/>
        <pt x="214" y="404" on="0"/>
        <pt x="254" y="364" on="0"/>
        <pt x="290" y="362" on="1"/>
        <pt x="227" y="212" on="1"/>
        <pt x="128" y="215" on="0"/>
        <pt x="10" y="334" on="0"/>
        <pt x="10" y="436" on="1"/>
        <pt x="10" y="544" on="0"/>
        <pt x="145" y="660" on="0"/>
        <pt x="277" y="660" on="1"/>
        <pt x="714" y="660" on="1"/>
        <pt x="929" y="0" on="1"/>
        <pt x="691" y="0" on="1"/>
      </contour>
      <contour>
        <pt x="627" y="271" on="1"/>
        <pt x="574" y="491" on="1"/>
        <pt x="571" y="491" on="1"/>
        <pt x="545" y="379" on="1"/>
        <pt x="514" y="271" on="1"/>
      </contour>
    </TTGlyph>
    <TTGlyph name="AE" xMin="-10" yMin="0" xMax="888" yMax="660">
      <contour>
        <pt x="888" y="161" on="1"/>
        <pt x="888" y="0" on="1"/>
        <pt x="401" y="0" on="1"/>
        <pt x="401" y="185" on="1"/>
        <pt x="266" y="185" on="1"/>
        <pt x="220" y="0" on="1"/>
        <pt x="-10" y="0" on="1"/>
        <pt x="204" y="660" on="1"/>
        <pt x="876" y="660" on="1"/>
        <pt x="876" y="499" on="1"/>
        <pt x="615" y="499" on="1"/>
        <pt x="615" y="403" on="1"/>
        <pt x="815" y="403" on="1"/>
        <pt x="815" y="254" on="1"/>
        <pt x="615" y="254" on="1"/>
        <pt x="615" y="161" on="1"/>
      </contour>
      <contour>
        <pt x="401" y="321" on="1"/>
        <pt x="401" y="507" on="1"/>
        <pt x="345" y="507" on="1"/>
        <pt x="299" y="321" on="1"/>
      </contour>
    </TTGlyph>
    <TTGlyph name="Aacute" xMin="-10" yMin="0" xMax="699" yMax="876">
      <component glyphName="A" x="0" y="0" flags="0x0"/>
      <component glyphName="acutecomb.cap" x="344" y="0" flags="0x0"/>
    </TTGlyph>
    <TTGlyph name="Aacute.swsh" xMin="-1" yMin="-110" xMax="929" yMax="876">
      <component glyphName="A.swsh" x="0" y="0" flags="0x0"/>
      <component glyphName="acutecomb.cap" x="574" y="0" flags="0x0"/>
    </TTGlyph>
    <TTGlyph name="Abreve" xMin="-10" yMin="0" xMax="699" yMax="873">
      <component glyphName="A" x="0" y="0" flags="0x0"/>
      <component glyphName="breve" x="94" y="160" flags="0x4"/>
    </TTGlyph>
    <TTGlyph name="Abreve.swsh" xMin="-1" yMin="-110" xMax="929" yMax="873">
      <component glyphName="A.swsh" x="0" y="0" flags="0x0"/>
      <component glyphName="breve" x="324" y="160" flags="0x4"/>
    </TTGlyph>
    <TTGlyph name="Acircumflex" xMin="-10" yMin="0" xMax="699" yMax="876">
      <component glyphName="A" x="0" y="0" flags="0x0"/>
      <component glyphName="uni0302.cap" x="344" y="0" flags="0x0"/>
    </TTGlyph>
    <TTGlyph name="Acircumflex.swsh" xMin="-1" yMin="-110" xMax="929" yMax="876">
      <component glyphName="A.swsh" x="0" y="0" flags="0x0"/>
      <component glyphName="uni0302.cap" x="574" y="0" flags="0x0"/>
    </TTGlyph>
    <TTGlyph name="Adieresis" xMin="-10" yMin="0" xMax="699" yMax="880">
      <component glyphName="A" x="0" y="0" flags="0x0"/>
      <component glyphName="dieresis" x="94" y="160" flags="0x4"/>
    </TTGlyph>
    <TTGlyph name="Adieresis.swsh" xMin="-1" yMin="-110" xMax="929" yMax="880">
      <component glyphName="A.swsh" x="0" y="0" flags="0x0"/>
      <component glyphName="dieresis" x="324" y="160" flags="0x4"/>
    </TTGlyph>
    <TTGlyph name="Adieresis.titl" xMin="-10" yMin="0" xMax="699" yMax="662">
      <contour>
        <pt x="80" y="502" on="0"/>
        <pt x="32" y="544" on="0"/>
        <pt x="32" y="582" on="1"/>
        <pt x="32" y="620" on="0"/>
        <pt x="80" y="662" on="0"/>
        <pt x="124" y="662" on="1"/>
        <pt x="155" y="662" on="0"/>
        <pt x="177" y="651" on="1"/>
        <pt x="130" y="502" on="1"/>
        <pt x="124" y="502" on="1"/>
      </contour>
      <contour>
        <pt x="558" y="502" on="1"/>
        <pt x="511" y="651" on="1"/>
        <pt x="533" y="662" on="0"/>
        <pt x="564" y="662" on="1"/>
        <pt x="608" y="662" on="0"/>
        <pt x="656" y="620" on="0"/>
        <pt x="656" y="582" on="1"/>
        <pt x="656" y="544" on="0"/>
        <pt x="608" y="502" on="0"/>
        <pt x="564" y="502" on="1"/>
      </contour>
      <contour>
        <pt x="431" y="126" on="1"/>
        <pt x="253" y="126" on="1"/>
        <pt x="222" y="0" on="1"/>
        <pt x="-10" y="0" on="1"/>
        <pt x="204" y="660" on="1"/>
        <pt x="484" y="660" on="1"/>
        <pt x="699" y="0" on="1"/>
        <pt x="461" y="0" on="1"/>
      </contour>
      <contour>
        <pt x="397" y="271" on="1"/>
        <pt x="344" y="491" on="1"/>
        <pt x="341" y="491" on="1"/>
        <pt x="315" y="379" on="1"/>
        <pt x="288" y="271" on="1"/>
      </contour>
    </TTGlyph>
    <TTGlyph name="Adieresis.titl.001" xMin="-58" yMin="0" xMax="746" yMax="662">
      <contour>
        <pt x="149" y="527" on="0"/>
        <pt x="94" y="480" on="0"/>
        <pt x="44" y="480" on="1"/>
        <pt x="-5" y="480" on="0"/>
        <pt x="-58" y="528" on="0"/>
        <pt x="-58" y="571" on="1"/>
        <pt x="-58" y="614" on="0"/>
        <pt x="-5" y="662" on="0"/>
        <pt x="44" y="662" on="1"/>
        <pt x="94" y="662" on="0"/>
        <pt x="149" y="615" on="0"/>
        <pt x="149" y="571" on="1"/>
      </contour>
      <contour>
        <pt x="691" y="662" on="0"/>
        <pt x="746" y="615" on="0"/>
        <pt x="746" y="571" on="1"/>
        <pt x="746" y="527" on="0"/>
        <pt x="691" y="480" on="0"/>
        <pt x="641" y="480" on="1"/>
        <pt x="592" y="480" on="0"/>
        <pt x="539" y="528" on="0"/>
        <pt x="539" y="571" on="1"/>
        <pt x="539" y="614" on="0"/>
        <pt x="592" y="662" on="0"/>
        <pt x="641" y="662" on="1"/>
      </contour>
      <contour>
        <pt x="484" y="660" on="1"/>
        <pt x="699" y="0" on="1"/>
        <pt x="461" y="0" on="1"/>
        <pt x="431" y="126" on="1"/>
        <pt x="253" y="126" on="1"/>
        <pt x="222" y="0" on="1"/>
        <pt x="-10" y="0" on="1"/>
        <pt x="204" y="660" on="1"/>
      </contour>
      <contour>
        <pt x="397" y="271" on="1"/>
        <pt x="344" y="491" on="1"/>
        <pt x="341" y="491" on="1"/>
        <pt x="315" y="379" on="1"/>
        <pt x="288" y="271" on="1"/>
      </contour>
    </TTGlyph>
    <TTGlyph name="Agrave" xMin="-10" yMin="0" xMax="699" yMax="876">
      <component glyphName="A" x="0" y="0" flags="0x0"/>
      <component glyphName="gravecomb.cap" x="344" y="0" flags="0x0"/>
    </TTGlyph>
    <TTGlyph name="Agrave.swsh" xMin="-1" yMin="-110" xMax="929" yMax="876">
      <component glyphName="A.swsh" x="0" y="0" flags="0x0"/>
      <component glyphName="gravecomb.cap" x="574" y="0" flags="0x0"/>
    </TTGlyph>
    <TTGlyph name="Amacron" xMin="-10" yMin="0" xMax="699" yMax="841">
      <component glyphName="A" x="0" y="0" flags="0x0"/>
      <component glyphName="macron" x="94" y="160" flags="0x4"/>
    </TTGlyph>
    <TTGlyph name="Amacron.swsh" xMin="-1" yMin="-110" xMax="929" yMax="841">
      <component glyphName="A.swsh" x="0" y="0" flags="0x0"/>
      <component glyphName="macron" x="324" y="160" flags="0x4"/>
    </TTGlyph>
    <TTGlyph name="Aogonek" xMin="-10" yMin="-215" xMax="702" yMax="660">
      <contour>
        <pt x="702" y="-189" on="1"/>
        <pt x="679" y="-203" on="0"/>
        <pt x="623" y="-215" on="0"/>
        <pt x="584" y="-215" on="1"/>
        <pt x="517" y="-215" on="0"/>
        <pt x="432" y="-156" on="0"/>
        <pt x="432" y="-96" on="1"/>
        <pt x="432" y="-35" on="0"/>
        <pt x="488" y="0" on="1"/>
        <pt x="461" y="0" on="1"/>
        <pt x="431" y="126" on="1"/>
        <pt x="253" y="126" on="1"/>
        <pt x="222" y="0" on="1"/>
        <pt x="-10" y="0" on="1"/>
        <pt x="204" y="660" on="1"/>
        <pt x="484" y="660" on="1"/>
        <pt x="699" y="0" on="1"/>
        <pt x="638" y="-4" on="0"/>
        <pt x="586" y="-32" on="0"/>
        <pt x="586" y="-56" on="1"/>
        <pt x="586" y="-74" on="0"/>
        <pt x="612" y="-94" on="0"/>
        <pt x="635" y="-94" on="1"/>
        <pt x="662" y="-94" on="0"/>
        <pt x="675" y="-86" on="1"/>
      </contour>
      <contour>
        <pt x="397" y="271" on="1"/>
        <pt x="344" y="491" on="1"/>
        <pt x="341" y="491" on="1"/>
        <pt x="315" y="379" on="1"/>
        <pt x="288" y="271" on="1"/>
      </contour>
    </TTGlyph>
    <TTGlyph name="Aogonek.swsh" xMin="-1" yMin="-215" xMax="932" yMax="660">
      <contour>
        <pt x="932" y="-189" on="1"/>
        <pt x="909" y="-203" on="0"/>
        <pt x="853" y="-215" on="0"/>
        <pt x="814" y="-215" on="1"/>
        <pt x="747" y="-215" on="0"/>
        <pt x="662" y="-156" on="0"/>
        <pt x="662" y="-96" on="1"/>
        <pt x="662" y="-35" on="0"/>
        <pt x="718" y="0" on="1"/>
        <pt x="691" y="0" on="1"/>
        <pt x="661" y="126" on="1"/>
        <pt x="473" y="126" on="1"/>
        <pt x="466" y="103" on="1"/>
        <pt x="435" y="-4" on="0"/>
        <pt x="301" y="-110" on="0"/>
        <pt x="176" y="-110" on="1"/>
        <pt x="40" y="-110" on="0"/>
        <pt x="-1" y="-47" on="1"/>
        <pt x="54" y="107" on="1"/>
        <pt x="78" y="79" on="0"/>
        <pt x="126" y="56" on="0"/>
        <pt x="160" y="56" on="1"/>
        <pt x="202" y="56" on="0"/>
        <pt x="258" y="116" on="0"/>
        <pt x="279" y="181" on="1"/>
        <pt x="380" y="494" on="1"/>
        <pt x="277" y="494" on="1"/>
        <pt x="244" y="494" on="0"/>
        <pt x="214" y="459" on="0"/>
        <pt x="214" y="432" on="1"/>
        <pt x="214" y="404" on="0"/>
        <pt x="254" y="364" on="0"/>
        <pt x="290" y="362" on="1"/>
        <pt x="227" y="212" on="1"/>
        <pt x="128" y="215" on="0"/>
        <pt x="10" y="334" on="0"/>
        <pt x="10" y="436" on="1"/>
        <pt x="10" y="544" on="0"/>
        <pt x="145" y="660" on="0"/>
        <pt x="277" y="660" on="1"/>
        <pt x="714" y="660" on="1"/>
        <pt x="929" y="0" on="1"/>
        <pt x="868" y="-4" on="0"/>
        <pt x="816" y="-32" on="0"/>
        <pt x="816" y="-56" on="1"/>
        <pt x="816" y="-74" on="0"/>
        <pt x="842" y="-94" on="0"/>
        <pt x="865" y="-94" on="1"/>
        <pt x="892" y="-94" on="0"/>
        <pt x="905" y="-86" on="1"/>
      </contour>
      <contour>
        <pt x="627" y="271" on="1"/>
        <pt x="574" y="491" on="1"/>
        <pt x="571" y="491" on="1"/>
        <pt x="545" y="379" on="1"/>
        <pt x="514" y="271" on="1"/>
      </contour>
    </TTGlyph>
    <TTGlyph name="Aring" xMin="-10" yMin="0" xMax="699" yMax="867">
      <contour>
        <pt x="431" y="126" on="1"/>
        <pt x="253" y="126" on="1"/>
        <pt x="222" y="0" on="1"/>
        <pt x="-10" y="0" on="1"/>
        <pt x="210" y="648" on="1"/>
        <pt x="179" y="679" on="0"/>
        <pt x="179" y="730" on="1"/>
        <pt x="179" y="793" on="0"/>
        <pt x="267" y="867" on="0"/>
        <pt x="345" y="867" on="1"/>
        <pt x="423" y="867" on="0"/>
        <pt x="511" y="793" on="0"/>
        <pt x="511" y="730" on="1"/>
        <pt x="511" y="679" on="0"/>
        <pt x="478" y="648" on="1"/>
        <pt x="699" y="0" on="1"/>
        <pt x="461" y="0" on="1"/>
      </contour>
      <contour>
        <pt x="321" y="768" on="0"/>
        <pt x="295" y="744" on="0"/>
        <pt x="295" y="721" on="1"/>
        <pt x="295" y="698" on="0"/>
        <pt x="321" y="674" on="0"/>
        <pt x="345" y="674" on="1"/>
        <pt x="369" y="674" on="0"/>
        <pt x="395" y="698" on="0"/>
        <pt x="395" y="721" on="1"/>
        <pt x="395" y="744" on="0"/>
        <pt x="369" y="768" on="0"/>
        <pt x="345" y="768" on="1"/>
      </contour>
      <contour>
        <pt x="397" y="271" on="1"/>
        <pt x="371" y="379" on="1"/>
        <pt x="345" y="491" on="1"/>
        <pt x="340" y="491" on="1"/>
        <pt x="315" y="379" on="1"/>
        <pt x="288" y="271" on="1"/>
      </contour>
    </TTGlyph>
    <TTGlyph name="Atilde" xMin="-10" yMin="0" xMax="699" yMax="881">
      <component glyphName="A" x="0" y="0" flags="0x0"/>
      <component glyphName="tilde" x="94" y="160" flags="0x4"/>
    </TTGlyph>
    <TTGlyph name="Atilde.swsh" xMin="-1" yMin="-110" xMax="929" yMax="881">
      <component glyphName="A.swsh" x="0" y="0" flags="0x0"/>
      <component glyphName="tilde" x="324" y="160" flags="0x4"/>
    </TTGlyph>
    <TTGlyph name="B" xMin="50" yMin="0" xMax="692" yMax="660">
      <contour>
        <pt x="50" y="660" on="1"/>
        <pt x="428" y="660" on="1"/>
        <pt x="553" y="659" on="0"/>
        <pt x="675" y="572" on="0"/>
        <pt x="675" y="484" on="1"/>
        <pt x="675" y="423" on="0"/>
        <pt x="600" y="342" on="0"/>
        <pt x="526" y="332" on="1"/>
        <pt x="526" y="331" on="1"/>
        <pt x="610" y="322" on="0"/>
        <pt x="692" y="240" on="0"/>
        <pt x="692" y="174" on="1"/>
        <pt x="692" y="87" on="0"/>
        <pt x="574" y="0" on="0"/>
        <pt x="454" y="0" on="1"/>
        <pt x="50" y="0" on="1"/>
      </contour>
      <contour>
        <pt x="375" y="404" on="1"/>
        <pt x="437" y="404" on="0"/>
        <pt x="437" y="452" on="1"/>
        <pt x="437" y="500" on="0"/>
        <pt x="375" y="500" on="1"/>
        <pt x="273" y="500" on="1"/>
        <pt x="273" y="404" on="1"/>
      </contour>
      <contour>
        <pt x="392" y="152" on="1"/>
        <pt x="454" y="152" on="0"/>
        <pt x="454" y="201" on="1"/>
        <pt x="454" y="248" on="0"/>
        <pt x="392" y="248" on="1"/>
        <pt x="273" y="248" on="1"/>
        <pt x="273" y="152" on="1"/>
      </contour>
    </TTGlyph>
    <TTGlyph name="C" xMin="29" yMin="-10" xMax="670" yMax="670">
      <contour>
        <pt x="619" y="-10" on="0"/>
        <pt x="365" y="-10" on="1"/>
        <pt x="261" y="-10" on="0"/>
        <pt x="110" y="70" on="0"/>
        <pt x="29" y="223" on="0"/>
        <pt x="29" y="330" on="1"/>
        <pt x="29" y="437" on="0"/>
        <pt x="110" y="590" on="0"/>
        <pt x="261" y="670" on="0"/>
        <pt x="365" y="670" on="1"/>
        <pt x="481" y="670" on="0"/>
        <pt x="645" y="571" on="0"/>
        <pt x="665" y="470" on="1"/>
        <pt x="465" y="392" on="1"/>
        <pt x="457" y="453" on="0"/>
        <pt x="415" y="495" on="0"/>
        <pt x="371" y="495" on="1"/>
        <pt x="319" y="495" on="0"/>
        <pt x="267" y="415" on="0"/>
        <pt x="267" y="330" on="1"/>
        <pt x="267" y="245" on="0"/>
        <pt x="317" y="165" on="0"/>
        <pt x="369" y="165" on="1"/>
        <pt x="416" y="165" on="0"/>
        <pt x="458" y="207" on="0"/>
        <pt x="464" y="255" on="1"/>
        <pt x="670" y="202" on="1"/>
      </contour>
    </TTGlyph>
    <TTGlyph name="Cacute" xMin="29" yMin="-10" xMax="670" yMax="876">
      <component glyphName="C" x="0" y="0" flags="0x0"/>
      <component glyphName="acutecomb.cap" x="356" y="0" flags="0x0"/>
    </TTGlyph>
    <TTGlyph name="Ccaron" xMin="29" yMin="-10" xMax="670" yMax="876">
      <component glyphName="C" x="0" y="0" flags="0x0"/>
      <component glyphName="uni030C.cap" x="356" y="0" flags="0x0"/>
    </TTGlyph>
    <TTGlyph name="Ccedilla" xMin="29" yMin="-215" xMax="670" yMax="670">
      <contour>
        <pt x="630" y="33" on="0"/>
        <pt x="460" y="-1" on="1"/>
        <pt x="508" y="-36" on="0"/>
        <pt x="508" y="-90" on="1"/>
        <pt x="508" y="-156" on="0"/>
        <pt x="420" y="-215" on="0"/>
        <pt x="347" y="-215" on="1"/>
        <pt x="297" y="-215" on="0"/>
        <pt x="234" y="-191" on="0"/>
        <pt x="213" y="-171" on="1"/>
        <pt x="258" y="-76" on="1"/>
        <pt x="286" y="-104" on="0"/>
        <pt x="332" y="-104" on="1"/>
        <pt x="357" y="-104" on="0"/>
        <pt x="386" y="-81" on="0"/>
        <pt x="386" y="-60" on="1"/>
        <pt x="386" y="-25" on="0"/>
        <pt x="330" y="-9" on="1"/>
        <pt x="188" y="2" on="0"/>
        <pt x="29" y="179" on="0"/>
        <pt x="29" y="330" on="1"/>
        <pt x="29" y="437" on="0"/>
        <pt x="110" y="590" on="0"/>
        <pt x="261" y="670" on="0"/>
        <pt x="365" y="670" on="1"/>
        <pt x="481" y="670" on="0"/>
        <pt x="645" y="571" on="0"/>
        <pt x="665" y="470" on="1"/>
        <pt x="465" y="392" on="1"/>
        <pt x="457" y="453" on="0"/>
        <pt x="415" y="495" on="0"/>
        <pt x="371" y="495" on="1"/>
        <pt x="319" y="495" on="0"/>
        <pt x="267" y="415" on="0"/>
        <pt x="267" y="330" on="1"/>
        <pt x="267" y="245" on="0"/>
        <pt x="317" y="165" on="0"/>
        <pt x="369" y="165" on="1"/>
        <pt x="416" y="165" on="0"/>
        <pt x="458" y="207" on="0"/>
        <pt x="464" y="255" on="1"/>
        <pt x="670" y="202" on="1"/>
      </contour>
    </TTGlyph>
    <TTGlyph name="D" xMin="50" yMin="0" xMax="687" yMax="660">
      <contour>
        <pt x="528" y="660" on="0"/>
        <pt x="687" y="489" on="0"/>
        <pt x="687" y="330" on="1"/>
        <pt x="687" y="171" on="0"/>
        <pt x="528" y="0" on="0"/>
        <pt x="374" y="0" on="1"/>
        <pt x="50" y="0" on="1"/>
        <pt x="50" y="660" on="1"/>
        <pt x="374" y="660" on="1"/>
      </contour>
      <contour>
        <pt x="403" y="166" on="0"/>
        <pt x="449" y="242" on="0"/>
        <pt x="449" y="330" on="1"/>
        <pt x="449" y="418" on="0"/>
        <pt x="403" y="494" on="0"/>
        <pt x="341" y="494" on="1"/>
        <pt x="283" y="494" on="1"/>
        <pt x="283" y="166" on="1"/>
        <pt x="341" y="166" on="1"/>
      </contour>
    </TTGlyph>
    <TTGlyph name="Dcaron" xMin="50" yMin="0" xMax="687" yMax="876">
      <component glyphName="D" x="0" y="0" flags="0x0"/>
      <component glyphName="uni030C.cap" x="331" y="0" flags="0x0"/>
    </TTGlyph>
    <TTGlyph name="Dcroat" xMin="6" yMin="0" xMax="717" yMax="660">
      <contour>
        <pt x="558" y="660" on="0"/>
        <pt x="717" y="489" on="0"/>
        <pt x="717" y="330" on="1"/>
        <pt x="717" y="171" on="0"/>
        <pt x="558" y="0" on="0"/>
        <pt x="404" y="0" on="1"/>
        <pt x="80" y="0" on="1"/>
        <pt x="80" y="279" on="1"/>
        <pt x="6" y="279" on="1"/>
        <pt x="6" y="375" on="1"/>
        <pt x="80" y="375" on="1"/>
        <pt x="80" y="660" on="1"/>
        <pt x="404" y="660" on="1"/>
      </contour>
      <contour>
        <pt x="433" y="166" on="0"/>
        <pt x="479" y="242" on="0"/>
        <pt x="479" y="330" on="1"/>
        <pt x="479" y="418" on="0"/>
        <pt x="433" y="494" on="0"/>
        <pt x="371" y="494" on="1"/>
        <pt x="313" y="494" on="1"/>
        <pt x="313" y="375" on="1"/>
        <pt x="399" y="375" on="1"/>
        <pt x="399" y="279" on="1"/>
        <pt x="313" y="279" on="1"/>
        <pt x="313" y="166" on="1"/>
        <pt x="371" y="166" on="1"/>
      </contour>
    </TTGlyph>
    <TTGlyph name="E" xMin="50" yMin="0" xMax="610" yMax="660">
      <contour>
        <pt x="610" y="171" on="1"/>
        <pt x="610" y="0" on="1"/>
        <pt x="50" y="0" on="1"/>
        <pt x="50" y="660" on="1"/>
        <pt x="598" y="660" on="1"/>
        <pt x="598" y="489" on="1"/>
        <pt x="283" y="489" on="1"/>
        <pt x="283" y="407" on="1"/>
        <pt x="537" y="407" on="1"/>
        <pt x="537" y="249" on="1"/>
        <pt x="283" y="249" on="1"/>
        <pt x="283" y="171" on="1"/>
      </contour>
    </TTGlyph>
    <TTGlyph name="E.swsh" xMin="10" yMin="0" xMax="902" yMax="660">
      <contour>
        <pt x="902" y="171" on="1"/>
        <pt x="902" y="0" on="1"/>
        <pt x="342" y="0" on="1"/>
        <pt x="342" y="494" on="1"/>
        <pt x="277" y="494" on="1"/>
        <pt x="244" y="494" on="0"/>
        <pt x="214" y="459" on="0"/>
        <pt x="214" y="432" on="1"/>
        <pt x="214" y="404" on="0"/>
        <pt x="254" y="364" on="0"/>
        <pt x="290" y="362" on="1"/>
        <pt x="227" y="212" on="1"/>
        <pt x="128" y="215" on="0"/>
        <pt x="10" y="334" on="0"/>
        <pt x="10" y="436" on="1"/>
        <pt x="10" y="544" on="0"/>
        <pt x="145" y="660" on="0"/>
        <pt x="277" y="660" on="1"/>
        <pt x="890" y="660" on="1"/>
        <pt x="890" y="489" on="1"/>
        <pt x="575" y="489" on="1"/>
        <pt x="575" y="407" on="1"/>
        <pt x="829" y="407" on="1"/>
        <pt x="829" y="249" on="1"/>
        <pt x="575" y="249" on="1"/>
        <pt x="575" y="171" on="1"/>
      </contour>
    </TTGlyph>
    <TTGlyph name="E.swsh.001" xMin="50" yMin="0" xMax="877" yMax="660">
      <contour>
        <pt x="782" y="385" on="0"/>
        <pt x="877" y="284" on="0"/>
        <pt x="877" y="207" on="1"/>
        <pt x="877" y="98" on="0"/>
        <pt x="759" y="0" on="0"/>
        <pt x="650" y="0" on="1"/>
        <pt x="50" y="0" on="1"/>
        <pt x="50" y="660" on="1"/>
        <pt x="640" y="660" on="1"/>
        <pt x="640" y="489" on="1"/>
        <pt x="283" y="489" on="1"/>
        <pt x="283" y="407" on="1"/>
        <pt x="477" y="407" on="1"/>
        <pt x="477" y="249" on="1"/>
        <pt x="283" y="249" on="1"/>
        <pt x="283" y="171" on="1"/>
        <pt x="620" y="171" on="1"/>
        <pt x="653" y="171" on="0"/>
        <pt x="683" y="192" on="0"/>
        <pt x="683" y="215" on="1"/>
        <pt x="683" y="259" on="0"/>
        <pt x="607" y="268" on="1"/>
        <pt x="680" y="402" on="1"/>
      </contour>
    </TTGlyph>
    <TTGlyph name="Eacute" xMin="50" yMin="0" xMax="610" yMax="876">
      <component glyphName="E" x="0" y="0" flags="0x0"/>
      <component glyphName="acutecomb.cap" x="313" y="0" flags="0x0"/>
    </TTGlyph>
    <TTGlyph name="Eacute.swsh" xMin="10" yMin="0" xMax="902" yMax="876">
      <component glyphName="E.swsh" x="0" y="0" flags="0x0"/>
      <component glyphName="acutecomb.cap" x="605" y="0" flags="0x0"/>
    </TTGlyph>
    <TTGlyph name="Eacute.swsh.001" xMin="50" yMin="0" xMax="877" yMax="876">
      <component glyphName="E.swsh.001" x="0" y="0" flags="0x0"/>
      <component glyphName="acutecomb.cap" x="313" y="0" flags="0x0"/>
    </TTGlyph>
    <TTGlyph name="Ecaron" xMin="50" yMin="0" xMax="610" yMax="876">
      <component glyphName="E" x="0" y="0" flags="0x0"/>
      <component glyphName="uni030C.cap" x="313" y="0" flags="0x0"/>
    </TTGlyph>
    <TTGlyph name="Ecaron.swsh" xMin="10" yMin="0" xMax="902" yMax="876">
      <component glyphName="E.swsh" x="0" y="0" flags="0x0"/>
      <component glyphName="uni030C.cap" x="605" y="0" flags="0x0"/>
    </TTGlyph>
    <TTGlyph name="Ecaron.swsh.001" xMin="50" yMin="0" xMax="877" yMax="876">
      <component glyphName="E.swsh.001" x="0" y="0" flags="0x0"/>
      <component glyphName="uni030C.cap" x="313" y="0" flags="0x0"/>
    </TTGlyph>
    <TTGlyph name="Ecircumflex" xMin="50" yMin="0" xMax="610" yMax="876">
      <component glyphName="E" x="0" y="0" flags="0x0"/>
      <component glyphName="uni0302.cap" x="313" y="0" flags="0x0"/>
    </TTGlyph>
    <TTGlyph name="Ecircumflex.swsh" xMin="10" yMin="0" xMax="902" yMax="876">
      <component glyphName="E.swsh" x="0" y="0" flags="0x0"/>
      <component glyphName="uni0302.cap" x="605" y="0" flags="0x0"/>
    </TTGlyph>
    <TTGlyph name="Ecircumflex.swsh.001" xMin="50" yMin="0" xMax="877" yMax="876">
      <component glyphName="E.swsh.001" x="0" y="0" flags="0x0"/>
      <component glyphName="uni0302.cap" x="313" y="0" flags="0x0"/>
    </TTGlyph>
    <TTGlyph name="Edieresis" xMin="50" yMin="0" xMax="610" yMax="880">
      <component glyphName="E" x="0" y="0" flags="0x0"/>
      <component glyphName="dieresis" x="63" y="160" flags="0x4"/>
    </TTGlyph>
    <TTGlyph name="Edieresis.swsh" xMin="10" yMin="0" xMax="902" yMax="880">
      <component glyphName="E.swsh" x="0" y="0" flags="0x0"/>
      <component glyphName="dieresis" x="355" y="160" flags="0x4"/>
    </TTGlyph>
    <TTGlyph name="Edieresis.swsh.001" xMin="50" yMin="0" xMax="877" yMax="880">
      <component glyphName="E.swsh.001" x="0" y="0" flags="0x0"/>
      <component glyphName="dieresis" x="63" y="160" flags="0x4"/>
    </TTGlyph>
    <TTGlyph name="Edotaccent" xMin="50" yMin="0" xMax="610" yMax="886">
      <component glyphName="E" x="0" y="0" flags="0x0"/>
      <component glyphName="dotaccent" x="63" y="160" flags="0x4"/>
    </TTGlyph>
    <TTGlyph name="Edotaccent.swsh" xMin="10" yMin="0" xMax="902" yMax="886">
      <component glyphName="E.swsh" x="0" y="0" flags="0x0"/>
      <component glyphName="dotaccent" x="355" y="160" flags="0x4"/>
    </TTGlyph>
    <TTGlyph name="Edotaccent.swsh.001" xMin="50" yMin="0" xMax="877" yMax="886">
      <component glyphName="E.swsh.001" x="0" y="0" flags="0x0"/>
      <component glyphName="dotaccent" x="63" y="160" flags="0x4"/>
    </TTGlyph>
    <TTGlyph name="Egrave" xMin="50" yMin="0" xMax="610" yMax="876">
      <component glyphName="E" x="0" y="0" flags="0x0"/>
      <component glyphName="gravecomb.cap" x="313" y="0" flags="0x0"/>
    </TTGlyph>
    <TTGlyph name="Egrave.swsh" xMin="10" yMin="0" xMax="902" yMax="876">
      <component glyphName="E.swsh" x="0" y="0" flags="0x0"/>
      <component glyphName="gravecomb.cap" x="605" y="0" flags="0x0"/>
    </TTGlyph>
    <TTGlyph name="Egrave.swsh.001" xMin="50" yMin="0" xMax="877" yMax="876">
      <component glyphName="E.swsh.001" x="0" y="0" flags="0x0"/>
      <component glyphName="gravecomb.cap" x="313" y="0" flags="0x0"/>
    </TTGlyph>
    <TTGlyph name="Emacron" xMin="50" yMin="0" xMax="610" yMax="841">
      <component glyphName="E" x="0" y="0" flags="0x0"/>
      <component glyphName="macron" x="63" y="160" flags="0x4"/>
    </TTGlyph>
    <TTGlyph name="Emacron.swsh" xMin="10" yMin="0" xMax="902" yMax="841">
      <component glyphName="E.swsh" x="0" y="0" flags="0x0"/>
      <component glyphName="macron" x="355" y="160" flags="0x4"/>
    </TTGlyph>
    <TTGlyph name="Emacron.swsh.001" xMin="50" yMin="0" xMax="877" yMax="841">
      <component glyphName="E.swsh.001" x="0" y="0" flags="0x0"/>
      <component glyphName="macron" x="63" y="160" flags="0x4"/>
    </TTGlyph>
    <TTGlyph name="Eogonek" xMin="50" yMin="-215" xMax="614" yMax="660">
      <contour>
        <pt x="614" y="-189" on="1"/>
        <pt x="591" y="-203" on="0"/>
        <pt x="535" y="-215" on="0"/>
        <pt x="496" y="-215" on="1"/>
        <pt x="429" y="-215" on="0"/>
        <pt x="344" y="-156" on="0"/>
        <pt x="344" y="-96" on="1"/>
        <pt x="344" y="-35" on="0"/>
        <pt x="413" y="0" on="1"/>
        <pt x="50" y="0" on="1"/>
        <pt x="50" y="660" on="1"/>
        <pt x="598" y="660" on="1"/>
        <pt x="598" y="489" on="1"/>
        <pt x="283" y="489" on="1"/>
        <pt x="283" y="407" on="1"/>
        <pt x="537" y="407" on="1"/>
        <pt x="537" y="249" on="1"/>
        <pt x="283" y="249" on="1"/>
        <pt x="283" y="171" on="1"/>
        <pt x="610" y="171" on="1"/>
        <pt x="610" y="1" on="1"/>
        <pt x="611" y="0" on="1"/>
        <pt x="550" y="-4" on="0"/>
        <pt x="498" y="-32" on="0"/>
        <pt x="498" y="-56" on="1"/>
        <pt x="498" y="-74" on="0"/>
        <pt x="524" y="-94" on="0"/>
        <pt x="547" y="-94" on="1"/>
        <pt x="574" y="-94" on="0"/>
        <pt x="587" y="-86" on="1"/>
      </contour>
    </TTGlyph>
    <TTGlyph name="Eogonek.swsh" xMin="10" yMin="-215" xMax="906" yMax="660">
      <contour>
        <pt x="906" y="-189" on="1"/>
        <pt x="883" y="-203" on="0"/>
        <pt x="827" y="-215" on="0"/>
        <pt x="788" y="-215" on="1"/>
        <pt x="721" y="-215" on="0"/>
        <pt x="636" y="-156" on="0"/>
        <pt x="636" y="-96" on="1"/>
        <pt x="636" y="-35" on="0"/>
        <pt x="705" y="0" on="1"/>
        <pt x="342" y="0" on="1"/>
        <pt x="342" y="494" on="1"/>
        <pt x="277" y="494" on="1"/>
        <pt x="244" y="494" on="0"/>
        <pt x="214" y="459" on="0"/>
        <pt x="214" y="432" on="1"/>
        <pt x="214" y="404" on="0"/>
        <pt x="254" y="364" on="0"/>
        <pt x="290" y="362" on="1"/>
        <pt x="227" y="212" on="1"/>
        <pt x="128" y="215" on="0"/>
        <pt x="10" y="334" on="0"/>
        <pt x="10" y="436" on="1"/>
        <pt x="10" y="544" on="0"/>
        <pt x="145" y="660" on="0"/>
        <pt x="277" y="660" on="1"/>
        <pt x="890" y="660" on="1"/>
        <pt x="890" y="489" on="1"/>
        <pt x="575" y="489" on="1"/>
        <pt x="575" y="407" on="1"/>
        <pt x="829" y="407" on="1"/>
        <pt x="829" y="249" on="1"/>
        <pt x="575" y="249" on="1"/>
        <pt x="575" y="171" on="1"/>
        <pt x="902" y="171" on="1"/>
        <pt x="902" y="1" on="1"/>
        <pt x="903" y="0" on="1"/>
        <pt x="842" y="-4" on="0"/>
        <pt x="790" y="-32" on="0"/>
        <pt x="790" y="-56" on="1"/>
        <pt x="790" y="-74" on="0"/>
        <pt x="816" y="-94" on="0"/>
        <pt x="839" y="-94" on="1"/>
        <pt x="866" y="-94" on="0"/>
        <pt x="879" y="-86" on="1"/>
      </contour>
    </TTGlyph>
    <TTGlyph name="Eth" xMin="6" yMin="0" xMax="717" yMax="660">
      <component glyphName="Dcroat" x="0" y="0" flags="0x0"/>
    </TTGlyph>
    <TTGlyph name="Euro" xMin="0" yMin="-10" xMax="690" yMax="670">
      <contour>
        <pt x="505" y="143" on="0"/>
        <pt x="519" y="225" on="1"/>
        <pt x="689" y="178" on="1"/>
        <pt x="670" y="84" on="0"/>
        <pt x="524" y="-10" on="0"/>
        <pt x="413" y="-10" on="1"/>
        <pt x="285" y="-10" on="0"/>
        <pt x="117" y="111" on="0"/>
        <pt x="89" y="223" on="1"/>
        <pt x="0" y="223" on="1"/>
        <pt x="0" y="289" on="1"/>
        <pt x="79" y="289" on="1"/>
        <pt x="77" y="315" on="0"/>
        <pt x="77" y="330" on="1"/>
        <pt x="77" y="345" on="0"/>
        <pt x="78" y="353" on="1"/>
        <pt x="0" y="353" on="1"/>
        <pt x="0" y="419" on="1"/>
        <pt x="85" y="419" on="1"/>
        <pt x="108" y="539" on="0"/>
        <pt x="280" y="670" on="0"/>
        <pt x="413" y="670" on="1"/>
        <pt x="517" y="670" on="0"/>
        <pt x="670" y="585" on="0"/>
        <pt x="690" y="512" on="1"/>
        <pt x="528" y="436" on="1"/>
        <pt x="526" y="479" on="0"/>
        <pt x="468" y="517" on="0"/>
        <pt x="424" y="517" on="1"/>
        <pt x="370" y="517" on="0"/>
        <pt x="306" y="469" on="0"/>
        <pt x="293" y="419" on="1"/>
        <pt x="485" y="419" on="1"/>
        <pt x="455" y="353" on="1"/>
        <pt x="284" y="353" on="1"/>
        <pt x="284" y="330" on="1"/>
        <pt x="284" y="302" on="0"/>
        <pt x="285" y="289" on="1"/>
        <pt x="454" y="289" on="1"/>
        <pt x="428" y="223" on="1"/>
        <pt x="297" y="223" on="1"/>
        <pt x="311" y="183" on="0"/>
        <pt x="370" y="143" on="0"/>
        <pt x="420" y="143" on="1"/>
      </contour>
    </TTGlyph>
    <TTGlyph name="Euro.tf" xMin="10" yMin="-10" xMax="584" yMax="670">
      <contour>
        <pt x="584" y="171" on="1"/>
        <pt x="571" y="89" on="0"/>
        <pt x="441" y="-10" on="0"/>
        <pt x="346" y="-10" on="1"/>
        <pt x="241" y="-10" on="0"/>
        <pt x="108" y="113" on="0"/>
        <pt x="88" y="228" on="1"/>
        <pt x="10" y="228" on="1"/>
        <pt x="10" y="294" on="1"/>
        <pt x="81" y="294" on="1"/>
        <pt x="80" y="306" on="0"/>
        <pt x="80" y="330" on="1"/>
        <pt x="80" y="355" on="1"/>
        <pt x="10" y="355" on="1"/>
        <pt x="10" y="421" on="1"/>
        <pt x="87" y="421" on="1"/>
        <pt x="105" y="542" on="0"/>
        <pt x="243" y="670" on="0"/>
        <pt x="356" y="670" on="1"/>
        <pt x="457" y="670" on="0"/>
        <pt x="562" y="601" on="0"/>
        <pt x="581" y="522" on="1"/>
        <pt x="420" y="446" on="1"/>
        <pt x="417" y="483" on="0"/>
        <pt x="387" y="517" on="0"/>
        <pt x="358" y="517" on="1"/>
        <pt x="291" y="517" on="0"/>
        <pt x="271" y="421" on="1"/>
        <pt x="398" y="421" on="1"/>
        <pt x="385" y="355" on="1"/>
        <pt x="264" y="355" on="1"/>
        <pt x="264" y="330" on="1"/>
        <pt x="264" y="305" on="0"/>
        <pt x="265" y="294" on="1"/>
        <pt x="373" y="294" on="1"/>
        <pt x="361" y="228" on="1"/>
        <pt x="273" y="228" on="1"/>
        <pt x="293" y="143" on="0"/>
        <pt x="350" y="143" on="1"/>
        <pt x="385" y="143" on="0"/>
        <pt x="419" y="176" on="0"/>
        <pt x="420" y="213" on="1"/>
      </contour>
    </TTGlyph>
    <TTGlyph name="F" xMin="50" yMin="0" xMax="597" yMax="660">
      <contour>
        <pt x="283" y="489" on="1"/>
        <pt x="283" y="397" on="1"/>
        <pt x="537" y="397" on="1"/>
        <pt x="537" y="226" on="1"/>
        <pt x="283" y="226" on="1"/>
        <pt x="283" y="0" on="1"/>
        <pt x="50" y="0" on="1"/>
        <pt x="50" y="660" on="1"/>
        <pt x="597" y="660" on="1"/>
        <pt x="597" y="489" on="1"/>
      </contour>
    </TTGlyph>
    <TTGlyph name="F.swsh" xMin="10" yMin="0" xMax="864" yMax="660">
      <contour>
        <pt x="550" y="489" on="1"/>
        <pt x="550" y="397" on="1"/>
        <pt x="804" y="397" on="1"/>
        <pt x="804" y="226" on="1"/>
        <pt x="550" y="226" on="1"/>
        <pt x="550" y="0" on="1"/>
        <pt x="317" y="0" on="1"/>
        <pt x="317" y="494" on="1"/>
        <pt x="277" y="494" on="1"/>
        <pt x="244" y="494" on="0"/>
        <pt x="214" y="459" on="0"/>
        <pt x="214" y="432" on="1"/>
        <pt x="214" y="404" on="0"/>
        <pt x="254" y="364" on="0"/>
        <pt x="290" y="362" on="1"/>
        <pt x="227" y="212" on="1"/>
        <pt x="128" y="215" on="0"/>
        <pt x="10" y="334" on="0"/>
        <pt x="10" y="436" on="1"/>
        <pt x="10" y="544" on="0"/>
        <pt x="145" y="660" on="0"/>
        <pt x="277" y="660" on="1"/>
        <pt x="864" y="660" on="1"/>
        <pt x="864" y="489" on="1"/>
      </contour>
    </TTGlyph>
    <TTGlyph name="G" xMin="29" yMin="-10" xMax="679" yMax="670">
      <contour>
        <pt x="371" y="372" on="1"/>
        <pt x="677" y="372" on="1"/>
        <pt x="677" y="0" on="1"/>
        <pt x="523" y="0" on="1"/>
        <pt x="515" y="75" on="1"/>
        <pt x="464" y="-10" on="0"/>
        <pt x="336" y="-10" on="1"/>
        <pt x="249" y="-10" on="0"/>
        <pt x="110" y="67" on="0"/>
        <pt x="29" y="219" on="0"/>
        <pt x="29" y="328" on="1"/>
        <pt x="29" y="490" on="0"/>
        <pt x="210" y="670" on="0"/>
        <pt x="371" y="670" on="1"/>
        <pt x="494" y="670" on="0"/>
        <pt x="639" y="586" on="0"/>
        <pt x="679" y="489" on="1"/>
        <pt x="462" y="411" on="1"/>
        <pt x="449" y="495" on="0"/>
        <pt x="379" y="495" on="1"/>
        <pt x="321" y="495" on="0"/>
        <pt x="267" y="416" on="0"/>
        <pt x="267" y="330" on="1"/>
        <pt x="267" y="238" on="0"/>
        <pt x="325" y="159" on="0"/>
        <pt x="387" y="159" on="1"/>
        <pt x="431" y="159" on="0"/>
        <pt x="482" y="194" on="0"/>
        <pt x="482" y="228" on="1"/>
        <pt x="482" y="229" on="1"/>
        <pt x="371" y="229" on="1"/>
      </contour>
    </TTGlyph>
    <TTGlyph name="G.ss04" xMin="29" yMin="-10" xMax="687" yMax="670">
      <contour>
        <pt x="687" y="374" on="1"/>
        <pt x="687" y="280" on="1"/>
        <pt x="687" y="128" on="0"/>
        <pt x="516" y="-10" on="0"/>
        <pt x="368" y="-10" on="1"/>
        <pt x="267" y="-10" on="0"/>
        <pt x="114" y="66" on="0"/>
        <pt x="29" y="218" on="0"/>
        <pt x="29" y="328" on="1"/>
        <pt x="29" y="490" on="0"/>
        <pt x="210" y="670" on="0"/>
        <pt x="371" y="670" on="1"/>
        <pt x="494" y="670" on="0"/>
        <pt x="639" y="586" on="0"/>
        <pt x="679" y="489" on="1"/>
        <pt x="462" y="411" on="1"/>
        <pt x="455" y="456" on="0"/>
        <pt x="414" y="495" on="0"/>
        <pt x="373" y="495" on="1"/>
        <pt x="322" y="495" on="0"/>
        <pt x="267" y="414" on="0"/>
        <pt x="267" y="330" on="1"/>
        <pt x="267" y="267" on="0"/>
        <pt x="292" y="196" on="0"/>
        <pt x="346" y="165" on="0"/>
        <pt x="392" y="165" on="1"/>
        <pt x="438" y="165" on="0"/>
        <pt x="492" y="203" on="0"/>
        <pt x="492" y="232" on="1"/>
        <pt x="492" y="239" on="1"/>
        <pt x="371" y="239" on="1"/>
        <pt x="371" y="374" on="1"/>
      </contour>
    </TTGlyph>
    <TTGlyph name="Gbreve" xMin="29" yMin="-10" xMax="679" yMax="873">
      <component glyphName="G" x="0" y="0" flags="0x0"/>
      <component glyphName="breve" x="114" y="160" flags="0x4"/>
    </TTGlyph>
    <TTGlyph name="Gbreve.ss04" xMin="29" yMin="-10" xMax="687" yMax="873">
      <component glyphName="G.ss04" x="0" y="0" flags="0x0"/>
      <component glyphName="breve" x="114" y="160" flags="0x4"/>
    </TTGlyph>
    <TTGlyph name="Gcommaaccent.sc" xMin="26" yMin="-243" xMax="605" yMax="568">
      <component glyphName="g.sc" x="0" y="0" flags="0x0"/>
      <component glyphName="uni0326" x="834" y="0" flags="0x0"/>
    </TTGlyph>
    <TTGlyph name="Gcommaaccent.sc.ss04" xMin="32" yMin="-243" xMax="611" yMax="568">
      <component glyphName="g.sc.ss04" x="0" y="0" flags="0x0"/>
      <component glyphName="uni0326" x="884" y="0" flags="0x0"/>
    </TTGlyph>
    <TTGlyph name="Gcommaaccent.ss04" xMin="29" yMin="-243" xMax="687" yMax="670">
      <component glyphName="G.ss04" x="0" y="0" flags="0x0"/>
      <component glyphName="uni0326" x="879" y="0" flags="0x0"/>
    </TTGlyph>
    <TTGlyph name="H" xMin="50" yMin="0" xMax="697" yMax="660">
      <contour>
        <pt x="697" y="660" on="1"/>
        <pt x="697" y="0" on="1"/>
        <pt x="464" y="0" on="1"/>
        <pt x="464" y="246" on="1"/>
        <pt x="283" y="246" on="1"/>
        <pt x="283" y="0" on="1"/>
        <pt x="50" y="0" on="1"/>
        <pt x="50" y="660" on="1"/>
        <pt x="283" y="660" on="1"/>
        <pt x="283" y="417" on="1"/>
        <pt x="464" y="417" on="1"/>
        <pt x="464" y="660" on="1"/>
      </contour>
    </TTGlyph>
    <TTGlyph name="Hinferior" xMin="32" yMin="-189" xMax="464" yMax="208">
      <component glyphName="Hsuperior" x="0" y="-522" flags="0x4"/>
    </TTGlyph>
    <TTGlyph name="Hsuperior" xMin="32" yMin="333" xMax="464" yMax="730">
      <contour>
        <pt x="464" y="730" on="1"/>
        <pt x="464" y="333" on="1"/>
        <pt x="306" y="333" on="1"/>
        <pt x="306" y="478" on="1"/>
        <pt x="190" y="478" on="1"/>
        <pt x="190" y="333" on="1"/>
        <pt x="32" y="333" on="1"/>
        <pt x="32" y="730" on="1"/>
        <pt x="190" y="730" on="1"/>
        <pt x="190" y="592" on="1"/>
        <pt x="306" y="592" on="1"/>
        <pt x="306" y="730" on="1"/>
      </contour>
    </TTGlyph>
    <TTGlyph name="I" xMin="50" yMin="0" xMax="283" yMax="660">
      <contour>
        <pt x="283" y="0" on="1"/>
        <pt x="50" y="0" on="1"/>
        <pt x="50" y="660" on="1"/>
        <pt x="283" y="660" on="1"/>
      </contour>
    </TTGlyph>
    <TTGlyph name="IJ" xMin="50" yMin="-10" xMax="955" yMax="660">
      <component glyphName="I" x="0" y="0" flags="0x0"/>
      <component glyphName="J" x="333" y="0" flags="0x0"/>
    </TTGlyph>
    <TTGlyph name="IJ.ss05" xMin="48" yMin="-10" xMax="647" yMax="660">
      <contour>
        <pt x="647" y="272" on="1"/>
        <pt x="647" y="140" on="0"/>
        <pt x="484" y="-10" on="0"/>
        <pt x="341" y="-10" on="1"/>
        <pt x="202" y="-10" on="0"/>
        <pt x="48" y="101" on="0"/>
        <pt x="48" y="209" on="1"/>
        <pt x="48" y="234" on="0"/>
        <pt x="50" y="248" on="1"/>
        <pt x="284" y="248" on="1"/>
        <pt x="283" y="241" on="0"/>
        <pt x="283" y="229" on="1"/>
        <pt x="283" y="196" on="0"/>
        <pt x="314" y="165" on="0"/>
        <pt x="348" y="165" on="1"/>
        <pt x="383" y="165" on="0"/>
        <pt x="414" y="211" on="0"/>
        <pt x="414" y="265" on="1"/>
        <pt x="414" y="660" on="1"/>
        <pt x="647" y="660" on="1"/>
      </contour>
      <contour>
        <pt x="283" y="292" on="1"/>
        <pt x="50" y="292" on="1"/>
        <pt x="50" y="660" on="1"/>
        <pt x="283" y="660" on="1"/>
      </contour>
    </TTGlyph>
    <TTGlyph name="Iacute" xMin="50" yMin="0" xMax="329" yMax="876">
      <component glyphName="I" x="0" y="0" flags="0x0"/>
      <component glyphName="acutecomb.cap" x="166" y="0" flags="0x0"/>
    </TTGlyph>
    <TTGlyph name="Iacute_J.loclNLD" xMin="50" yMin="-10" xMax="1002" yMax="876">
      <component glyphName="I" x="0" y="0" flags="0x0"/>
      <component glyphName="acutecomb.cap" x="166" y="0" flags="0x0"/>
      <component glyphName="J" x="333" y="0" flags="0x0"/>
      <component glyphName="acutecomb.cap" x="839" y="0" flags="0x0"/>
    </TTGlyph>
    <TTGlyph name="Iacute_J.loclNLD.ss05" xMin="33" yMin="-10" xMax="685" yMax="876">
      <component glyphName="acutecomb.cap" x="522" y="0" flags="0x0"/>
      <component glyphName="acutecomb.cap" x="151" y="0" flags="0x0"/>
      <component glyphName="IJ.ss05" x="-15" y="0" flags="0x0"/>
    </TTGlyph>
    <TTGlyph name="Icircumflex" xMin="-37" yMin="0" xMax="369" yMax="876">
      <component glyphName="I" x="0" y="0" flags="0x0"/>
      <component glyphName="uni0302.cap" x="166" y="0" flags="0x0"/>
    </TTGlyph>
    <TTGlyph name="Idieresis" xMin="-46" yMin="0" xMax="379" yMax="880">
      <contour>
        <pt x="100" y="880" on="0"/>
        <pt x="154" y="832" on="0"/>
        <pt x="154" y="789" on="1"/>
        <pt x="154" y="746" on="0"/>
        <pt x="100" y="698" on="0"/>
        <pt x="52" y="698" on="1"/>
        <pt x="5" y="698" on="0"/>
        <pt x="-46" y="746" on="0"/>
        <pt x="-46" y="789" on="1"/>
        <pt x="-46" y="832" on="0"/>
        <pt x="5" y="880" on="0"/>
        <pt x="52" y="880" on="1"/>
      </contour>
      <contour>
        <pt x="325" y="880" on="0"/>
        <pt x="379" y="832" on="0"/>
        <pt x="379" y="789" on="1"/>
        <pt x="379" y="746" on="0"/>
        <pt x="325" y="698" on="0"/>
        <pt x="277" y="698" on="1"/>
        <pt x="230" y="698" on="0"/>
        <pt x="179" y="746" on="0"/>
        <pt x="179" y="789" on="1"/>
        <pt x="179" y="832" on="0"/>
        <pt x="230" y="880" on="0"/>
        <pt x="277" y="880" on="1"/>
      </contour>
      <contour>
        <pt x="283" y="0" on="1"/>
        <pt x="50" y="0" on="1"/>
        <pt x="50" y="660" on="1"/>
        <pt x="283" y="660" on="1"/>
      </contour>
    </TTGlyph>
    <TTGlyph name="Idotaccent" xMin="50" yMin="0" xMax="283" yMax="886">
      <component glyphName="I" x="0" y="0" flags="0x0"/>
      <component glyphName="dotaccent" x="-84" y="160" flags="0x4"/>
    </TTGlyph>
    <TTGlyph name="Igrave" xMin="3" yMin="0" xMax="283" yMax="876">
      <component glyphName="I" x="0" y="0" flags="0x0"/>
      <component glyphName="gravecomb.cap" x="166" y="0" flags="0x0"/>
    </TTGlyph>
    <TTGlyph name="Imacron" xMin="1" yMin="0" xMax="330" yMax="841">
      <contour>
        <pt x="330" y="711" on="1"/>
        <pt x="1" y="711" on="1"/>
        <pt x="1" y="841" on="1"/>
        <pt x="330" y="841" on="1"/>
      </contour>
      <contour>
        <pt x="283" y="0" on="1"/>
        <pt x="50" y="0" on="1"/>
        <pt x="50" y="660" on="1"/>
        <pt x="283" y="660" on="1"/>
      </contour>
    </TTGlyph>
    <TTGlyph name="Iogonek" xMin="16" yMin="-215" xMax="286" yMax="660">
      <contour>
        <pt x="286" y="-189" on="1"/>
        <pt x="263" y="-203" on="0"/>
        <pt x="207" y="-215" on="0"/>
        <pt x="168" y="-215" on="1"/>
        <pt x="101" y="-215" on="0"/>
        <pt x="16" y="-156" on="0"/>
        <pt x="16" y="-96" on="1"/>
        <pt x="16" y="-35" on="0"/>
        <pt x="72" y="0" on="1"/>
        <pt x="50" y="0" on="1"/>
        <pt x="50" y="660" on="1"/>
        <pt x="283" y="660" on="1"/>
        <pt x="283" y="0" on="1"/>
        <pt x="222" y="-4" on="0"/>
        <pt x="170" y="-32" on="0"/>
        <pt x="170" y="-56" on="1"/>
        <pt x="170" y="-74" on="0"/>
        <pt x="196" y="-94" on="0"/>
        <pt x="219" y="-94" on="1"/>
        <pt x="246" y="-94" on="0"/>
        <pt x="259" y="-86" on="1"/>
      </contour>
    </TTGlyph>
    <TTGlyph name="J" xMin="23" yMin="-10" xMax="622" yMax="660">
      <contour>
        <pt x="622" y="272" on="1"/>
        <pt x="622" y="137" on="0"/>
        <pt x="458" y="-10" on="0"/>
        <pt x="308" y="-10" on="1"/>
        <pt x="164" y="-10" on="0"/>
        <pt x="23" y="114" on="0"/>
        <pt x="23" y="222" on="1"/>
        <pt x="23" y="256" on="0"/>
        <pt x="29" y="290" on="1"/>
        <pt x="262" y="329" on="1"/>
        <pt x="257" y="295" on="0"/>
        <pt x="257" y="259" on="1"/>
        <pt x="257" y="208" on="0"/>
        <pt x="290" y="165" on="0"/>
        <pt x="323" y="165" on="1"/>
        <pt x="357" y="165" on="0"/>
        <pt x="389" y="224" on="0"/>
        <pt x="389" y="289" on="1"/>
        <pt x="389" y="660" on="1"/>
        <pt x="622" y="660" on="1"/>
      </contour>
    </TTGlyph>
    <TTGlyph name="K" xMin="50" yMin="0" xMax="721" yMax="660">
      <contour>
        <pt x="337" y="247" on="1"/>
        <pt x="283" y="173" on="1"/>
        <pt x="283" y="0" on="1"/>
        <pt x="50" y="0" on="1"/>
        <pt x="50" y="660" on="1"/>
        <pt x="283" y="660" on="1"/>
        <pt x="283" y="414" on="1"/>
        <pt x="455" y="660" on="1"/>
        <pt x="703" y="660" on="1"/>
        <pt x="501" y="398" on="1"/>
        <pt x="721" y="0" on="1"/>
        <pt x="460" y="0" on="1"/>
      </contour>
    </TTGlyph>
    <TTGlyph name="Kcommaaccent.sc" xMin="53" yMin="-243" xMax="704" yMax="560">
      <component glyphName="k.sc" x="0" y="0" flags="0x0"/>
      <component glyphName="uni0326" x="857" y="0" flags="0x0"/>
    </TTGlyph>
    <TTGlyph name="L" xMin="50" yMin="0" xMax="582" yMax="660">
      <contour>
        <pt x="582" y="171" on="1"/>
        <pt x="582" y="0" on="1"/>
        <pt x="50" y="0" on="1"/>
        <pt x="50" y="660" on="1"/>
        <pt x="283" y="660" on="1"/>
        <pt x="283" y="171" on="1"/>
      </contour>
    </TTGlyph>
    <TTGlyph name="L.swsh" xMin="50" yMin="0" xMax="728" yMax="660">
      <contour>
        <pt x="640" y="435" on="0"/>
        <pt x="728" y="306" on="0"/>
        <pt x="728" y="224" on="1"/>
        <pt x="728" y="116" on="0"/>
        <pt x="593" y="0" on="0"/>
        <pt x="461" y="0" on="1"/>
        <pt x="50" y="0" on="1"/>
        <pt x="50" y="660" on="1"/>
        <pt x="283" y="660" on="1"/>
        <pt x="283" y="171" on="1"/>
        <pt x="461" y="171" on="1"/>
        <pt x="499" y="171" on="0"/>
        <pt x="534" y="204" on="0"/>
        <pt x="534" y="228" on="1"/>
        <pt x="534" y="258" on="0"/>
        <pt x="498" y="296" on="0"/>
        <pt x="458" y="298" on="1"/>
        <pt x="521" y="438" on="1"/>
      </contour>
    </TTGlyph>
    <TTGlyph name="Lacute" xMin="50" yMin="0" xMax="582" yMax="876">
      <component glyphName="L" x="0" y="0" flags="0x0"/>
      <component glyphName="acutecomb.cap" x="166" y="0" flags="0x0"/>
    </TTGlyph>
    <TTGlyph name="Lacute.swsh" xMin="50" yMin="0" xMax="728" yMax="876">
      <component glyphName="L.swsh" x="0" y="0" flags="0x0"/>
      <component glyphName="acutecomb.cap" x="166" y="0" flags="0x0"/>
    </TTGlyph>
    <TTGlyph name="Lcaron" xMin="50" yMin="0" xMax="586" yMax="701">
      <contour>
        <pt x="513" y="434" on="1"/>
        <pt x="362" y="434" on="1"/>
        <pt x="388" y="701" on="1"/>
        <pt x="586" y="701" on="1"/>
      </contour>
      <contour>
        <pt x="283" y="171" on="1"/>
        <pt x="582" y="171" on="1"/>
        <pt x="582" y="0" on="1"/>
        <pt x="50" y="0" on="1"/>
        <pt x="50" y="660" on="1"/>
        <pt x="283" y="660" on="1"/>
      </contour>
    </TTGlyph>
    <TTGlyph name="Lcaron.swsh" xMin="50" yMin="0" xMax="728" yMax="701">
      <contour>
        <pt x="492" y="434" on="1"/>
        <pt x="366" y="434" on="1"/>
        <pt x="388" y="701" on="1"/>
        <pt x="553" y="701" on="1"/>
      </contour>
      <contour>
        <pt x="640" y="435" on="0"/>
        <pt x="728" y="306" on="0"/>
        <pt x="728" y="224" on="1"/>
        <pt x="728" y="116" on="0"/>
        <pt x="593" y="0" on="0"/>
        <pt x="461" y="0" on="1"/>
        <pt x="50" y="0" on="1"/>
        <pt x="50" y="660" on="1"/>
        <pt x="283" y="660" on="1"/>
        <pt x="283" y="171" on="1"/>
        <pt x="461" y="171" on="1"/>
        <pt x="499" y="171" on="0"/>
        <pt x="534" y="204" on="0"/>
        <pt x="534" y="228" on="1"/>
        <pt x="534" y="258" on="0"/>
        <pt x="498" y="296" on="0"/>
        <pt x="458" y="298" on="1"/>
        <pt x="521" y="438" on="1"/>
      </contour>
    </TTGlyph>
    <TTGlyph name="Lcommaaccent.sc" xMin="53" yMin="-243" xMax="549" yMax="560">
      <component glyphName="l.sc" x="0" y="0" flags="0x0"/>
      <component glyphName="uni0326" x="814" y="0" flags="0x0"/>
    </TTGlyph>
    <TTGlyph name="Lcommaaccent.swsh" xMin="50" yMin="-243" xMax="728" yMax="660">
      <component glyphName="L.swsh" x="0" y="0" flags="0x0"/>
      <component glyphName="uni0326" x="865" y="0" flags="0x0"/>
    </TTGlyph>
    <TTGlyph name="Ldot" xMin="50" yMin="0" xMax="651" yMax="660">
      <component glyphName="L" x="0" y="0" flags="0x0"/>
      <component glyphName="period" x="375" y="265" flags="0x4"/>
    </TTGlyph>
    <TTGlyph name="Lslash" xMin="-14" yMin="0" xMax="632" yMax="660">
      <contour>
        <pt x="632" y="171" on="1"/>
        <pt x="632" y="0" on="1"/>
        <pt x="100" y="0" on="1"/>
        <pt x="100" y="196" on="1"/>
        <pt x="-14" y="146" on="1"/>
        <pt x="-14" y="299" on="1"/>
        <pt x="100" y="349" on="1"/>
        <pt x="100" y="660" on="1"/>
        <pt x="333" y="660" on="1"/>
        <pt x="333" y="452" on="1"/>
        <pt x="499" y="525" on="1"/>
        <pt x="499" y="372" on="1"/>
        <pt x="333" y="299" on="1"/>
        <pt x="333" y="171" on="1"/>
      </contour>
    </TTGlyph>
    <TTGlyph name="Lslash.swsh" xMin="-14" yMin="0" xMax="778" yMax="660">
      <contour>
        <pt x="690" y="435" on="0"/>
        <pt x="778" y="306" on="0"/>
        <pt x="778" y="224" on="1"/>
        <pt x="778" y="116" on="0"/>
        <pt x="643" y="0" on="0"/>
        <pt x="511" y="0" on="1"/>
        <pt x="100" y="0" on="1"/>
        <pt x="100" y="196" on="1"/>
        <pt x="-14" y="146" on="1"/>
        <pt x="-14" y="299" on="1"/>
        <pt x="100" y="349" on="1"/>
        <pt x="100" y="660" on="1"/>
        <pt x="333" y="660" on="1"/>
        <pt x="333" y="452" on="1"/>
        <pt x="499" y="525" on="1"/>
        <pt x="499" y="372" on="1"/>
        <pt x="333" y="299" on="1"/>
        <pt x="333" y="171" on="1"/>
        <pt x="511" y="171" on="1"/>
        <pt x="549" y="171" on="0"/>
        <pt x="584" y="204" on="0"/>
        <pt x="584" y="228" on="1"/>
        <pt x="584" y="258" on="0"/>
        <pt x="548" y="296" on="0"/>
        <pt x="508" y="298" on="1"/>
        <pt x="571" y="438" on="1"/>
      </contour>
    </TTGlyph>
    <TTGlyph name="M" xMin="50" yMin="0" xMax="898" yMax="660">
      <contour>
        <pt x="898" y="0" on="1"/>
        <pt x="695" y="0" on="1"/>
        <pt x="695" y="229" on="1"/>
        <pt x="698" y="451" on="1"/>
        <pt x="695" y="451" on="1"/>
        <pt x="567" y="0" on="1"/>
        <pt x="381" y="0" on="1"/>
        <pt x="255" y="451" on="1"/>
        <pt x="251" y="451" on="1"/>
        <pt x="254" y="229" on="1"/>
        <pt x="254" y="0" on="1"/>
        <pt x="50" y="0" on="1"/>
        <pt x="50" y="660" on="1"/>
        <pt x="376" y="660" on="1"/>
        <pt x="452" y="367" on="1"/>
        <pt x="481" y="244" on="1"/>
        <pt x="483" y="244" on="1"/>
        <pt x="512" y="367" on="1"/>
        <pt x="588" y="660" on="1"/>
        <pt x="898" y="660" on="1"/>
      </contour>
    </TTGlyph>
    <TTGlyph name="M.swsh" xMin="10" yMin="-110" xMax="1165" yMax="660">
      <contour>
        <pt x="1165" y="660" on="1"/>
        <pt x="1165" y="0" on="1"/>
        <pt x="962" y="0" on="1"/>
        <pt x="962" y="229" on="1"/>
        <pt x="965" y="451" on="1"/>
        <pt x="962" y="451" on="1"/>
        <pt x="834" y="0" on="1"/>
        <pt x="648" y="0" on="1"/>
        <pt x="522" y="451" on="1"/>
        <pt x="518" y="451" on="1"/>
        <pt x="521" y="229" on="1"/>
        <pt x="521" y="139" on="1"/>
        <pt x="521" y="7" on="0"/>
        <pt x="388" y="-110" on="0"/>
        <pt x="267" y="-110" on="1"/>
        <pt x="190" y="-110" on="0"/>
        <pt x="93" y="-73" on="0"/>
        <pt x="58" y="-27" on="1"/>
        <pt x="124" y="118" on="1"/>
        <pt x="162" y="56" on="0"/>
        <pt x="234" y="56" on="1"/>
        <pt x="276" y="56" on="0"/>
        <pt x="317" y="89" on="0"/>
        <pt x="317" y="125" on="1"/>
        <pt x="317" y="494" on="1"/>
        <pt x="277" y="494" on="1"/>
        <pt x="244" y="494" on="0"/>
        <pt x="214" y="459" on="0"/>
        <pt x="214" y="432" on="1"/>
        <pt x="214" y="404" on="0"/>
        <pt x="254" y="364" on="0"/>
        <pt x="290" y="362" on="1"/>
        <pt x="227" y="212" on="1"/>
        <pt x="128" y="215" on="0"/>
        <pt x="10" y="334" on="0"/>
        <pt x="10" y="436" on="1"/>
        <pt x="10" y="544" on="0"/>
        <pt x="145" y="660" on="0"/>
        <pt x="277" y="660" on="1"/>
        <pt x="643" y="660" on="1"/>
        <pt x="719" y="367" on="1"/>
        <pt x="748" y="244" on="1"/>
        <pt x="750" y="244" on="1"/>
        <pt x="779" y="367" on="1"/>
        <pt x="855" y="660" on="1"/>
      </contour>
    </TTGlyph>
    <TTGlyph name="M.swsh.001" xMin="10" yMin="0" xMax="1165" yMax="660">
      <contour>
        <pt x="1165" y="660" on="1"/>
        <pt x="1165" y="0" on="1"/>
        <pt x="962" y="0" on="1"/>
        <pt x="962" y="229" on="1"/>
        <pt x="965" y="451" on="1"/>
        <pt x="962" y="451" on="1"/>
        <pt x="834" y="0" on="1"/>
        <pt x="648" y="0" on="1"/>
        <pt x="522" y="451" on="1"/>
        <pt x="518" y="451" on="1"/>
        <pt x="521" y="229" on="1"/>
        <pt x="521" y="0" on="1"/>
        <pt x="317" y="0" on="1"/>
        <pt x="317" y="494" on="1"/>
        <pt x="277" y="494" on="1"/>
        <pt x="244" y="494" on="0"/>
        <pt x="214" y="459" on="0"/>
        <pt x="214" y="432" on="1"/>
        <pt x="214" y="404" on="0"/>
        <pt x="254" y="364" on="0"/>
        <pt x="290" y="362" on="1"/>
        <pt x="227" y="212" on="1"/>
        <pt x="128" y="215" on="0"/>
        <pt x="10" y="334" on="0"/>
        <pt x="10" y="436" on="1"/>
        <pt x="10" y="544" on="0"/>
        <pt x="145" y="660" on="0"/>
        <pt x="277" y="660" on="1"/>
        <pt x="643" y="660" on="1"/>
        <pt x="719" y="367" on="1"/>
        <pt x="748" y="244" on="1"/>
        <pt x="750" y="244" on="1"/>
        <pt x="779" y="367" on="1"/>
        <pt x="855" y="660" on="1"/>
      </contour>
    </TTGlyph>
    <TTGlyph name="N" xMin="50" yMin="0" xMax="696" yMax="660">
      <contour>
        <pt x="696" y="0" on="1"/>
        <pt x="444" y="0" on="1"/>
        <pt x="286" y="300" on="1"/>
        <pt x="250" y="381" on="1"/>
        <pt x="248" y="381" on="1"/>
        <pt x="252" y="245" on="1"/>
        <pt x="252" y="0" on="1"/>
        <pt x="50" y="0" on="1"/>
        <pt x="50" y="660" on="1"/>
        <pt x="302" y="660" on="1"/>
        <pt x="460" y="359" on="1"/>
        <pt x="496" y="279" on="1"/>
        <pt x="498" y="279" on="1"/>
        <pt x="494" y="415" on="1"/>
        <pt x="494" y="660" on="1"/>
        <pt x="696" y="660" on="1"/>
      </contour>
    </TTGlyph>
    <TTGlyph name="N.swsh" xMin="50" yMin="0" xMax="957" yMax="720">
      <contour>
        <pt x="825" y="720" on="0"/>
        <pt x="921" y="685" on="0"/>
        <pt x="957" y="647" on="1"/>
        <pt x="887" y="506" on="1"/>
        <pt x="866" y="532" on="0"/>
        <pt x="821" y="554" on="0"/>
        <pt x="785" y="554" on="1"/>
        <pt x="742" y="554" on="0"/>
        <pt x="696" y="504" on="0"/>
        <pt x="696" y="455" on="1"/>
        <pt x="696" y="0" on="1"/>
        <pt x="444" y="0" on="1"/>
        <pt x="286" y="300" on="1"/>
        <pt x="250" y="381" on="1"/>
        <pt x="248" y="381" on="1"/>
        <pt x="252" y="245" on="1"/>
        <pt x="252" y="0" on="1"/>
        <pt x="50" y="0" on="1"/>
        <pt x="50" y="660" on="1"/>
        <pt x="302" y="660" on="1"/>
        <pt x="460" y="359" on="1"/>
        <pt x="496" y="279" on="1"/>
        <pt x="498" y="279" on="1"/>
        <pt x="494" y="415" on="1"/>
        <pt x="494" y="471" on="1"/>
        <pt x="494" y="720" on="0"/>
        <pt x="752" y="720" on="1"/>
      </contour>
    </TTGlyph>
    <TTGlyph name="Nacute" xMin="50" yMin="0" xMax="696" yMax="876">
      <component glyphName="N" x="0" y="0" flags="0x0"/>
      <component glyphName="acutecomb.cap" x="373" y="0" flags="0x0"/>
    </TTGlyph>
    <TTGlyph name="Nacute.swsh" xMin="50" yMin="0" xMax="957" yMax="876">
      <component glyphName="N.swsh" x="0" y="0" flags="0x0"/>
      <component glyphName="acutecomb.cap" x="373" y="0" flags="0x0"/>
    </TTGlyph>
    <TTGlyph name="Ncaron" xMin="50" yMin="0" xMax="696" yMax="876">
      <component glyphName="N" x="0" y="0" flags="0x0"/>
      <component glyphName="uni030C.cap" x="373" y="0" flags="0x0"/>
    </TTGlyph>
    <TTGlyph name="Ncaron.swsh" xMin="50" yMin="0" xMax="957" yMax="876">
      <component glyphName="N.swsh" x="0" y="0" flags="0x0"/>
      <component glyphName="uni030C.cap" x="373" y="0" flags="0x0"/>
    </TTGlyph>
    <TTGlyph name="Ncommaaccent.sc" xMin="53" yMin="-243" xMax="657" yMax="560">
      <component glyphName="n.sc" x="0" y="0" flags="0x0"/>
      <component glyphName="uni0326" x="851" y="0" flags="0x0"/>
    </TTGlyph>
    <TTGlyph name="Ncommaaccent.swsh" xMin="50" yMin="-243" xMax="957" yMax="720">
      <component glyphName="N.swsh" x="0" y="0" flags="0x0"/>
      <component glyphName="uni0326" x="874" y="0" flags="0x0"/>
    </TTGlyph>
    <TTGlyph name="Ntilde" xMin="50" yMin="0" xMax="696" yMax="881">
      <component glyphName="N" x="0" y="0" flags="0x0"/>
      <component glyphName="tilde" x="123" y="160" flags="0x4"/>
    </TTGlyph>
    <TTGlyph name="Ntilde.swsh" xMin="50" yMin="0" xMax="957" yMax="881">
      <component glyphName="N.swsh" x="0" y="0" flags="0x0"/>
      <component glyphName="tilde" x="123" y="160" flags="0x4"/>
    </TTGlyph>
    <TTGlyph name="O" xMin="29" yMin="-10" xMax="700" yMax="670">
      <contour>
        <pt x="523" y="670" on="0"/>
        <pt x="700" y="491" on="0"/>
        <pt x="700" y="330" on="1"/>
        <pt x="700" y="169" on="0"/>
        <pt x="523" y="-10" on="0"/>
        <pt x="365" y="-10" on="1"/>
        <pt x="261" y="-10" on="0"/>
        <pt x="110" y="70" on="0"/>
        <pt x="29" y="223" on="0"/>
        <pt x="29" y="330" on="1"/>
        <pt x="29" y="437" on="0"/>
        <pt x="110" y="590" on="0"/>
        <pt x="261" y="670" on="0"/>
        <pt x="365" y="670" on="1"/>
      </contour>
      <contour>
        <pt x="314" y="495" on="0"/>
        <pt x="267" y="416" on="0"/>
        <pt x="267" y="330" on="1"/>
        <pt x="267" y="244" on="0"/>
        <pt x="314" y="165" on="0"/>
        <pt x="365" y="165" on="1"/>
        <pt x="416" y="165" on="0"/>
        <pt x="462" y="244" on="0"/>
        <pt x="462" y="330" on="1"/>
        <pt x="462" y="416" on="0"/>
        <pt x="416" y="495" on="0"/>
        <pt x="365" y="495" on="1"/>
      </contour>
    </TTGlyph>
    <TTGlyph name="OE" xMin="29" yMin="-10" xMax="1011" yMax="670">
      <contour>
        <pt x="1011" y="171" on="1"/>
        <pt x="1011" y="0" on="1"/>
        <pt x="542" y="0" on="1"/>
        <pt x="542" y="66" on="1"/>
        <pt x="464" y="-10" on="0"/>
        <pt x="342" y="-10" on="1"/>
        <pt x="247" y="-10" on="0"/>
        <pt x="106" y="70" on="0"/>
        <pt x="29" y="223" on="0"/>
        <pt x="29" y="330" on="1"/>
        <pt x="29" y="437" on="0"/>
        <pt x="106" y="590" on="0"/>
        <pt x="247" y="670" on="0"/>
        <pt x="342" y="670" on="1"/>
        <pt x="464" y="670" on="0"/>
        <pt x="542" y="594" on="1"/>
        <pt x="542" y="660" on="1"/>
        <pt x="999" y="660" on="1"/>
        <pt x="999" y="489" on="1"/>
        <pt x="685" y="489" on="1"/>
        <pt x="685" y="407" on="1"/>
        <pt x="938" y="407" on="1"/>
        <pt x="938" y="249" on="1"/>
        <pt x="685" y="249" on="1"/>
        <pt x="685" y="171" on="1"/>
      </contour>
      <contour>
        <pt x="406" y="165" on="0"/>
        <pt x="452" y="244" on="0"/>
        <pt x="452" y="330" on="1"/>
        <pt x="452" y="416" on="0"/>
        <pt x="406" y="495" on="0"/>
        <pt x="355" y="495" on="1"/>
        <pt x="307" y="495" on="0"/>
        <pt x="262" y="416" on="0"/>
        <pt x="262" y="330" on="1"/>
        <pt x="262" y="244" on="0"/>
        <pt x="307" y="165" on="0"/>
        <pt x="355" y="165" on="1"/>
      </contour>
    </TTGlyph>
    <TTGlyph name="Oacute" xMin="29" yMin="-10" xMax="700" yMax="876">
      <component glyphName="O" x="0" y="0" flags="0x0"/>
      <component glyphName="acutecomb.cap" x="365" y="0" flags="0x0"/>
    </TTGlyph>
    <TTGlyph name="Ocircumflex" xMin="29" yMin="-10" xMax="700" yMax="876">
      <component glyphName="O" x="0" y="0" flags="0x0"/>
      <component glyphName="uni0302.cap" x="365" y="0" flags="0x0"/>
    </TTGlyph>
    <TTGlyph name="Odieresis" xMin="29" yMin="-10" xMax="700" yMax="880">
      <component glyphName="O" x="0" y="0" flags="0x0"/>
      <component glyphName="dieresis" x="115" y="160" flags="0x4"/>
    </TTGlyph>
    <TTGlyph name="Odieresis.titl" xMin="29" yMin="-10" xMax="700" yMax="670">
      <contour>
        <pt x="523" y="670" on="0"/>
        <pt x="700" y="491" on="0"/>
        <pt x="700" y="330" on="1"/>
        <pt x="700" y="169" on="0"/>
        <pt x="523" y="-10" on="0"/>
        <pt x="365" y="-10" on="1"/>
        <pt x="261" y="-10" on="0"/>
        <pt x="110" y="70" on="0"/>
        <pt x="29" y="223" on="0"/>
        <pt x="29" y="330" on="1"/>
        <pt x="29" y="437" on="0"/>
        <pt x="110" y="590" on="0"/>
        <pt x="261" y="670" on="0"/>
        <pt x="365" y="670" on="1"/>
      </contour>
      <contour>
        <pt x="150" y="632" on="0"/>
        <pt x="88" y="577" on="0"/>
        <pt x="68" y="544" on="1"/>
        <pt x="45" y="564" on="0"/>
        <pt x="45" y="597" on="1"/>
        <pt x="45" y="631" on="0"/>
        <pt x="87" y="670" on="0"/>
        <pt x="125" y="670" on="1"/>
        <pt x="165" y="670" on="0"/>
        <pt x="187" y="650" on="1"/>
      </contour>
      <contour>
        <pt x="644" y="575" on="0"/>
        <pt x="579" y="632" on="0"/>
        <pt x="543" y="650" on="1"/>
        <pt x="565" y="670" on="0"/>
        <pt x="603" y="670" on="1"/>
        <pt x="643" y="670" on="0"/>
        <pt x="688" y="632" on="0"/>
        <pt x="688" y="598" on="1"/>
        <pt x="688" y="562" on="0"/>
        <pt x="663" y="542" on="1"/>
      </contour>
      <contour>
        <pt x="314" y="495" on="0"/>
        <pt x="267" y="416" on="0"/>
        <pt x="267" y="330" on="1"/>
        <pt x="267" y="244" on="0"/>
        <pt x="314" y="165" on="0"/>
        <pt x="365" y="165" on="1"/>
        <pt x="416" y="165" on="0"/>
        <pt x="462" y="244" on="0"/>
        <pt x="462" y="330" on="1"/>
        <pt x="462" y="416" on="0"/>
        <pt x="416" y="495" on="0"/>
        <pt x="365" y="495" on="1"/>
      </contour>
    </TTGlyph>
    <TTGlyph name="Odieresis.titl.001" xMin="29" yMin="-10" xMax="700" yMax="670">
      <contour>
        <pt x="700" y="477" on="0"/>
        <pt x="700" y="330" on="1"/>
        <pt x="700" y="169" on="0"/>
        <pt x="523" y="-10" on="0"/>
        <pt x="365" y="-10" on="1"/>
        <pt x="261" y="-10" on="0"/>
        <pt x="110" y="70" on="0"/>
        <pt x="29" y="223" on="0"/>
        <pt x="29" y="330" on="1"/>
        <pt x="29" y="481" on="0"/>
        <pt x="107" y="568" on="1"/>
        <pt x="95" y="583" on="0"/>
        <pt x="95" y="606" on="1"/>
        <pt x="95" y="636" on="0"/>
        <pt x="132" y="670" on="0"/>
        <pt x="165" y="670" on="1"/>
        <pt x="206" y="670" on="0"/>
        <pt x="224" y="647" on="1"/>
        <pt x="288" y="670" on="0"/>
        <pt x="365" y="670" on="1"/>
        <pt x="444" y="670" on="0"/>
        <pt x="507" y="647" on="1"/>
        <pt x="525" y="670" on="0"/>
        <pt x="565" y="670" on="1"/>
        <pt x="599" y="670" on="0"/>
        <pt x="638" y="637" on="0"/>
        <pt x="638" y="608" on="1"/>
        <pt x="638" y="583" on="0"/>
        <pt x="624" y="567" on="1"/>
      </contour>
      <contour>
        <pt x="416" y="165" on="0"/>
        <pt x="462" y="244" on="0"/>
        <pt x="462" y="330" on="1"/>
        <pt x="462" y="416" on="0"/>
        <pt x="416" y="495" on="0"/>
        <pt x="365" y="495" on="1"/>
        <pt x="314" y="495" on="0"/>
        <pt x="267" y="416" on="0"/>
        <pt x="267" y="330" on="1"/>
        <pt x="267" y="244" on="0"/>
        <pt x="314" y="165" on="0"/>
        <pt x="365" y="165" on="1"/>
      </contour>
    </TTGlyph>
    <TTGlyph name="Ograve" xMin="29" yMin="-10" xMax="700" yMax="876">
      <component glyphName="O" x="0" y="0" flags="0x0"/>
      <component glyphName="gravecomb.cap" x="365" y="0" flags="0x0"/>
    </TTGlyph>
    <TTGlyph name="Ohungarumlaut" xMin="29" yMin="-10" xMax="700" yMax="876">
      <component glyphName="O" x="0" y="0" flags="0x0"/>
      <component glyphName="acutecomb.cap" x="493" y="0" flags="0x0"/>
      <component glyphName="acutecomb.cap" x="238" y="0" flags="0x0"/>
    </TTGlyph>
    <TTGlyph name="Oinferior" xMin="21" yMin="-195" xMax="455" yMax="213">
      <component glyphName="Osuperior" x="0" y="-522" flags="0x4"/>
    </TTGlyph>
    <TTGlyph name="Omacron" xMin="29" yMin="-10" xMax="700" yMax="841">
      <component glyphName="O" x="0" y="0" flags="0x0"/>
      <component glyphName="macron" x="115" y="160" flags="0x4"/>
    </TTGlyph>
    <TTGlyph name="Oslash" xMin="29" yMin="-21" xMax="700" yMax="680">
      <contour>
        <pt x="700" y="495" on="0"/>
        <pt x="700" y="330" on="1"/>
        <pt x="700" y="169" on="0"/>
        <pt x="523" y="-10" on="0"/>
        <pt x="365" y="-10" on="1"/>
        <pt x="259" y="-10" on="0"/>
        <pt x="182" y="32" on="1"/>
        <pt x="144" y="-21" on="1"/>
        <pt x="48" y="-21" on="1"/>
        <pt x="120" y="77" on="1"/>
        <pt x="75" y="121" on="0"/>
        <pt x="29" y="249" on="0"/>
        <pt x="29" y="330" on="1"/>
        <pt x="29" y="437" on="0"/>
        <pt x="110" y="590" on="0"/>
        <pt x="261" y="670" on="0"/>
        <pt x="365" y="670" on="1"/>
        <pt x="471" y="670" on="0"/>
        <pt x="547" y="629" on="1"/>
        <pt x="584" y="680" on="1"/>
        <pt x="679" y="680" on="1"/>
        <pt x="608" y="584" on="1"/>
      </contour>
      <contour>
        <pt x="314" y="495" on="0"/>
        <pt x="267" y="416" on="0"/>
        <pt x="267" y="330" on="1"/>
        <pt x="267" y="288" on="0"/>
        <pt x="271" y="263" on="1"/>
        <pt x="423" y="476" on="1"/>
        <pt x="401" y="495" on="0"/>
        <pt x="365" y="495" on="1"/>
      </contour>
      <contour>
        <pt x="416" y="165" on="0"/>
        <pt x="462" y="244" on="0"/>
        <pt x="462" y="330" on="1"/>
        <pt x="462" y="364" on="0"/>
        <pt x="459" y="389" on="1"/>
        <pt x="310" y="181" on="1"/>
        <pt x="332" y="165" on="0"/>
        <pt x="365" y="165" on="1"/>
      </contour>
    </TTGlyph>
    <TTGlyph name="Osuperior" xMin="21" yMin="327" xMax="455" yMax="735">
      <contour>
        <pt x="338" y="735" on="0"/>
        <pt x="455" y="627" on="0"/>
        <pt x="455" y="531" on="1"/>
        <pt x="455" y="435" on="0"/>
        <pt x="338" y="327" on="0"/>
        <pt x="238" y="327" on="1"/>
        <pt x="138" y="327" on="0"/>
        <pt x="21" y="435" on="0"/>
        <pt x="21" y="531" on="1"/>
        <pt x="21" y="627" on="0"/>
        <pt x="138" y="735" on="0"/>
        <pt x="238" y="735" on="1"/>
      </contour>
      <contour>
        <pt x="208" y="626" on="0"/>
        <pt x="181" y="582" on="0"/>
        <pt x="181" y="531" on="1"/>
        <pt x="181" y="480" on="0"/>
        <pt x="208" y="436" on="0"/>
        <pt x="238" y="436" on="1"/>
        <pt x="268" y="436" on="0"/>
        <pt x="295" y="480" on="0"/>
        <pt x="295" y="531" on="1"/>
        <pt x="295" y="582" on="0"/>
        <pt x="268" y="626" on="0"/>
        <pt x="238" y="626" on="1"/>
      </contour>
    </TTGlyph>
    <TTGlyph name="Otilde" xMin="29" yMin="-10" xMax="700" yMax="881">
      <component glyphName="O" x="0" y="0" flags="0x0"/>
      <component glyphName="tilde" x="115" y="160" flags="0x4"/>
    </TTGlyph>
    <TTGlyph name="P" xMin="50" yMin="0" xMax="677" yMax="660">
      <contour>
        <pt x="677" y="660" on="0"/>
        <pt x="677" y="429" on="1"/>
        <pt x="677" y="322" on="0"/>
        <pt x="537" y="210" on="0"/>
        <pt x="400" y="210" on="1"/>
        <pt x="283" y="210" on="1"/>
        <pt x="283" y="0" on="1"/>
        <pt x="50" y="0" on="1"/>
        <pt x="50" y="660" on="1"/>
        <pt x="400" y="660" on="1"/>
      </contour>
      <contour>
        <pt x="405" y="370" on="0"/>
        <pt x="444" y="400" on="0"/>
        <pt x="444" y="432" on="1"/>
        <pt x="444" y="464" on="0"/>
        <pt x="405" y="494" on="0"/>
        <pt x="362" y="494" on="1"/>
        <pt x="283" y="494" on="1"/>
        <pt x="283" y="370" on="1"/>
        <pt x="362" y="370" on="1"/>
      </contour>
    </TTGlyph>
    <TTGlyph name="Q" xMin="29" yMin="-209" xMax="700" yMax="670">
      <contour>
        <pt x="563" y="-53" on="0"/>
        <pt x="628" y="-31" on="0"/>
        <pt x="648" y="-14" on="1"/>
        <pt x="700" y="-155" on="1"/>
        <pt x="643" y="-209" on="0"/>
        <pt x="507" y="-209" on="1"/>
        <pt x="402" y="-209" on="0"/>
        <pt x="296" y="-118" on="0"/>
        <pt x="296" y="-45" on="1"/>
        <pt x="296" y="-32" on="0"/>
        <pt x="300" y="-6" on="1"/>
        <pt x="171" y="12" on="0"/>
        <pt x="29" y="186" on="0"/>
        <pt x="29" y="330" on="1"/>
        <pt x="29" y="437" on="0"/>
        <pt x="110" y="590" on="0"/>
        <pt x="261" y="670" on="0"/>
        <pt x="365" y="670" on="1"/>
        <pt x="523" y="670" on="0"/>
        <pt x="700" y="491" on="0"/>
        <pt x="700" y="330" on="1"/>
        <pt x="700" y="184" on="0"/>
        <pt x="553" y="8" on="0"/>
        <pt x="420" y="-7" on="1"/>
        <pt x="423" y="-32" on="0"/>
        <pt x="473" y="-53" on="0"/>
        <pt x="525" y="-53" on="1"/>
      </contour>
      <contour>
        <pt x="314" y="495" on="0"/>
        <pt x="267" y="416" on="0"/>
        <pt x="267" y="330" on="1"/>
        <pt x="267" y="244" on="0"/>
        <pt x="314" y="165" on="0"/>
        <pt x="365" y="165" on="1"/>
        <pt x="416" y="165" on="0"/>
        <pt x="462" y="244" on="0"/>
        <pt x="462" y="330" on="1"/>
        <pt x="462" y="416" on="0"/>
        <pt x="416" y="495" on="0"/>
        <pt x="365" y="495" on="1"/>
      </contour>
    </TTGlyph>
    <TTGlyph name="R" xMin="50" yMin="0" xMax="712" yMax="660">
      <contour>
        <pt x="342" y="219" on="1"/>
        <pt x="278" y="219" on="1"/>
        <pt x="278" y="0" on="1"/>
        <pt x="50" y="0" on="1"/>
        <pt x="50" y="660" on="1"/>
        <pt x="408" y="660" on="1"/>
        <pt x="540" y="660" on="0"/>
        <pt x="675" y="549" on="0"/>
        <pt x="675" y="439" on="1"/>
        <pt x="675" y="294" on="0"/>
        <pt x="556" y="244" on="1"/>
        <pt x="712" y="0" on="1"/>
        <pt x="459" y="0" on="1"/>
      </contour>
      <contour>
        <pt x="278" y="372" on="1"/>
        <pt x="361" y="372" on="1"/>
        <pt x="405" y="372" on="0"/>
        <pt x="442" y="399" on="0"/>
        <pt x="442" y="433" on="1"/>
        <pt x="442" y="466" on="0"/>
        <pt x="405" y="494" on="0"/>
        <pt x="361" y="494" on="1"/>
        <pt x="278" y="494" on="1"/>
      </contour>
    </TTGlyph>
    <TTGlyph name="R.ss03" xMin="50" yMin="0" xMax="685" yMax="660">
      <contour>
        <pt x="50" y="660" on="1"/>
        <pt x="408" y="660" on="1"/>
        <pt x="540" y="660" on="0"/>
        <pt x="675" y="552" on="0"/>
        <pt x="675" y="449" on="1"/>
        <pt x="675" y="375" on="0"/>
        <pt x="609" y="297" on="0"/>
        <pt x="551" y="279" on="1"/>
        <pt x="551" y="277" on="1"/>
        <pt x="596" y="265" on="0"/>
        <pt x="636" y="213" on="0"/>
        <pt x="643" y="175" on="1"/>
        <pt x="651" y="129" on="1"/>
        <pt x="660" y="78" on="0"/>
        <pt x="672" y="27" on="0"/>
        <pt x="685" y="5" on="1"/>
        <pt x="685" y="0" on="1"/>
        <pt x="442" y="0" on="1"/>
        <pt x="431" y="26" on="0"/>
        <pt x="426" y="79" on="1"/>
        <pt x="422" y="118" on="0"/>
        <pt x="415" y="153" on="1"/>
        <pt x="407" y="190" on="0"/>
        <pt x="368" y="219" on="0"/>
        <pt x="330" y="219" on="1"/>
        <pt x="278" y="219" on="1"/>
        <pt x="278" y="0" on="1"/>
        <pt x="50" y="0" on="1"/>
      </contour>
      <contour>
        <pt x="361" y="372" on="1"/>
        <pt x="405" y="372" on="0"/>
        <pt x="442" y="399" on="0"/>
        <pt x="442" y="433" on="1"/>
        <pt x="442" y="466" on="0"/>
        <pt x="405" y="494" on="0"/>
        <pt x="361" y="494" on="1"/>
        <pt x="278" y="494" on="1"/>
        <pt x="278" y="372" on="1"/>
      </contour>
    </TTGlyph>
    <TTGlyph name="R.swsh" xMin="10" yMin="-110" xMax="979" yMax="660">
      <contour>
        <pt x="609" y="219" on="1"/>
        <pt x="545" y="219" on="1"/>
        <pt x="545" y="149" on="1"/>
        <pt x="545" y="9" on="0"/>
        <pt x="404" y="-110" on="0"/>
        <pt x="277" y="-110" on="1"/>
        <pt x="201" y="-110" on="0"/>
        <pt x="92" y="-65" on="0"/>
        <pt x="58" y="-17" on="1"/>
        <pt x="134" y="118" on="1"/>
        <pt x="155" y="85" on="0"/>
        <pt x="206" y="56" on="0"/>
        <pt x="242" y="56" on="1"/>
        <pt x="276" y="56" on="0"/>
        <pt x="317" y="99" on="0"/>
        <pt x="317" y="135" on="1"/>
        <pt x="317" y="494" on="1"/>
        <pt x="277" y="494" on="1"/>
        <pt x="244" y="494" on="0"/>
        <pt x="214" y="459" on="0"/>
        <pt x="214" y="432" on="1"/>
        <pt x="214" y="404" on="0"/>
        <pt x="254" y="364" on="0"/>
        <pt x="290" y="362" on="1"/>
        <pt x="227" y="212" on="1"/>
        <pt x="128" y="215" on="0"/>
        <pt x="10" y="334" on="0"/>
        <pt x="10" y="436" on="1"/>
        <pt x="10" y="544" on="0"/>
        <pt x="145" y="660" on="0"/>
        <pt x="277" y="660" on="1"/>
        <pt x="675" y="660" on="1"/>
        <pt x="807" y="660" on="0"/>
        <pt x="942" y="549" on="0"/>
        <pt x="942" y="439" on="1"/>
        <pt x="942" y="294" on="0"/>
        <pt x="823" y="244" on="1"/>
        <pt x="979" y="0" on="1"/>
        <pt x="726" y="0" on="1"/>
      </contour>
      <contour>
        <pt x="545" y="372" on="1"/>
        <pt x="628" y="372" on="1"/>
        <pt x="672" y="372" on="0"/>
        <pt x="709" y="399" on="0"/>
        <pt x="709" y="433" on="1"/>
        <pt x="709" y="466" on="0"/>
        <pt x="672" y="494" on="0"/>
        <pt x="628" y="494" on="1"/>
        <pt x="545" y="494" on="1"/>
      </contour>
    </TTGlyph>
    <TTGlyph name="R.swsh.001" xMin="50" yMin="-102" xMax="781" yMax="660">
      <contour>
        <pt x="663" y="81" on="0"/>
        <pt x="737" y="29" on="0"/>
        <pt x="781" y="24" on="1"/>
        <pt x="653" y="-102" on="1"/>
        <pt x="550" y="-102" on="0"/>
        <pt x="481" y="-4" on="1"/>
        <pt x="326" y="219" on="1"/>
        <pt x="278" y="219" on="1"/>
        <pt x="278" y="0" on="1"/>
        <pt x="50" y="0" on="1"/>
        <pt x="50" y="660" on="1"/>
        <pt x="408" y="660" on="1"/>
        <pt x="540" y="660" on="0"/>
        <pt x="675" y="549" on="0"/>
        <pt x="675" y="439" on="1"/>
        <pt x="675" y="285" on="0"/>
        <pt x="541" y="238" on="1"/>
        <pt x="620" y="136" on="1"/>
      </contour>
      <contour>
        <pt x="278" y="494" on="1"/>
        <pt x="278" y="372" on="1"/>
        <pt x="361" y="372" on="1"/>
        <pt x="405" y="372" on="0"/>
        <pt x="442" y="399" on="0"/>
        <pt x="442" y="433" on="1"/>
        <pt x="442" y="466" on="0"/>
        <pt x="405" y="494" on="0"/>
        <pt x="361" y="494" on="1"/>
      </contour>
    </TTGlyph>
    <TTGlyph name="Racute" xMin="50" yMin="0" xMax="712" yMax="876">
      <component glyphName="R" x="0" y="0" flags="0x0"/>
      <component glyphName="acutecomb.cap" x="334" y="0" flags="0x0"/>
    </TTGlyph>
    <TTGlyph name="Racute.ss03" xMin="50" yMin="0" xMax="685" yMax="876">
      <component glyphName="R.ss03" x="0" y="0" flags="0x0"/>
      <component glyphName="acutecomb.cap" x="334" y="0" flags="0x0"/>
    </TTGlyph>
    <TTGlyph name="Racute.swsh" xMin="10" yMin="-110" xMax="979" yMax="876">
      <component glyphName="R.swsh" x="0" y="0" flags="0x0"/>
      <component glyphName="acutecomb.cap" x="601" y="0" flags="0x0"/>
    </TTGlyph>
    <TTGlyph name="Racute.swsh.001" xMin="50" yMin="-102" xMax="781" yMax="876">
      <component glyphName="R.swsh.001" x="0" y="0" flags="0x0"/>
      <component glyphName="acutecomb.cap" x="334" y="0" flags="0x0"/>
    </TTGlyph>
    <TTGlyph name="Rcaron" xMin="50" yMin="0" xMax="712" yMax="876">
      <component glyphName="R" x="0" y="0" flags="0x0"/>
      <component glyphName="uni030C.cap" x="334" y="0" flags="0x0"/>
    </TTGlyph>
    <TTGlyph name="Rcaron.ss03" xMin="50" yMin="0" xMax="685" yMax="876">
      <component glyphName="R.ss03" x="0" y="0" flags="0x0"/>
      <component glyphName="uni030C.cap" x="334" y="0" flags="0x0"/>
    </TTGlyph>
    <TTGlyph name="Rcaron.swsh" xMin="10" yMin="-110" xMax="979" yMax="876">
      <component glyphName="R.swsh" x="0" y="0" flags="0x0"/>
      <component glyphName="uni030C.cap" x="601" y="0" flags="0x0"/>
    </TTGlyph>
    <TTGlyph name="Rcaron.swsh.001" xMin="50" yMin="-102" xMax="781" yMax="876">
      <component glyphName="R.swsh.001" x="0" y="0" flags="0x0"/>
      <component glyphName="uni030C.cap" x="334" y="0" flags="0x0"/>
    </TTGlyph>
    <TTGlyph name="Rcommaaccent.sc" xMin="53" yMin="-243" xMax="642" yMax="560">
      <component glyphName="r.sc" x="0" y="0" flags="0x0"/>
      <component glyphName="uni0326" x="838" y="0" flags="0x0"/>
    </TTGlyph>
    <TTGlyph name="Rcommaaccent.sc.ss03" xMin="53" yMin="-243" xMax="628" yMax="560">
      <component glyphName="r.sc.ss03" x="0" y="0" flags="0x0"/>
      <component glyphName="uni0326" x="828" y="0" flags="0x0"/>
    </TTGlyph>
    <TTGlyph name="Rcommaaccent.ss03" xMin="50" yMin="-243" xMax="685" yMax="660">
      <component glyphName="R.ss03" x="0" y="0" flags="0x0"/>
      <component glyphName="uni0326" x="862" y="0" flags="0x0"/>
    </TTGlyph>
    <TTGlyph name="Rcommaaccent.swsh" xMin="10" yMin="-243" xMax="979" yMax="660">
      <component glyphName="R.swsh" x="0" y="0" flags="0x0"/>
      <component glyphName="uni0326" x="1129" y="0" flags="0x0"/>
    </TTGlyph>
    <TTGlyph name="Rcommaaccent.swsh.001" xMin="50" yMin="-243" xMax="781" yMax="660">
      <component glyphName="R.swsh.001" x="0" y="0" flags="0x0"/>
      <component glyphName="uni0326" x="862" y="0" flags="0x0"/>
    </TTGlyph>
    <TTGlyph name="S" xMin="10" yMin="-10" xMax="641" yMax="670">
      <contour>
        <pt x="435" y="670" on="0"/>
        <pt x="573" y="624" on="0"/>
        <pt x="641" y="565" on="1"/>
        <pt x="539" y="420" on="1"/>
        <pt x="494" y="462" on="0"/>
        <pt x="401" y="499" on="0"/>
        <pt x="344" y="499" on="1"/>
        <pt x="309" y="499" on="0"/>
        <pt x="267" y="478" on="0"/>
        <pt x="267" y="461" on="1"/>
        <pt x="267" y="450" on="0"/>
        <pt x="307" y="438" on="0"/>
        <pt x="357" y="429" on="1"/>
        <pt x="502" y="403" on="0"/>
        <pt x="629" y="298" on="0"/>
        <pt x="629" y="203" on="1"/>
        <pt x="629" y="135" on="0"/>
        <pt x="551" y="39" on="0"/>
        <pt x="417" y="-10" on="0"/>
        <pt x="334" y="-10" on="1"/>
        <pt x="217" y="-10" on="0"/>
        <pt x="77" y="34" on="0"/>
        <pt x="10" y="83" on="1"/>
        <pt x="110" y="241" on="1"/>
        <pt x="152" y="200" on="0"/>
        <pt x="252" y="161" on="0"/>
        <pt x="317" y="161" on="1"/>
        <pt x="390" y="161" on="0"/>
        <pt x="390" y="191" on="1"/>
        <pt x="390" y="207" on="0"/>
        <pt x="344" y="223" on="0"/>
        <pt x="292" y="232" on="1"/>
        <pt x="216" y="246" on="0"/>
        <pt x="109" y="282" on="0"/>
        <pt x="28" y="368" on="0"/>
        <pt x="28" y="443" on="1"/>
        <pt x="28" y="511" on="0"/>
        <pt x="100" y="613" on="0"/>
        <pt x="239" y="670" on="0"/>
        <pt x="337" y="670" on="1"/>
      </contour>
    </TTGlyph>
    <TTGlyph name="S.swsh" xMin="19" yMin="-110" xMax="629" yMax="670">
      <contour>
        <pt x="220" y="-110" on="0"/>
        <pt x="90" y="-66" on="0"/>
        <pt x="19" y="13" on="0"/>
        <pt x="19" y="62" on="1"/>
        <pt x="19" y="97" on="0"/>
        <pt x="25" y="121" on="1"/>
        <pt x="227" y="174" on="1"/>
        <pt x="221" y="149" on="0"/>
        <pt x="221" y="133" on="1"/>
        <pt x="221" y="99" on="0"/>
        <pt x="270" y="65" on="0"/>
        <pt x="325" y="65" on="1"/>
        <pt x="371" y="65" on="0"/>
        <pt x="414" y="92" on="0"/>
        <pt x="414" y="115" on="1"/>
        <pt x="414" y="144" on="0"/>
        <pt x="358" y="179" on="0"/>
        <pt x="284" y="191" on="1"/>
        <pt x="147" y="214" on="0"/>
        <pt x="28" y="327" on="0"/>
        <pt x="28" y="433" on="1"/>
        <pt x="28" y="501" on="0"/>
        <pt x="100" y="609" on="0"/>
        <pt x="240" y="670" on="0"/>
        <pt x="337" y="670" on="1"/>
        <pt x="482" y="670" on="0"/>
        <pt x="618" y="574" on="0"/>
        <pt x="619" y="464" on="1"/>
        <pt x="413" y="386" on="1"/>
        <pt x="415" y="434" on="0"/>
        <pt x="375" y="495" on="0"/>
        <pt x="331" y="495" on="1"/>
        <pt x="301" y="495" on="0"/>
        <pt x="267" y="461" on="0"/>
        <pt x="267" y="431" on="1"/>
        <pt x="267" y="401" on="0"/>
        <pt x="324" y="365" on="0"/>
        <pt x="396" y="350" on="1"/>
        <pt x="522" y="325" on="0"/>
        <pt x="629" y="222" on="0"/>
        <pt x="629" y="127" on="1"/>
        <pt x="629" y="12" on="0"/>
        <pt x="453" y="-110" on="0"/>
        <pt x="304" y="-110" on="1"/>
      </contour>
    </TTGlyph>
    <TTGlyph name="Sacute" xMin="10" yMin="-10" xMax="641" yMax="876">
      <component glyphName="S" x="0" y="0" flags="0x0"/>
      <component glyphName="acutecomb.cap" x="331" y="0" flags="0x0"/>
    </TTGlyph>
    <TTGlyph name="Sacute.swsh" xMin="19" yMin="-110" xMax="629" yMax="876">
      <component glyphName="S.swsh" x="0" y="0" flags="0x0"/>
      <component glyphName="acutecomb.cap" x="331" y="0" flags="0x0"/>
    </TTGlyph>
    <TTGlyph name="Scaron" xMin="10" yMin="-10" xMax="641" yMax="876">
      <component glyphName="S" x="0" y="0" flags="0x0"/>
      <component glyphName="uni030C.cap" x="331" y="0" flags="0x0"/>
    </TTGlyph>
    <TTGlyph name="Scaron.swsh" xMin="19" yMin="-110" xMax="629" yMax="876">
      <component glyphName="S.swsh" x="0" y="0" flags="0x0"/>
      <component glyphName="uni030C.cap" x="331" y="0" flags="0x0"/>
    </TTGlyph>
    <TTGlyph name="Scedilla.sc" xMin="16" yMin="-215" xMax="570" yMax="568">
      <contour>
        <pt x="250" y="375" on="0"/>
        <pt x="288" y="365" on="0"/>
        <pt x="332" y="360" on="1"/>
        <pt x="401" y="352" on="0"/>
        <pt x="495" y="327" on="0"/>
        <pt x="567" y="256" on="0"/>
        <pt x="567" y="189" on="1"/>
        <pt x="567" y="117" on="0"/>
        <pt x="477" y="22" on="0"/>
        <pt x="395" y="3" on="1"/>
        <pt x="450" y="-31" on="0"/>
        <pt x="450" y="-90" on="1"/>
        <pt x="450" y="-156" on="0"/>
        <pt x="362" y="-215" on="0"/>
        <pt x="289" y="-215" on="1"/>
        <pt x="239" y="-215" on="0"/>
        <pt x="176" y="-191" on="0"/>
        <pt x="155" y="-171" on="1"/>
        <pt x="200" y="-76" on="1"/>
        <pt x="228" y="-104" on="0"/>
        <pt x="274" y="-104" on="1"/>
        <pt x="299" y="-104" on="0"/>
        <pt x="328" y="-81" on="0"/>
        <pt x="328" y="-60" on="1"/>
        <pt x="328" y="-23" on="0"/>
        <pt x="268" y="-8" on="1"/>
        <pt x="190" y="-6" on="0"/>
        <pt x="71" y="24" on="0"/>
        <pt x="16" y="60" on="1"/>
        <pt x="97" y="206" on="1"/>
        <pt x="151" y="172" on="0"/>
        <pt x="231" y="148" on="0"/>
        <pt x="287" y="148" on="1"/>
        <pt x="337" y="148" on="0"/>
        <pt x="337" y="169" on="1"/>
        <pt x="337" y="181" on="0"/>
        <pt x="299" y="191" on="0"/>
        <pt x="255" y="196" on="1"/>
        <pt x="188" y="203" on="0"/>
        <pt x="93" y="229" on="0"/>
        <pt x="20" y="302" on="0"/>
        <pt x="20" y="371" on="1"/>
        <pt x="20" y="464" on="0"/>
        <pt x="169" y="568" on="0"/>
        <pt x="297" y="568" on="1"/>
        <pt x="392" y="568" on="0"/>
        <pt x="507" y="536" on="0"/>
        <pt x="570" y="496" on="1"/>
        <pt x="487" y="351" on="1"/>
        <pt x="429" y="387" on="0"/>
        <pt x="354" y="413" on="0"/>
        <pt x="300" y="413" on="1"/>
        <pt x="275" y="413" on="0"/>
        <pt x="250" y="398" on="0"/>
        <pt x="250" y="387" on="1"/>
      </contour>
    </TTGlyph>
    <TTGlyph name="Scedilla.swsh" xMin="19" yMin="-315" xMax="629" yMax="670">
      <contour>
        <pt x="629" y="30" on="0"/>
        <pt x="505" y="-87" on="0"/>
        <pt x="395" y="-103" on="1"/>
        <pt x="440" y="-138" on="0"/>
        <pt x="440" y="-190" on="1"/>
        <pt x="440" y="-256" on="0"/>
        <pt x="352" y="-315" on="0"/>
        <pt x="279" y="-315" on="1"/>
        <pt x="229" y="-315" on="0"/>
        <pt x="166" y="-291" on="0"/>
        <pt x="145" y="-271" on="1"/>
        <pt x="190" y="-176" on="1"/>
        <pt x="218" y="-204" on="0"/>
        <pt x="264" y="-204" on="1"/>
        <pt x="289" y="-204" on="0"/>
        <pt x="318" y="-181" on="0"/>
        <pt x="318" y="-160" on="1"/>
        <pt x="318" y="-143" on="0"/>
        <pt x="292" y="-117" on="0"/>
        <pt x="260" y="-108" on="1"/>
        <pt x="188" y="-103" on="0"/>
        <pt x="79" y="-56" on="0"/>
        <pt x="19" y="17" on="0"/>
        <pt x="19" y="62" on="1"/>
        <pt x="19" y="97" on="0"/>
        <pt x="25" y="121" on="1"/>
        <pt x="227" y="174" on="1"/>
        <pt x="221" y="149" on="0"/>
        <pt x="221" y="133" on="1"/>
        <pt x="221" y="99" on="0"/>
        <pt x="270" y="65" on="0"/>
        <pt x="325" y="65" on="1"/>
        <pt x="371" y="65" on="0"/>
        <pt x="414" y="92" on="0"/>
        <pt x="414" y="115" on="1"/>
        <pt x="414" y="144" on="0"/>
        <pt x="358" y="179" on="0"/>
        <pt x="284" y="191" on="1"/>
        <pt x="147" y="214" on="0"/>
        <pt x="28" y="327" on="0"/>
        <pt x="28" y="433" on="1"/>
        <pt x="28" y="501" on="0"/>
        <pt x="100" y="609" on="0"/>
        <pt x="240" y="670" on="0"/>
        <pt x="337" y="670" on="1"/>
        <pt x="482" y="670" on="0"/>
        <pt x="618" y="574" on="0"/>
        <pt x="619" y="464" on="1"/>
        <pt x="413" y="386" on="1"/>
        <pt x="415" y="434" on="0"/>
        <pt x="375" y="495" on="0"/>
        <pt x="331" y="495" on="1"/>
        <pt x="301" y="495" on="0"/>
        <pt x="267" y="461" on="0"/>
        <pt x="267" y="431" on="1"/>
        <pt x="267" y="401" on="0"/>
        <pt x="324" y="365" on="0"/>
        <pt x="396" y="350" on="1"/>
        <pt x="522" y="325" on="0"/>
        <pt x="629" y="222" on="0"/>
        <pt x="629" y="127" on="1"/>
      </contour>
    </TTGlyph>
    <TTGlyph name="Scommaaccent.sc" xMin="16" yMin="-243" xMax="570" yMax="568">
      <component glyphName="s.sc" x="0" y="0" flags="0x0"/>
      <component glyphName="uni0326" x="812" y="0" flags="0x0"/>
    </TTGlyph>
    <TTGlyph name="Scommaaccent.swsh" xMin="19" yMin="-343" xMax="629" yMax="670">
      <component glyphName="S.swsh" x="0" y="0" flags="0x0"/>
      <component glyphName="uni0326" x="804" y="-100" flags="0x4"/>
    </TTGlyph>
    <TTGlyph name="T" xMin="20" yMin="0" xMax="666" yMax="660">
      <contour>
        <pt x="666" y="489" on="1"/>
        <pt x="460" y="489" on="1"/>
        <pt x="460" y="0" on="1"/>
        <pt x="227" y="0" on="1"/>
        <pt x="227" y="489" on="1"/>
        <pt x="20" y="489" on="1"/>
        <pt x="20" y="660" on="1"/>
        <pt x="666" y="660" on="1"/>
      </contour>
    </TTGlyph>
    <TTGlyph name="T.swsh" xMin="10" yMin="0" xMax="825" yMax="660">
      <contour>
        <pt x="825" y="489" on="1"/>
        <pt x="619" y="489" on="1"/>
        <pt x="619" y="0" on="1"/>
        <pt x="386" y="0" on="1"/>
        <pt x="386" y="489" on="1"/>
        <pt x="287" y="489" on="1"/>
        <pt x="249" y="489" on="0"/>
        <pt x="214" y="456" on="0"/>
        <pt x="214" y="432" on="1"/>
        <pt x="214" y="402" on="0"/>
        <pt x="250" y="364" on="0"/>
        <pt x="290" y="362" on="1"/>
        <pt x="227" y="212" on="1"/>
        <pt x="163" y="214" on="0"/>
        <pt x="64" y="271" on="0"/>
        <pt x="10" y="371" on="0"/>
        <pt x="10" y="436" on="1"/>
        <pt x="10" y="544" on="0"/>
        <pt x="145" y="660" on="0"/>
        <pt x="277" y="660" on="1"/>
        <pt x="825" y="660" on="1"/>
      </contour>
    </TTGlyph>
    <TTGlyph name="Tcaron" xMin="20" yMin="0" xMax="666" yMax="876">
      <component glyphName="T" x="0" y="0" flags="0x0"/>
      <component glyphName="uni030C.cap" x="343" y="0" flags="0x0"/>
    </TTGlyph>
    <TTGlyph name="Tcaron.swsh" xMin="10" yMin="0" xMax="825" yMax="876">
      <component glyphName="T.swsh" x="0" y="0" flags="0x0"/>
      <component glyphName="uni030C.cap" x="502" y="0" flags="0x0"/>
    </TTGlyph>
    <TTGlyph name="Thorn" xMin="50" yMin="0" xMax="664" yMax="660">
      <contour>
        <pt x="522" y="571" on="0"/>
        <pt x="664" y="452" on="0"/>
        <pt x="663" y="337" on="1"/>
        <pt x="664" y="222" on="0"/>
        <pt x="522" y="103" on="0"/>
        <pt x="392" y="103" on="1"/>
        <pt x="283" y="103" on="1"/>
        <pt x="283" y="0" on="1"/>
        <pt x="50" y="0" on="1"/>
        <pt x="50" y="660" on="1"/>
        <pt x="283" y="660" on="1"/>
        <pt x="283" y="571" on="1"/>
        <pt x="392" y="571" on="1"/>
      </contour>
      <contour>
        <pt x="431" y="267" on="0"/>
        <pt x="430" y="337" on="1"/>
        <pt x="431" y="406" on="0"/>
        <pt x="354" y="406" on="1"/>
        <pt x="283" y="406" on="1"/>
        <pt x="283" y="267" on="1"/>
        <pt x="354" y="267" on="1"/>
      </contour>
    </TTGlyph>
    <TTGlyph name="U" xMin="35" yMin="-10" xMax="673" yMax="660">
      <contour>
        <pt x="673" y="284" on="1"/>
        <pt x="673" y="-10" on="0"/>
        <pt x="354" y="-10" on="1"/>
        <pt x="35" y="-10" on="0"/>
        <pt x="35" y="284" on="1"/>
        <pt x="35" y="660" on="1"/>
        <pt x="269" y="660" on="1"/>
        <pt x="269" y="266" on="1"/>
        <pt x="269" y="216" on="0"/>
        <pt x="312" y="165" on="0"/>
        <pt x="354" y="165" on="1"/>
        <pt x="396" y="165" on="0"/>
        <pt x="440" y="216" on="0"/>
        <pt x="440" y="266" on="1"/>
        <pt x="440" y="660" on="1"/>
        <pt x="673" y="660" on="1"/>
      </contour>
    </TTGlyph>
    <TTGlyph name="Uacute" xMin="35" yMin="-10" xMax="673" yMax="876">
      <component glyphName="U" x="0" y="0" flags="0x0"/>
      <component glyphName="acutecomb.cap" x="354" y="0" flags="0x0"/>
    </TTGlyph>
    <TTGlyph name="Ucircumflex" xMin="35" yMin="-10" xMax="673" yMax="876">
      <component glyphName="U" x="0" y="0" flags="0x0"/>
      <component glyphName="uni0302.cap" x="354" y="0" flags="0x0"/>
    </TTGlyph>
    <TTGlyph name="Udieresis" xMin="35" yMin="-10" xMax="673" yMax="880">
      <component glyphName="U" x="0" y="0" flags="0x0"/>
      <component glyphName="dieresis" x="104" y="160" flags="0x4"/>
    </TTGlyph>
    <TTGlyph name="Udieresis.titl" xMin="35" yMin="-10" xMax="673" yMax="662">
      <contour>
        <pt x="321" y="536" on="0"/>
        <pt x="284" y="570" on="0"/>
        <pt x="284" y="600" on="1"/>
        <pt x="284" y="629" on="0"/>
        <pt x="321" y="662" on="0"/>
        <pt x="354" y="662" on="1"/>
        <pt x="388" y="662" on="0"/>
        <pt x="427" y="629" on="0"/>
        <pt x="427" y="600" on="1"/>
        <pt x="427" y="570" on="0"/>
        <pt x="388" y="536" on="0"/>
        <pt x="354" y="537" on="1"/>
      </contour>
      <contour>
        <pt x="673" y="284" on="1"/>
        <pt x="673" y="-10" on="0"/>
        <pt x="354" y="-10" on="1"/>
        <pt x="35" y="-10" on="0"/>
        <pt x="35" y="284" on="1"/>
        <pt x="35" y="660" on="1"/>
        <pt x="269" y="660" on="1"/>
        <pt x="269" y="266" on="1"/>
        <pt x="269" y="216" on="0"/>
        <pt x="312" y="165" on="0"/>
        <pt x="354" y="165" on="1"/>
        <pt x="396" y="165" on="0"/>
        <pt x="440" y="216" on="0"/>
        <pt x="440" y="266" on="1"/>
        <pt x="440" y="660" on="1"/>
        <pt x="673" y="660" on="1"/>
      </contour>
      <contour>
        <pt x="321" y="394" on="0"/>
        <pt x="284" y="427" on="0"/>
        <pt x="284" y="456" on="1"/>
        <pt x="284" y="486" on="0"/>
        <pt x="321" y="520" on="0"/>
        <pt x="354" y="520" on="1"/>
        <pt x="388" y="520" on="0"/>
        <pt x="427" y="486" on="0"/>
        <pt x="427" y="456" on="1"/>
        <pt x="427" y="427" on="0"/>
        <pt x="388" y="394" on="0"/>
        <pt x="354" y="394" on="1"/>
      </contour>
    </TTGlyph>
    <TTGlyph name="Ugrave" xMin="35" yMin="-10" xMax="673" yMax="876">
      <component glyphName="U" x="0" y="0" flags="0x0"/>
      <component glyphName="gravecomb.cap" x="354" y="0" flags="0x0"/>
    </TTGlyph>
    <TTGlyph name="Uhungarumlaut" xMin="35" yMin="-10" xMax="673" yMax="876">
      <component glyphName="U" x="0" y="0" flags="0x0"/>
      <component glyphName="acutecomb.cap" x="482" y="0" flags="0x0"/>
      <component glyphName="acutecomb.cap" x="227" y="0" flags="0x0"/>
    </TTGlyph>
    <TTGlyph name="Umacron" xMin="35" yMin="-10" xMax="673" yMax="841">
      <component glyphName="U" x="0" y="0" flags="0x0"/>
      <component glyphName="macron" x="104" y="160" flags="0x4"/>
    </TTGlyph>
    <TTGlyph name="Uogonek" xMin="35" yMin="-215" xMax="673" yMax="660">
      <contour>
        <pt x="673" y="660" on="1"/>
        <pt x="673" y="284" on="1"/>
        <pt x="673" y="30" on="0"/>
        <pt x="438" y="-4" on="1"/>
        <pt x="388" y="-22" on="0"/>
        <pt x="388" y="-56" on="1"/>
        <pt x="388" y="-74" on="0"/>
        <pt x="414" y="-94" on="0"/>
        <pt x="437" y="-94" on="1"/>
        <pt x="464" y="-94" on="0"/>
        <pt x="477" y="-86" on="1"/>
        <pt x="504" y="-189" on="1"/>
        <pt x="481" y="-203" on="0"/>
        <pt x="425" y="-215" on="0"/>
        <pt x="386" y="-215" on="1"/>
        <pt x="319" y="-215" on="0"/>
        <pt x="234" y="-156" on="0"/>
        <pt x="234" y="-96" on="1"/>
        <pt x="234" y="-40" on="0"/>
        <pt x="282" y="-6" on="1"/>
        <pt x="35" y="25" on="0"/>
        <pt x="35" y="284" on="1"/>
        <pt x="35" y="660" on="1"/>
        <pt x="269" y="660" on="1"/>
        <pt x="269" y="266" on="1"/>
        <pt x="269" y="216" on="0"/>
        <pt x="312" y="165" on="0"/>
        <pt x="354" y="165" on="1"/>
        <pt x="396" y="165" on="0"/>
        <pt x="440" y="216" on="0"/>
        <pt x="440" y="266" on="1"/>
        <pt x="440" y="660" on="1"/>
      </contour>
    </TTGlyph>
    <TTGlyph name="Uring" xMin="35" yMin="-10" xMax="673" yMax="907">
      <component glyphName="U" x="0" y="0" flags="0x0"/>
      <component glyphName="ring" x="101" y="126" flags="0x4"/>
    </TTGlyph>
    <TTGlyph name="V" xMin="-8" yMin="0" xMax="715" yMax="660">
      <contour>
        <pt x="492" y="0" on="1"/>
        <pt x="215" y="0" on="1"/>
        <pt x="-8" y="660" on="1"/>
        <pt x="235" y="660" on="1"/>
        <pt x="326" y="299" on="1"/>
        <pt x="358" y="170" on="1"/>
        <pt x="388" y="297" on="1"/>
        <pt x="481" y="660" on="1"/>
        <pt x="715" y="660" on="1"/>
      </contour>
    </TTGlyph>
    <TTGlyph name="W" xMin="-8" yMin="0" xMax="1028" yMax="660">
      <contour>
        <pt x="435" y="0" on="1"/>
        <pt x="179" y="0" on="1"/>
        <pt x="-8" y="660" on="1"/>
        <pt x="243" y="660" on="1"/>
        <pt x="320" y="183" on="1"/>
        <pt x="413" y="660" on="1"/>
        <pt x="613" y="660" on="1"/>
        <pt x="711" y="186" on="1"/>
        <pt x="786" y="660" on="1"/>
        <pt x="1028" y="660" on="1"/>
        <pt x="840" y="0" on="1"/>
        <pt x="593" y="0" on="1"/>
        <pt x="541" y="248" on="1"/>
        <pt x="515" y="417" on="1"/>
        <pt x="512" y="417" on="1"/>
        <pt x="486" y="248" on="1"/>
      </contour>
    </TTGlyph>
    <TTGlyph name="W.swsh" xMin="10" yMin="0" xMax="1350" yMax="660">
      <contour>
        <pt x="1350" y="660" on="1"/>
        <pt x="1162" y="0" on="1"/>
        <pt x="915" y="0" on="1"/>
        <pt x="863" y="248" on="1"/>
        <pt x="837" y="417" on="1"/>
        <pt x="834" y="417" on="1"/>
        <pt x="808" y="248" on="1"/>
        <pt x="757" y="0" on="1"/>
        <pt x="501" y="0" on="1"/>
        <pt x="361" y="494" on="1"/>
        <pt x="282" y="494" on="1"/>
        <pt x="214" y="494" on="0"/>
        <pt x="214" y="432" on="1"/>
        <pt x="214" y="403" on="0"/>
        <pt x="253" y="364" on="0"/>
        <pt x="293" y="362" on="1"/>
        <pt x="227" y="212" on="1"/>
        <pt x="163" y="212" on="0"/>
        <pt x="65" y="268" on="0"/>
        <pt x="10" y="369" on="0"/>
        <pt x="10" y="436" on="1"/>
        <pt x="10" y="544" on="0"/>
        <pt x="145" y="660" on="0"/>
        <pt x="277" y="660" on="1"/>
        <pt x="565" y="660" on="1"/>
        <pt x="642" y="183" on="1"/>
        <pt x="735" y="660" on="1"/>
        <pt x="935" y="660" on="1"/>
        <pt x="1033" y="186" on="1"/>
        <pt x="1108" y="660" on="1"/>
      </contour>
    </TTGlyph>
    <TTGlyph name="X" xMin="2" yMin="0" xMax="713" yMax="660">
      <contour>
        <pt x="432" y="0" on="1"/>
        <pt x="345" y="171" on="1"/>
        <pt x="265" y="0" on="1"/>
        <pt x="2" y="0" on="1"/>
        <pt x="221" y="329" on="1"/>
        <pt x="10" y="660" on="1"/>
        <pt x="285" y="660" on="1"/>
        <pt x="362" y="495" on="1"/>
        <pt x="440" y="660" on="1"/>
        <pt x="694" y="660" on="1"/>
        <pt x="484" y="335" on="1"/>
        <pt x="713" y="0" on="1"/>
      </contour>
    </TTGlyph>
    <TTGlyph name="Y" xMin="9" yMin="0" xMax="704" yMax="660">
      <contour>
        <pt x="473" y="229" on="1"/>
        <pt x="473" y="0" on="1"/>
        <pt x="240" y="0" on="1"/>
        <pt x="240" y="229" on="1"/>
        <pt x="9" y="660" on="1"/>
        <pt x="241" y="660" on="1"/>
        <pt x="311" y="509" on="1"/>
        <pt x="358" y="389" on="1"/>
        <pt x="405" y="509" on="1"/>
        <pt x="475" y="660" on="1"/>
        <pt x="704" y="660" on="1"/>
      </contour>
    </TTGlyph>
    <TTGlyph name="Yacute" xMin="9" yMin="0" xMax="704" yMax="876">
      <component glyphName="Y" x="0" y="0" flags="0x0"/>
      <component glyphName="acutecomb.cap" x="356" y="0" flags="0x0"/>
    </TTGlyph>
    <TTGlyph name="Ydieresis" xMin="9" yMin="0" xMax="704" yMax="880">
      <component glyphName="Y" x="0" y="0" flags="0x0"/>
      <component glyphName="dieresis" x="106" y="160" flags="0x4"/>
    </TTGlyph>
    <TTGlyph name="Z" xMin="25" yMin="0" xMax="622" yMax="660">
      <contour>
        <pt x="622" y="166" on="1"/>
        <pt x="622" y="0" on="1"/>
        <pt x="25" y="0" on="1"/>
        <pt x="25" y="159" on="1"/>
        <pt x="360" y="494" on="1"/>
        <pt x="29" y="494" on="1"/>
        <pt x="29" y="660" on="1"/>
        <pt x="611" y="660" on="1"/>
        <pt x="611" y="501" on="1"/>
        <pt x="278" y="166" on="1"/>
      </contour>
    </TTGlyph>
    <TTGlyph name="Zacute" xMin="25" yMin="0" xMax="622" yMax="876">
      <component glyphName="Z" x="0" y="0" flags="0x0"/>
      <component glyphName="acutecomb.cap" x="329" y="0" flags="0x0"/>
    </TTGlyph>
    <TTGlyph name="Zcaron" xMin="25" yMin="0" xMax="622" yMax="876">
      <component glyphName="Z" x="0" y="0" flags="0x0"/>
      <component glyphName="uni030C.cap" x="329" y="0" flags="0x0"/>
    </TTGlyph>
    <TTGlyph name="Zdotaccent" xMin="25" yMin="0" xMax="622" yMax="886">
      <component glyphName="Z" x="0" y="0" flags="0x0"/>
      <component glyphName="dotaccent" x="79" y="160" flags="0x4"/>
    </TTGlyph>
    <TTGlyph name="a" xMin="16" yMin="-10" xMax="597" yMax="510">
      <contour>
        <pt x="589" y="123" on="0"/>
        <pt x="597" y="127" on="1"/>
        <pt x="579" y="10" on="1"/>
        <pt x="545" y="-10" on="0"/>
        <pt x="505" y="-10" on="1"/>
        <pt x="444" y="-10" on="0"/>
        <pt x="362" y="33" on="0"/>
        <pt x="348" y="74" on="1"/>
        <pt x="325" y="35" on="0"/>
        <pt x="236" y="-10" on="0"/>
        <pt x="170" y="-10" on="1"/>
        <pt x="92" y="-10" on="0"/>
        <pt x="16" y="51" on="0"/>
        <pt x="16" y="109" on="1"/>
        <pt x="16" y="172" on="0"/>
        <pt x="106" y="247" on="0"/>
        <pt x="211" y="270" on="1"/>
        <pt x="310" y="292" on="1"/>
        <pt x="310" y="312" on="1"/>
        <pt x="310" y="335" on="0"/>
        <pt x="287" y="361" on="0"/>
        <pt x="265" y="361" on="1"/>
        <pt x="241" y="361" on="0"/>
        <pt x="213" y="334" on="0"/>
        <pt x="212" y="300" on="1"/>
        <pt x="22" y="329" on="1"/>
        <pt x="30" y="415" on="0"/>
        <pt x="158" y="510" on="0"/>
        <pt x="278" y="510" on="1"/>
        <pt x="411" y="510" on="0"/>
        <pt x="538" y="408" on="0"/>
        <pt x="538" y="304" on="1"/>
        <pt x="538" y="164" on="1"/>
        <pt x="538" y="123" on="0"/>
        <pt x="572" y="123" on="1"/>
      </contour>
      <contour>
        <pt x="286" y="115" on="0"/>
        <pt x="310" y="140" on="0"/>
        <pt x="310" y="164" on="1"/>
        <pt x="310" y="212" on="1"/>
        <pt x="277" y="202" on="1"/>
        <pt x="256" y="196" on="0"/>
        <pt x="232" y="169" on="0"/>
        <pt x="232" y="150" on="1"/>
        <pt x="232" y="133" on="0"/>
        <pt x="252" y="115" on="0"/>
        <pt x="267" y="115" on="1"/>
      </contour>
    </TTGlyph>
    <TTGlyph name="a.sc" xMin="-4" yMin="0" xMax="656" yMax="560">
      <contour>
        <pt x="409" y="92" on="1"/>
        <pt x="232" y="92" on="1"/>
        <pt x="209" y="0" on="1"/>
        <pt x="-4" y="0" on="1"/>
        <pt x="188" y="560" on="1"/>
        <pt x="464" y="560" on="1"/>
        <pt x="656" y="0" on="1"/>
        <pt x="431" y="0" on="1"/>
      </contour>
      <contour>
        <pt x="318" y="401" on="1"/>
        <pt x="271" y="235" on="1"/>
        <pt x="371" y="235" on="1"/>
        <pt x="323" y="401" on="1"/>
      </contour>
    </TTGlyph>
    <TTGlyph name="aacute" xMin="16" yMin="-10" xMax="597" yMax="730">
      <component glyphName="a" x="0" y="0" flags="0x0"/>
      <component glyphName="acute" x="15" y="0" flags="0x0"/>
    </TTGlyph>
    <TTGlyph name="aacute.sc" xMin="-4" yMin="0" xMax="656" yMax="776">
      <component glyphName="a.sc" x="0" y="0" flags="0x0"/>
      <component glyphName="acutecomb.cap" x="326" y="-100" flags="0x4"/>
    </TTGlyph>
    <TTGlyph name="abreve" xMin="16" yMin="-10" xMax="597" yMax="713">
      <component glyphName="a" x="0" y="0" flags="0x0"/>
      <component glyphName="breve" x="27" y="0" flags="0x0"/>
    </TTGlyph>
    <TTGlyph name="abreve.sc" xMin="-4" yMin="0" xMax="656" yMax="773">
      <component glyphName="a.sc" x="0" y="0" flags="0x0"/>
      <component glyphName="breve" x="76" y="60" flags="0x4"/>
    </TTGlyph>
    <TTGlyph name="acircumflex" xMin="16" yMin="-10" xMax="597" yMax="724">
      <component glyphName="a" x="0" y="0" flags="0x0"/>
      <component glyphName="circumflex" x="27" y="0" flags="0x0"/>
    </TTGlyph>
    <TTGlyph name="acircumflex.sc" xMin="-4" yMin="0" xMax="656" yMax="776">
      <component glyphName="a.sc" x="0" y="0" flags="0x0"/>
      <component glyphName="uni0302.cap" x="326" y="-100" flags="0x4"/>
    </TTGlyph>
    <TTGlyph name="acute" xMin="167" yMin="553" xMax="432" yMax="730">
      <contour>
        <pt x="432" y="730" on="1"/>
        <pt x="329" y="553" on="1"/>
        <pt x="167" y="553" on="1"/>
        <pt x="227" y="730" on="1"/>
      </contour>
    </TTGlyph>
    <TTGlyph name="acutecmb" xMin="-95" yMin="553" xMax="170" yMax="730">
      <component glyphName="acute" x="-262" y="0" flags="0x0"/>
    </TTGlyph>
    <TTGlyph name="acutecomb.asc" xMin="-71" yMin="746" xMax="183" yMax="913">
      <contour>
        <pt x="183" y="913" on="1"/>
        <pt x="92" y="746" on="1"/>
        <pt x="-71" y="746" on="1"/>
        <pt x="-13" y="913" on="1"/>
      </contour>
    </TTGlyph>
    <TTGlyph name="acutecomb.cap" xMin="-91" yMin="709" xMax="163" yMax="876">
      <contour>
        <pt x="163" y="876" on="1"/>
        <pt x="72" y="709" on="1"/>
        <pt x="-91" y="709" on="1"/>
        <pt x="-33" y="876" on="1"/>
      </contour>
    </TTGlyph>
    <TTGlyph name="adieresis" xMin="16" yMin="-10" xMax="597" yMax="720">
      <component glyphName="a" x="0" y="0" flags="0x0"/>
      <component glyphName="dieresis" x="27" y="0" flags="0x0"/>
    </TTGlyph>
    <TTGlyph name="adieresis.sc" xMin="-4" yMin="0" xMax="656" yMax="780">
      <component glyphName="a.sc" x="0" y="0" flags="0x0"/>
      <component glyphName="dieresis" x="76" y="60" flags="0x4"/>
    </TTGlyph>
    <TTGlyph name="ae" xMin="16" yMin="-10" xMax="853" yMax="510">
      <contour>
        <pt x="853" y="228" on="0"/>
        <pt x="848" y="206" on="1"/>
        <pt x="531" y="206" on="1"/>
        <pt x="537" y="170" on="0"/>
        <pt x="576" y="143" on="0"/>
        <pt x="609" y="143" on="1"/>
        <pt x="633" y="143" on="0"/>
        <pt x="653" y="163" on="0"/>
        <pt x="659" y="186" on="1"/>
        <pt x="844" y="136" on="1"/>
        <pt x="827" y="64" on="0"/>
        <pt x="694" y="-10" on="0"/>
        <pt x="599" y="-10" on="1"/>
        <pt x="467" y="-10" on="0"/>
        <pt x="410" y="83" on="1"/>
        <pt x="380" y="41" on="0"/>
        <pt x="263" y="-10" on="0"/>
        <pt x="179" y="-10" on="1"/>
        <pt x="95" y="-10" on="0"/>
        <pt x="16" y="53" on="0"/>
        <pt x="16" y="107" on="1"/>
        <pt x="16" y="152" on="0"/>
        <pt x="53" y="211" on="0"/>
        <pt x="133" y="250" on="0"/>
        <pt x="202" y="264" on="1"/>
        <pt x="311" y="287" on="1"/>
        <pt x="311" y="312" on="1"/>
        <pt x="311" y="362" on="0"/>
        <pt x="265" y="362" on="1"/>
        <pt x="239" y="362" on="0"/>
        <pt x="215" y="335" on="0"/>
        <pt x="212" y="300" on="1"/>
        <pt x="22" y="330" on="1"/>
        <pt x="29" y="414" on="0"/>
        <pt x="144" y="510" on="0"/>
        <pt x="257" y="510" on="1"/>
        <pt x="313" y="510" on="0"/>
        <pt x="406" y="478" on="0"/>
        <pt x="438" y="448" on="1"/>
        <pt x="497" y="510" on="0"/>
        <pt x="597" y="510" on="1"/>
        <pt x="719" y="510" on="0"/>
        <pt x="853" y="378" on="0"/>
        <pt x="853" y="266" on="1"/>
      </contour>
      <contour>
        <pt x="560" y="358" on="0"/>
        <pt x="534" y="326" on="0"/>
        <pt x="530" y="285" on="1"/>
        <pt x="638" y="285" on="1"/>
        <pt x="636" y="323" on="0"/>
        <pt x="613" y="358" on="0"/>
        <pt x="588" y="358" on="1"/>
      </contour>
      <contour>
        <pt x="284" y="106" on="0"/>
        <pt x="311" y="132" on="0"/>
        <pt x="311" y="161" on="1"/>
        <pt x="311" y="207" on="1"/>
        <pt x="278" y="199" on="1"/>
        <pt x="251" y="192" on="0"/>
        <pt x="227" y="168" on="0"/>
        <pt x="227" y="146" on="1"/>
        <pt x="227" y="127" on="0"/>
        <pt x="246" y="106" on="0"/>
        <pt x="264" y="106" on="1"/>
      </contour>
    </TTGlyph>
    <TTGlyph name="ae.sc" xMin="-4" yMin="0" xMax="859" yMax="560">
      <contour>
        <pt x="859" y="149" on="1"/>
        <pt x="859" y="0" on="1"/>
        <pt x="378" y="0" on="1"/>
        <pt x="378" y="142" on="1"/>
        <pt x="249" y="142" on="1"/>
        <pt x="209" y="0" on="1"/>
        <pt x="-4" y="0" on="1"/>
        <pt x="188" y="560" on="1"/>
        <pt x="848" y="560" on="1"/>
        <pt x="848" y="411" on="1"/>
        <pt x="586" y="411" on="1"/>
        <pt x="586" y="349" on="1"/>
        <pt x="780" y="349" on="1"/>
        <pt x="780" y="205" on="1"/>
        <pt x="586" y="205" on="1"/>
        <pt x="586" y="149" on="1"/>
      </contour>
      <contour>
        <pt x="378" y="286" on="1"/>
        <pt x="378" y="416" on="1"/>
        <pt x="325" y="416" on="1"/>
        <pt x="289" y="286" on="1"/>
      </contour>
    </TTGlyph>
    <TTGlyph name="agrave" xMin="16" yMin="-10" xMax="597" yMax="730">
      <component glyphName="a" x="0" y="0" flags="0x0"/>
      <component glyphName="grave" x="27" y="0" flags="0x0"/>
    </TTGlyph>
    <TTGlyph name="agrave.sc" xMin="-4" yMin="0" xMax="656" yMax="776">
      <component glyphName="a.sc" x="0" y="0" flags="0x0"/>
      <component glyphName="gravecomb.cap" x="326" y="-100" flags="0x4"/>
    </TTGlyph>
    <TTGlyph name="amacron" xMin="16" yMin="-10" xMax="597" yMax="681">
      <component glyphName="a" x="0" y="0" flags="0x0"/>
      <component glyphName="macron" x="27" y="0" flags="0x0"/>
    </TTGlyph>
    <TTGlyph name="amacron.sc" xMin="-4" yMin="0" xMax="656" yMax="741">
      <component glyphName="a.sc" x="0" y="0" flags="0x0"/>
      <component glyphName="macron" x="76" y="60" flags="0x4"/>
    </TTGlyph>
    <TTGlyph name="ampersand" xMin="10" yMin="-10" xMax="652" yMax="670">
      <contour>
        <pt x="640" y="-10" on="1"/>
        <pt x="574" y="-10" on="0"/>
        <pt x="489" y="11" on="0"/>
        <pt x="442" y="43" on="1"/>
        <pt x="372" y="-10" on="0"/>
        <pt x="257" y="-10" on="1"/>
        <pt x="144" y="-10" on="0"/>
        <pt x="10" y="84" on="0"/>
        <pt x="10" y="178" on="1"/>
        <pt x="10" y="225" on="0"/>
        <pt x="63" y="316" on="0"/>
        <pt x="125" y="339" on="1"/>
        <pt x="90" y="382" on="0"/>
        <pt x="67" y="445" on="0"/>
        <pt x="67" y="487" on="1"/>
        <pt x="67" y="534" on="0"/>
        <pt x="117" y="618" on="0"/>
        <pt x="222" y="670" on="0"/>
        <pt x="299" y="670" on="1"/>
        <pt x="378" y="670" on="0"/>
        <pt x="480" y="620" on="0"/>
        <pt x="525" y="543" on="0"/>
        <pt x="525" y="500" on="1"/>
        <pt x="525" y="439" on="0"/>
        <pt x="450" y="344" on="0"/>
        <pt x="380" y="320" on="1"/>
        <pt x="409" y="292" on="1"/>
        <pt x="465" y="238" on="1"/>
        <pt x="478" y="279" on="0"/>
        <pt x="478" y="329" on="1"/>
        <pt x="624" y="329" on="1"/>
        <pt x="619" y="224" on="0"/>
        <pt x="564" y="158" on="1"/>
        <pt x="593" y="145" on="0"/>
        <pt x="618" y="145" on="1"/>
        <pt x="628" y="145" on="0"/>
        <pt x="652" y="149" on="1"/>
      </contour>
      <contour>
        <pt x="284" y="529" on="0"/>
        <pt x="259" y="502" on="0"/>
        <pt x="259" y="477" on="1"/>
        <pt x="259" y="461" on="0"/>
        <pt x="277" y="428" on="0"/>
        <pt x="302" y="400" on="1"/>
        <pt x="329" y="423" on="0"/>
        <pt x="348" y="462" on="0"/>
        <pt x="348" y="486" on="1"/>
        <pt x="348" y="506" on="0"/>
        <pt x="324" y="529" on="0"/>
        <pt x="305" y="529" on="1"/>
      </contour>
      <contour>
        <pt x="309" y="133" on="0"/>
        <pt x="328" y="136" on="1"/>
        <pt x="307" y="156" on="1"/>
        <pt x="239" y="220" on="0"/>
        <pt x="218" y="241" on="1"/>
        <pt x="209" y="230" on="0"/>
        <pt x="203" y="207" on="0"/>
        <pt x="203" y="191" on="1"/>
        <pt x="203" y="164" on="0"/>
        <pt x="247" y="133" on="0"/>
        <pt x="287" y="133" on="1"/>
      </contour>
    </TTGlyph>
    <TTGlyph name="ampersand.sc" xMin="7" yMin="-8" xMax="600" yMax="568">
      <contour>
        <pt x="576" y="-8" on="1"/>
        <pt x="526" y="-8" on="0"/>
        <pt x="454" y="11" on="0"/>
        <pt x="410" y="38" on="1"/>
        <pt x="381" y="14" on="0"/>
        <pt x="299" y="-7" on="0"/>
        <pt x="244" y="-7" on="1"/>
        <pt x="121" y="-7" on="0"/>
        <pt x="7" y="67" on="0"/>
        <pt x="7" y="141" on="1"/>
        <pt x="7" y="188" on="0"/>
        <pt x="54" y="260" on="0"/>
        <pt x="120" y="283" on="1"/>
        <pt x="86" y="320" on="0"/>
        <pt x="60" y="377" on="0"/>
        <pt x="60" y="411" on="1"/>
        <pt x="60" y="451" on="0"/>
        <pt x="104" y="523" on="0"/>
        <pt x="199" y="568" on="0"/>
        <pt x="270" y="568" on="1"/>
        <pt x="363" y="568" on="0"/>
        <pt x="459" y="489" on="0"/>
        <pt x="459" y="424" on="1"/>
        <pt x="459" y="370" on="0"/>
        <pt x="409" y="296" on="0"/>
        <pt x="346" y="268" on="1"/>
        <pt x="371" y="243" on="1"/>
        <pt x="396" y="218" on="0"/>
        <pt x="423" y="196" on="1"/>
        <pt x="431" y="220" on="0"/>
        <pt x="430" y="271" on="1"/>
        <pt x="556" y="271" on="1"/>
        <pt x="556" y="184" on="0"/>
        <pt x="521" y="137" on="1"/>
        <pt x="554" y="126" on="0"/>
        <pt x="600" y="126" on="1"/>
      </contour>
      <contour>
        <pt x="247" y="438" on="0"/>
        <pt x="247" y="403" on="1"/>
        <pt x="247" y="389" on="0"/>
        <pt x="259" y="362" on="0"/>
        <pt x="274" y="343" on="1"/>
        <pt x="289" y="358" on="0"/>
        <pt x="301" y="384" on="0"/>
        <pt x="301" y="403" on="1"/>
        <pt x="301" y="422" on="0"/>
        <pt x="288" y="438" on="0"/>
        <pt x="275" y="438" on="1"/>
      </contour>
      <contour>
        <pt x="195" y="147" on="0"/>
        <pt x="234" y="122" on="0"/>
        <pt x="264" y="122" on="1"/>
        <pt x="277" y="122" on="0"/>
        <pt x="297" y="124" on="1"/>
        <pt x="208" y="200" on="1"/>
        <pt x="195" y="186" on="0"/>
        <pt x="195" y="169" on="1"/>
      </contour>
    </TTGlyph>
    <TTGlyph name="aogonek" xMin="16" yMin="-215" xMax="597" yMax="510">
      <contour>
        <pt x="551" y="-94" on="0"/>
        <pt x="564" y="-86" on="1"/>
        <pt x="591" y="-189" on="1"/>
        <pt x="568" y="-203" on="0"/>
        <pt x="512" y="-215" on="0"/>
        <pt x="473" y="-215" on="1"/>
        <pt x="406" y="-215" on="0"/>
        <pt x="321" y="-154" on="0"/>
        <pt x="321" y="-90" on="1"/>
        <pt x="321" y="-46" on="0"/>
        <pt x="375" y="12" on="0"/>
        <pt x="425" y="22" on="1"/>
        <pt x="372" y="42" on="0"/>
        <pt x="359" y="96" on="1"/>
        <pt x="340" y="48" on="0"/>
        <pt x="245" y="-10" on="0"/>
        <pt x="170" y="-10" on="1"/>
        <pt x="92" y="-10" on="0"/>
        <pt x="16" y="51" on="0"/>
        <pt x="16" y="109" on="1"/>
        <pt x="16" y="172" on="0"/>
        <pt x="106" y="247" on="0"/>
        <pt x="211" y="270" on="1"/>
        <pt x="310" y="292" on="1"/>
        <pt x="310" y="312" on="1"/>
        <pt x="310" y="335" on="0"/>
        <pt x="287" y="361" on="0"/>
        <pt x="265" y="361" on="1"/>
        <pt x="241" y="361" on="0"/>
        <pt x="213" y="334" on="0"/>
        <pt x="212" y="300" on="1"/>
        <pt x="22" y="329" on="1"/>
        <pt x="30" y="415" on="0"/>
        <pt x="158" y="510" on="0"/>
        <pt x="278" y="510" on="1"/>
        <pt x="411" y="510" on="0"/>
        <pt x="538" y="408" on="0"/>
        <pt x="538" y="304" on="1"/>
        <pt x="538" y="164" on="1"/>
        <pt x="538" y="123" on="0"/>
        <pt x="572" y="123" on="1"/>
        <pt x="589" y="123" on="0"/>
        <pt x="597" y="127" on="1"/>
        <pt x="579" y="5" on="1"/>
        <pt x="526" y="0" on="0"/>
        <pt x="475" y="-28" on="0"/>
        <pt x="475" y="-56" on="1"/>
        <pt x="475" y="-74" on="0"/>
        <pt x="501" y="-94" on="0"/>
        <pt x="524" y="-94" on="1"/>
      </contour>
      <contour>
        <pt x="286" y="115" on="0"/>
        <pt x="310" y="140" on="0"/>
        <pt x="310" y="164" on="1"/>
        <pt x="310" y="212" on="1"/>
        <pt x="277" y="202" on="1"/>
        <pt x="256" y="196" on="0"/>
        <pt x="232" y="169" on="0"/>
        <pt x="232" y="150" on="1"/>
        <pt x="232" y="133" on="0"/>
        <pt x="252" y="115" on="0"/>
        <pt x="267" y="115" on="1"/>
      </contour>
    </TTGlyph>
    <TTGlyph name="aogonek.sc" xMin="-4" yMin="-215" xMax="659" yMax="560">
      <contour>
        <pt x="659" y="-189" on="1"/>
        <pt x="636" y="-203" on="0"/>
        <pt x="580" y="-215" on="0"/>
        <pt x="541" y="-215" on="1"/>
        <pt x="474" y="-215" on="0"/>
        <pt x="389" y="-156" on="0"/>
        <pt x="389" y="-96" on="1"/>
        <pt x="389" y="-35" on="0"/>
        <pt x="445" y="0" on="1"/>
        <pt x="431" y="0" on="1"/>
        <pt x="409" y="92" on="1"/>
        <pt x="232" y="92" on="1"/>
        <pt x="209" y="0" on="1"/>
        <pt x="-4" y="0" on="1"/>
        <pt x="188" y="560" on="1"/>
        <pt x="464" y="560" on="1"/>
        <pt x="656" y="0" on="1"/>
        <pt x="595" y="-4" on="0"/>
        <pt x="543" y="-32" on="0"/>
        <pt x="543" y="-56" on="1"/>
        <pt x="543" y="-74" on="0"/>
        <pt x="569" y="-94" on="0"/>
        <pt x="592" y="-94" on="1"/>
        <pt x="619" y="-94" on="0"/>
        <pt x="632" y="-86" on="1"/>
      </contour>
      <contour>
        <pt x="318" y="401" on="1"/>
        <pt x="271" y="235" on="1"/>
        <pt x="371" y="235" on="1"/>
        <pt x="323" y="401" on="1"/>
      </contour>
    </TTGlyph>
    <TTGlyph name="approxequal" xMin="57" yMin="85" xMax="547" yMax="558">
      <contour>
        <pt x="223" y="558" on="0"/>
        <pt x="282" y="541" on="0"/>
        <pt x="320" y="525" on="1"/>
        <pt x="350" y="512" on="0"/>
        <pt x="390" y="500" on="0"/>
        <pt x="410" y="500" on="1"/>
        <pt x="451" y="500" on="0"/>
        <pt x="512" y="522" on="0"/>
        <pt x="547" y="551" on="1"/>
        <pt x="547" y="391" on="1"/>
        <pt x="489" y="342" on="0"/>
        <pt x="419" y="342" on="1"/>
        <pt x="388" y="342" on="0"/>
        <pt x="335" y="356" on="0"/>
        <pt x="295" y="371" on="1"/>
        <pt x="262" y="384" on="0"/>
        <pt x="214" y="398" on="0"/>
        <pt x="188" y="398" on="1"/>
        <pt x="146" y="398" on="0"/>
        <pt x="88" y="375" on="0"/>
        <pt x="57" y="347" on="1"/>
        <pt x="57" y="508" on="1"/>
        <pt x="91" y="535" on="0"/>
        <pt x="147" y="558" on="0"/>
        <pt x="188" y="558" on="1"/>
      </contour>
      <contour>
        <pt x="222" y="301" on="0"/>
        <pt x="280" y="285" on="0"/>
        <pt x="320" y="269" on="1"/>
        <pt x="353" y="256" on="0"/>
        <pt x="390" y="245" on="0"/>
        <pt x="410" y="245" on="1"/>
        <pt x="451" y="245" on="0"/>
        <pt x="512" y="266" on="0"/>
        <pt x="547" y="295" on="1"/>
        <pt x="547" y="135" on="1"/>
        <pt x="488" y="85" on="0"/>
        <pt x="419" y="85" on="1"/>
        <pt x="388" y="85" on="0"/>
        <pt x="332" y="100" on="0"/>
        <pt x="295" y="115" on="1"/>
        <pt x="262" y="128" on="0"/>
        <pt x="214" y="142" on="0"/>
        <pt x="188" y="142" on="1"/>
        <pt x="146" y="142" on="0"/>
        <pt x="87" y="119" on="0"/>
        <pt x="57" y="91" on="1"/>
        <pt x="57" y="252" on="1"/>
        <pt x="90" y="279" on="0"/>
        <pt x="147" y="301" on="0"/>
        <pt x="188" y="301" on="1"/>
      </contour>
    </TTGlyph>
    <TTGlyph name="aring" xMin="16" yMin="-10" xMax="597" yMax="781">
      <component glyphName="a" x="0" y="0" flags="0x0"/>
      <component glyphName="ring" x="27" y="0" flags="0x0"/>
    </TTGlyph>
    <TTGlyph name="aring.sc" xMin="-4" yMin="0" xMax="656" yMax="767">
      <contour>
        <pt x="409" y="92" on="1"/>
        <pt x="235" y="92" on="1"/>
        <pt x="212" y="0" on="1"/>
        <pt x="-4" y="0" on="1"/>
        <pt x="191" y="547" on="1"/>
        <pt x="160" y="578" on="0"/>
        <pt x="160" y="630" on="1"/>
        <pt x="160" y="693" on="0"/>
        <pt x="248" y="767" on="0"/>
        <pt x="326" y="767" on="1"/>
        <pt x="404" y="767" on="0"/>
        <pt x="492" y="693" on="0"/>
        <pt x="492" y="630" on="1"/>
        <pt x="492" y="581" on="0"/>
        <pt x="460" y="549" on="1"/>
        <pt x="656" y="0" on="1"/>
        <pt x="434" y="0" on="1"/>
      </contour>
      <contour>
        <pt x="302" y="668" on="0"/>
        <pt x="276" y="644" on="0"/>
        <pt x="276" y="621" on="1"/>
        <pt x="276" y="598" on="0"/>
        <pt x="302" y="574" on="0"/>
        <pt x="326" y="574" on="1"/>
        <pt x="350" y="574" on="0"/>
        <pt x="376" y="598" on="0"/>
        <pt x="376" y="621" on="1"/>
        <pt x="376" y="644" on="0"/>
        <pt x="350" y="668" on="0"/>
        <pt x="326" y="668" on="1"/>
      </contour>
      <contour>
        <pt x="326" y="391" on="1"/>
        <pt x="321" y="391" on="1"/>
        <pt x="274" y="235" on="1"/>
        <pt x="369" y="235" on="1"/>
      </contour>
    </TTGlyph>
    <TTGlyph name="arrowboth" xMin="25" yMin="-5" xMax="1097" yMax="705">
      <contour>
        <pt x="874" y="583" on="0"/>
        <pt x="1015" y="413" on="0"/>
        <pt x="1097" y="353" on="1"/>
        <pt x="1097" y="347" on="1"/>
        <pt x="1015" y="287" on="0"/>
        <pt x="874" y="117" on="0"/>
        <pt x="802" y="-5" on="1"/>
        <pt x="632" y="107" on="1"/>
        <pt x="685" y="187" on="0"/>
        <pt x="760" y="247" on="1"/>
        <pt x="675" y="235" on="0"/>
        <pt x="586" y="235" on="1"/>
        <pt x="536" y="235" on="1"/>
        <pt x="447" y="235" on="0"/>
        <pt x="362" y="247" on="1"/>
        <pt x="437" y="187" on="0"/>
        <pt x="490" y="107" on="1"/>
        <pt x="320" y="-5" on="1"/>
        <pt x="248" y="117" on="0"/>
        <pt x="107" y="287" on="0"/>
        <pt x="25" y="347" on="1"/>
        <pt x="25" y="353" on="1"/>
        <pt x="107" y="413" on="0"/>
        <pt x="248" y="583" on="0"/>
        <pt x="320" y="705" on="1"/>
        <pt x="490" y="593" on="1"/>
        <pt x="437" y="513" on="0"/>
        <pt x="362" y="453" on="1"/>
        <pt x="447" y="465" on="0"/>
        <pt x="536" y="465" on="1"/>
        <pt x="586" y="465" on="1"/>
        <pt x="674" y="465" on="0"/>
        <pt x="760" y="453" on="1"/>
        <pt x="685" y="513" on="0"/>
        <pt x="632" y="593" on="1"/>
        <pt x="802" y="705" on="1"/>
      </contour>
    </TTGlyph>
    <TTGlyph name="arrowdown" xMin="21" yMin="-6" xMax="731" yMax="660">
      <contour>
        <pt x="731" y="289" on="1"/>
        <pt x="609" y="217" on="0"/>
        <pt x="439" y="76" on="0"/>
        <pt x="379" y="-6" on="1"/>
        <pt x="373" y="-6" on="1"/>
        <pt x="313" y="76" on="0"/>
        <pt x="143" y="217" on="0"/>
        <pt x="21" y="289" on="1"/>
        <pt x="133" y="459" on="1"/>
        <pt x="213" y="406" on="0"/>
        <pt x="273" y="331" on="1"/>
        <pt x="261" y="417" on="0"/>
        <pt x="261" y="505" on="1"/>
        <pt x="261" y="660" on="1"/>
        <pt x="491" y="660" on="1"/>
        <pt x="491" y="505" on="1"/>
        <pt x="491" y="417" on="0"/>
        <pt x="479" y="331" on="1"/>
        <pt x="539" y="406" on="0"/>
        <pt x="619" y="459" on="1"/>
      </contour>
    </TTGlyph>
    <TTGlyph name="arrowleft" xMin="25" yMin="-24" xMax="691" yMax="686">
      <contour>
        <pt x="691" y="446" on="1"/>
        <pt x="691" y="216" on="1"/>
        <pt x="536" y="216" on="1"/>
        <pt x="447" y="216" on="0"/>
        <pt x="362" y="228" on="1"/>
        <pt x="437" y="168" on="0"/>
        <pt x="490" y="88" on="1"/>
        <pt x="320" y="-24" on="1"/>
        <pt x="248" y="98" on="0"/>
        <pt x="107" y="268" on="0"/>
        <pt x="25" y="328" on="1"/>
        <pt x="25" y="334" on="1"/>
        <pt x="107" y="394" on="0"/>
        <pt x="248" y="564" on="0"/>
        <pt x="320" y="686" on="1"/>
        <pt x="490" y="574" on="1"/>
        <pt x="437" y="494" on="0"/>
        <pt x="362" y="434" on="1"/>
        <pt x="447" y="446" on="0"/>
        <pt x="536" y="446" on="1"/>
      </contour>
    </TTGlyph>
    <TTGlyph name="arrowright" xMin="59" yMin="-24" xMax="725" yMax="686">
      <contour>
        <pt x="502" y="564" on="0"/>
        <pt x="643" y="394" on="0"/>
        <pt x="725" y="334" on="1"/>
        <pt x="725" y="328" on="1"/>
        <pt x="643" y="268" on="0"/>
        <pt x="502" y="98" on="0"/>
        <pt x="430" y="-24" on="1"/>
        <pt x="260" y="88" on="1"/>
        <pt x="313" y="168" on="0"/>
        <pt x="388" y="228" on="1"/>
        <pt x="303" y="216" on="0"/>
        <pt x="214" y="216" on="1"/>
        <pt x="59" y="216" on="1"/>
        <pt x="59" y="446" on="1"/>
        <pt x="214" y="446" on="1"/>
        <pt x="303" y="446" on="0"/>
        <pt x="388" y="434" on="1"/>
        <pt x="313" y="494" on="0"/>
        <pt x="260" y="574" on="1"/>
        <pt x="430" y="686" on="1"/>
      </contour>
    </TTGlyph>
    <TTGlyph name="arrowup" xMin="19" yMin="0" xMax="729" yMax="666">
      <contour>
        <pt x="437" y="584" on="0"/>
        <pt x="607" y="443" on="0"/>
        <pt x="729" y="371" on="1"/>
        <pt x="617" y="201" on="1"/>
        <pt x="537" y="254" on="0"/>
        <pt x="477" y="329" on="1"/>
        <pt x="489" y="244" on="0"/>
        <pt x="489" y="155" on="1"/>
        <pt x="489" y="0" on="1"/>
        <pt x="259" y="0" on="1"/>
        <pt x="259" y="155" on="1"/>
        <pt x="259" y="244" on="0"/>
        <pt x="271" y="329" on="1"/>
        <pt x="211" y="254" on="0"/>
        <pt x="131" y="201" on="1"/>
        <pt x="19" y="371" on="1"/>
        <pt x="141" y="443" on="0"/>
        <pt x="311" y="584" on="0"/>
        <pt x="371" y="666" on="1"/>
        <pt x="377" y="666" on="1"/>
      </contour>
    </TTGlyph>
    <TTGlyph name="arrowupdn" xMin="20" yMin="-206" xMax="730" yMax="866">
      <contour>
        <pt x="538" y="206" on="0"/>
        <pt x="618" y="259" on="1"/>
        <pt x="730" y="89" on="1"/>
        <pt x="608" y="17" on="0"/>
        <pt x="438" y="-124" on="0"/>
        <pt x="378" y="-206" on="1"/>
        <pt x="372" y="-206" on="1"/>
        <pt x="312" y="-124" on="0"/>
        <pt x="142" y="17" on="0"/>
        <pt x="20" y="89" on="1"/>
        <pt x="132" y="259" on="1"/>
        <pt x="212" y="206" on="0"/>
        <pt x="272" y="131" on="1"/>
        <pt x="260" y="217" on="0"/>
        <pt x="260" y="305" on="1"/>
        <pt x="260" y="355" on="1"/>
        <pt x="260" y="444" on="0"/>
        <pt x="272" y="529" on="1"/>
        <pt x="212" y="454" on="0"/>
        <pt x="132" y="401" on="1"/>
        <pt x="20" y="571" on="1"/>
        <pt x="142" y="643" on="0"/>
        <pt x="312" y="784" on="0"/>
        <pt x="372" y="866" on="1"/>
        <pt x="378" y="866" on="1"/>
        <pt x="438" y="784" on="0"/>
        <pt x="608" y="643" on="0"/>
        <pt x="730" y="571" on="1"/>
        <pt x="618" y="401" on="1"/>
        <pt x="538" y="454" on="0"/>
        <pt x="478" y="529" on="1"/>
        <pt x="490" y="444" on="0"/>
        <pt x="490" y="355" on="1"/>
        <pt x="490" y="305" on="1"/>
        <pt x="490" y="217" on="0"/>
        <pt x="478" y="131" on="1"/>
      </contour>
    </TTGlyph>
    <TTGlyph name="asciicircum" xMin="23" yMin="355" xMax="624" yMax="720">
      <contour>
        <pt x="428" y="355" on="1"/>
        <pt x="324" y="578" on="1"/>
        <pt x="219" y="355" on="1"/>
        <pt x="23" y="355" on="1"/>
        <pt x="229" y="720" on="1"/>
        <pt x="418" y="720" on="1"/>
        <pt x="624" y="355" on="1"/>
      </contour>
    </TTGlyph>
    <TTGlyph name="asciitilde" xMin="43" yMin="228" xMax="592" yMax="460">
      <contour>
        <pt x="588" y="342" on="0"/>
        <pt x="497" y="228" on="0"/>
        <pt x="411" y="228" on="1"/>
        <pt x="373" y="228" on="0"/>
        <pt x="325" y="247" on="0"/>
        <pt x="296" y="265" on="1"/>
        <pt x="281" y="276" on="0"/>
        <pt x="262" y="285" on="0"/>
        <pt x="251" y="285" on="1"/>
        <pt x="234" y="285" on="0"/>
        <pt x="216" y="263" on="0"/>
        <pt x="213" y="236" on="1"/>
        <pt x="43" y="236" on="1"/>
        <pt x="47" y="346" on="0"/>
        <pt x="138" y="460" on="0"/>
        <pt x="224" y="460" on="1"/>
        <pt x="262" y="460" on="0"/>
        <pt x="310" y="441" on="0"/>
        <pt x="339" y="423" on="1"/>
        <pt x="354" y="412" on="0"/>
        <pt x="373" y="403" on="0"/>
        <pt x="384" y="403" on="1"/>
        <pt x="401" y="403" on="0"/>
        <pt x="419" y="425" on="0"/>
        <pt x="422" y="452" on="1"/>
        <pt x="592" y="452" on="1"/>
      </contour>
    </TTGlyph>
    <TTGlyph name="asterisk" xMin="29" yMin="216" xMax="570" yMax="730">
      <contour>
        <pt x="424" y="425" on="1"/>
        <pt x="515" y="309" on="1"/>
        <pt x="387" y="216" on="1"/>
        <pt x="305" y="339" on="1"/>
        <pt x="299" y="354" on="1"/>
        <pt x="293" y="339" on="1"/>
        <pt x="211" y="216" on="1"/>
        <pt x="83" y="309" on="1"/>
        <pt x="175" y="425" on="1"/>
        <pt x="187" y="435" on="1"/>
        <pt x="171" y="436" on="1"/>
        <pt x="29" y="476" on="1"/>
        <pt x="78" y="627" on="1"/>
        <pt x="216" y="575" on="1"/>
        <pt x="230" y="566" on="1"/>
        <pt x="226" y="583" on="1"/>
        <pt x="220" y="730" on="1"/>
        <pt x="378" y="730" on="1"/>
        <pt x="372" y="583" on="1"/>
        <pt x="368" y="566" on="1"/>
        <pt x="382" y="575" on="1"/>
        <pt x="521" y="627" on="1"/>
        <pt x="570" y="476" on="1"/>
        <pt x="427" y="436" on="1"/>
        <pt x="412" y="435" on="1"/>
      </contour>
    </TTGlyph>
    <TTGlyph name="at" xMin="38" yMin="-176" xMax="881" yMax="660">
      <contour>
        <pt x="600" y="660" on="0"/>
        <pt x="779" y="571" on="0"/>
        <pt x="881" y="391" on="0"/>
        <pt x="881" y="260" on="1"/>
        <pt x="881" y="169" on="0"/>
        <pt x="815" y="54" on="0"/>
        <pt x="713" y="4" on="0"/>
        <pt x="655" y="4" on="1"/>
        <pt x="543" y="4" on="0"/>
        <pt x="500" y="84" on="1"/>
        <pt x="473" y="43" on="0"/>
        <pt x="406" y="4" on="0"/>
        <pt x="362" y="4" on="1"/>
        <pt x="288" y="4" on="0"/>
        <pt x="206" y="105" on="0"/>
        <pt x="206" y="183" on="1"/>
        <pt x="206" y="324" on="0"/>
        <pt x="333" y="469" on="0"/>
        <pt x="436" y="469" on="1"/>
        <pt x="477" y="469" on="0"/>
        <pt x="520" y="423" on="0"/>
        <pt x="523" y="398" on="1"/>
        <pt x="544" y="457" on="1"/>
        <pt x="713" y="457" on="1"/>
        <pt x="665" y="187" on="1"/>
        <pt x="662" y="168" on="0"/>
        <pt x="662" y="153" on="1"/>
        <pt x="662" y="129" on="0"/>
        <pt x="684" y="109" on="0"/>
        <pt x="709" y="109" on="1"/>
        <pt x="744" y="109" on="0"/>
        <pt x="793" y="188" on="0"/>
        <pt x="793" y="260" on="1"/>
        <pt x="793" y="419" on="0"/>
        <pt x="626" y="574" on="0"/>
        <pt x="484" y="574" on="1"/>
        <pt x="382" y="574" on="0"/>
        <pt x="224" y="491" on="0"/>
        <pt x="135" y="333" on="0"/>
        <pt x="135" y="223" on="1"/>
        <pt x="135" y="121" on="0"/>
        <pt x="221" y="-21" on="0"/>
        <pt x="361" y="-92" on="0"/>
        <pt x="440" y="-92" on="1"/>
        <pt x="515" y="-92" on="0"/>
        <pt x="598" y="-67" on="0"/>
        <pt x="632" y="-41" on="1"/>
        <pt x="680" y="-110" on="1"/>
        <pt x="632" y="-144" on="0"/>
        <pt x="526" y="-176" on="0"/>
        <pt x="435" y="-176" on="1"/>
        <pt x="322" y="-176" on="0"/>
        <pt x="142" y="-83" on="0"/>
        <pt x="38" y="97" on="0"/>
        <pt x="38" y="223" on="1"/>
        <pt x="38" y="354" on="0"/>
        <pt x="154" y="552" on="0"/>
        <pt x="357" y="660" on="0"/>
        <pt x="484" y="660" on="1"/>
      </contour>
      <contour>
        <pt x="448" y="325" on="0"/>
        <pt x="419" y="297" on="0"/>
        <pt x="401" y="246" on="0"/>
        <pt x="401" y="214" on="1"/>
        <pt x="401" y="157" on="0"/>
        <pt x="434" y="157" on="1"/>
        <pt x="446" y="157" on="0"/>
        <pt x="465" y="171" on="0"/>
        <pt x="467" y="185" on="1"/>
        <pt x="482" y="287" on="1"/>
        <pt x="483" y="293" on="0"/>
        <pt x="483" y="302" on="1"/>
        <pt x="483" y="315" on="0"/>
        <pt x="474" y="325" on="0"/>
        <pt x="463" y="325" on="1"/>
      </contour>
    </TTGlyph>
    <TTGlyph name="at.case" xMin="38" yMin="-90" xMax="881" yMax="746">
      <component glyphName="at" x="0" y="86" flags="0x4"/>
    </TTGlyph>
    <TTGlyph name="atilde" xMin="16" yMin="-10" xMax="597" yMax="721">
      <component glyphName="a" x="0" y="0" flags="0x0"/>
      <component glyphName="tilde" x="27" y="0" flags="0x0"/>
    </TTGlyph>
    <TTGlyph name="atilde.sc" xMin="-4" yMin="0" xMax="656" yMax="781">
      <component glyphName="a.sc" x="0" y="0" flags="0x0"/>
      <component glyphName="tilde" x="76" y="60" flags="0x4"/>
    </TTGlyph>
    <TTGlyph name="b" xMin="39" yMin="-10" xMax="602" yMax="700">
      <contour>
        <pt x="501" y="510" on="0"/>
        <pt x="602" y="372" on="0"/>
        <pt x="602" y="247" on="1"/>
        <pt x="602" y="124" on="0"/>
        <pt x="503" y="-10" on="0"/>
        <pt x="411" y="-10" on="1"/>
        <pt x="351" y="-10" on="0"/>
        <pt x="266" y="58" on="0"/>
        <pt x="247" y="117" on="1"/>
        <pt x="241" y="0" on="1"/>
        <pt x="39" y="0" on="1"/>
        <pt x="39" y="700" on="1"/>
        <pt x="269" y="700" on="1"/>
        <pt x="269" y="416" on="1"/>
        <pt x="289" y="460" on="0"/>
        <pt x="359" y="510" on="0"/>
        <pt x="410" y="510" on="1"/>
      </contour>
      <contour>
        <pt x="344" y="151" on="0"/>
        <pt x="370" y="194" on="0"/>
        <pt x="370" y="250" on="1"/>
        <pt x="370" y="306" on="0"/>
        <pt x="344" y="348" on="0"/>
        <pt x="318" y="348" on="1"/>
        <pt x="293" y="348" on="0"/>
        <pt x="269" y="302" on="0"/>
        <pt x="269" y="254" on="1"/>
        <pt x="269" y="246" on="1"/>
        <pt x="269" y="196" on="0"/>
        <pt x="294" y="151" on="0"/>
        <pt x="318" y="151" on="1"/>
      </contour>
    </TTGlyph>
    <TTGlyph name="b.sc" xMin="53" yMin="0" xMax="629" yMax="560">
      <contour>
        <pt x="53" y="560" on="1"/>
        <pt x="405" y="560" on="1"/>
        <pt x="511" y="559" on="0"/>
        <pt x="614" y="485" on="0"/>
        <pt x="614" y="411" on="1"/>
        <pt x="614" y="359" on="0"/>
        <pt x="552" y="290" on="0"/>
        <pt x="490" y="280" on="1"/>
        <pt x="490" y="277" on="1"/>
        <pt x="629" y="261" on="0"/>
        <pt x="629" y="147" on="1"/>
        <pt x="629" y="0" on="0"/>
        <pt x="427" y="0" on="1"/>
        <pt x="53" y="0" on="1"/>
      </contour>
      <contour>
        <pt x="337" y="344" on="1"/>
        <pt x="364" y="344" on="0"/>
        <pt x="387" y="362" on="0"/>
        <pt x="387" y="383" on="1"/>
        <pt x="387" y="404" on="0"/>
        <pt x="364" y="422" on="0"/>
        <pt x="337" y="422" on="1"/>
        <pt x="266" y="422" on="1"/>
        <pt x="266" y="344" on="1"/>
      </contour>
      <contour>
        <pt x="361" y="138" on="1"/>
        <pt x="402" y="138" on="0"/>
        <pt x="402" y="177" on="1"/>
        <pt x="402" y="216" on="0"/>
        <pt x="361" y="216" on="1"/>
        <pt x="266" y="216" on="1"/>
        <pt x="266" y="138" on="1"/>
      </contour>
    </TTGlyph>
    <TTGlyph name="backslash" xMin="6" yMin="-70" xMax="482" yMax="700">
      <contour>
        <pt x="219" y="700" on="1"/>
        <pt x="482" y="-70" on="1"/>
        <pt x="269" y="-70" on="1"/>
        <pt x="6" y="700" on="1"/>
      </contour>
    </TTGlyph>
    <TTGlyph name="bar" xMin="84" yMin="-168" xMax="288" yMax="701">
      <contour>
        <pt x="288" y="-168" on="1"/>
        <pt x="84" y="-168" on="1"/>
        <pt x="84" y="701" on="1"/>
        <pt x="288" y="701" on="1"/>
      </contour>
    </TTGlyph>
    <TTGlyph name="bar.case" xMin="84" yMin="-97" xMax="288" yMax="752">
      <contour>
        <pt x="288" y="-97" on="1"/>
        <pt x="84" y="-97" on="1"/>
        <pt x="84" y="752" on="1"/>
        <pt x="288" y="752" on="1"/>
      </contour>
    </TTGlyph>
    <TTGlyph name="braceleft" xMin="50" yMin="-193" xMax="453" yMax="726">
      <contour>
        <pt x="339" y="338" on="0"/>
        <pt x="296" y="282" on="0"/>
        <pt x="252" y="267" on="1"/>
        <pt x="296" y="252" on="0"/>
        <pt x="339" y="195" on="0"/>
        <pt x="339" y="149" on="1"/>
        <pt x="339" y="45" on="1"/>
        <pt x="339" y="-9" on="0"/>
        <pt x="393" y="-56" on="0"/>
        <pt x="453" y="-56" on="1"/>
        <pt x="453" y="-193" on="1"/>
        <pt x="345" y="-193" on="0"/>
        <pt x="220" y="-156" on="0"/>
        <pt x="162" y="-69" on="0"/>
        <pt x="162" y="8" on="1"/>
        <pt x="162" y="94" on="1"/>
        <pt x="162" y="150" on="0"/>
        <pt x="111" y="198" on="0"/>
        <pt x="50" y="198" on="1"/>
        <pt x="50" y="335" on="1"/>
        <pt x="111" y="335" on="0"/>
        <pt x="162" y="383" on="0"/>
        <pt x="162" y="439" on="1"/>
        <pt x="162" y="526" on="1"/>
        <pt x="162" y="602" on="0"/>
        <pt x="220" y="689" on="0"/>
        <pt x="345" y="726" on="0"/>
        <pt x="453" y="726" on="1"/>
        <pt x="453" y="589" on="1"/>
        <pt x="393" y="589" on="0"/>
        <pt x="339" y="542" on="0"/>
        <pt x="339" y="489" on="1"/>
        <pt x="339" y="384" on="1"/>
      </contour>
    </TTGlyph>
    <TTGlyph name="braceleft.case" xMin="50" yMin="-120" xMax="453" yMax="779">
      <contour>
        <pt x="339" y="401" on="0"/>
        <pt x="296" y="345" on="0"/>
        <pt x="252" y="330" on="1"/>
        <pt x="296" y="315" on="0"/>
        <pt x="339" y="258" on="0"/>
        <pt x="339" y="212" on="1"/>
        <pt x="339" y="118" on="1"/>
        <pt x="339" y="64" on="0"/>
        <pt x="393" y="17" on="0"/>
        <pt x="453" y="17" on="1"/>
        <pt x="453" y="-120" on="1"/>
        <pt x="345" y="-120" on="0"/>
        <pt x="220" y="-83" on="0"/>
        <pt x="162" y="4" on="0"/>
        <pt x="162" y="81" on="1"/>
        <pt x="162" y="157" on="1"/>
        <pt x="162" y="213" on="0"/>
        <pt x="111" y="261" on="0"/>
        <pt x="50" y="261" on="1"/>
        <pt x="50" y="398" on="1"/>
        <pt x="111" y="398" on="0"/>
        <pt x="162" y="446" on="0"/>
        <pt x="162" y="502" on="1"/>
        <pt x="162" y="579" on="1"/>
        <pt x="162" y="655" on="0"/>
        <pt x="220" y="742" on="0"/>
        <pt x="345" y="779" on="0"/>
        <pt x="453" y="779" on="1"/>
        <pt x="453" y="642" on="1"/>
        <pt x="393" y="642" on="0"/>
        <pt x="339" y="595" on="0"/>
        <pt x="339" y="542" on="1"/>
        <pt x="339" y="447" on="1"/>
      </contour>
    </TTGlyph>
    <TTGlyph name="braceright" xMin="13" yMin="-193" xMax="416" yMax="726">
      <contour>
        <pt x="304" y="383" on="0"/>
        <pt x="355" y="335" on="0"/>
        <pt x="416" y="335" on="1"/>
        <pt x="416" y="198" on="1"/>
        <pt x="355" y="198" on="0"/>
        <pt x="304" y="150" on="0"/>
        <pt x="304" y="94" on="1"/>
        <pt x="304" y="8" on="1"/>
        <pt x="304" y="-69" on="0"/>
        <pt x="246" y="-156" on="0"/>
        <pt x="121" y="-193" on="0"/>
        <pt x="13" y="-193" on="1"/>
        <pt x="13" y="-56" on="1"/>
        <pt x="73" y="-56" on="0"/>
        <pt x="127" y="-9" on="0"/>
        <pt x="127" y="45" on="1"/>
        <pt x="127" y="149" on="1"/>
        <pt x="127" y="195" on="0"/>
        <pt x="170" y="252" on="0"/>
        <pt x="214" y="267" on="1"/>
        <pt x="170" y="282" on="0"/>
        <pt x="127" y="338" on="0"/>
        <pt x="127" y="384" on="1"/>
        <pt x="127" y="489" on="1"/>
        <pt x="127" y="542" on="0"/>
        <pt x="73" y="589" on="0"/>
        <pt x="13" y="589" on="1"/>
        <pt x="13" y="726" on="1"/>
        <pt x="121" y="726" on="0"/>
        <pt x="246" y="689" on="0"/>
        <pt x="304" y="602" on="0"/>
        <pt x="304" y="526" on="1"/>
        <pt x="304" y="439" on="1"/>
      </contour>
    </TTGlyph>
    <TTGlyph name="braceright.case" xMin="13" yMin="-120" xMax="416" yMax="779">
      <contour>
        <pt x="304" y="446" on="0"/>
        <pt x="355" y="398" on="0"/>
        <pt x="416" y="398" on="1"/>
        <pt x="416" y="261" on="1"/>
        <pt x="355" y="261" on="0"/>
        <pt x="304" y="213" on="0"/>
        <pt x="304" y="157" on="1"/>
        <pt x="304" y="81" on="1"/>
        <pt x="304" y="4" on="0"/>
        <pt x="246" y="-83" on="0"/>
        <pt x="121" y="-120" on="0"/>
        <pt x="13" y="-120" on="1"/>
        <pt x="13" y="17" on="1"/>
        <pt x="73" y="17" on="0"/>
        <pt x="127" y="64" on="0"/>
        <pt x="127" y="118" on="1"/>
        <pt x="127" y="212" on="1"/>
        <pt x="127" y="258" on="0"/>
        <pt x="170" y="315" on="0"/>
        <pt x="214" y="330" on="1"/>
        <pt x="170" y="345" on="0"/>
        <pt x="127" y="401" on="0"/>
        <pt x="127" y="447" on="1"/>
        <pt x="127" y="542" on="1"/>
        <pt x="127" y="595" on="0"/>
        <pt x="73" y="642" on="0"/>
        <pt x="13" y="642" on="1"/>
        <pt x="13" y="779" on="1"/>
        <pt x="121" y="779" on="0"/>
        <pt x="246" y="742" on="0"/>
        <pt x="304" y="655" on="0"/>
        <pt x="304" y="579" on="1"/>
        <pt x="304" y="502" on="1"/>
      </contour>
    </TTGlyph>
    <TTGlyph name="bracketleft" xMin="84" yMin="-168" xMax="399" yMax="701">
      <contour>
        <pt x="279" y="550" on="1"/>
        <pt x="279" y="-17" on="1"/>
        <pt x="399" y="-17" on="1"/>
        <pt x="399" y="-168" on="1"/>
        <pt x="84" y="-168" on="1"/>
        <pt x="84" y="701" on="1"/>
        <pt x="399" y="701" on="1"/>
        <pt x="399" y="550" on="1"/>
      </contour>
    </TTGlyph>
    <TTGlyph name="bracketleft.case" xMin="84" yMin="-97" xMax="399" yMax="752">
      <contour>
        <pt x="279" y="601" on="1"/>
        <pt x="279" y="54" on="1"/>
        <pt x="399" y="54" on="1"/>
        <pt x="399" y="-97" on="1"/>
        <pt x="84" y="-97" on="1"/>
        <pt x="84" y="752" on="1"/>
        <pt x="399" y="752" on="1"/>
        <pt x="399" y="601" on="1"/>
      </contour>
    </TTGlyph>
    <TTGlyph name="bracketleftinferior" xMin="47" yMin="-269" xMax="265" yMax="288">
      <component glyphName="bracketleftsuperior" x="0" y="-522" flags="0x4"/>
    </TTGlyph>
    <TTGlyph name="bracketleftsuperior" xMin="47" yMin="253" xMax="265" yMax="810">
      <contour>
        <pt x="176" y="706" on="1"/>
        <pt x="176" y="357" on="1"/>
        <pt x="265" y="357" on="1"/>
        <pt x="265" y="253" on="1"/>
        <pt x="47" y="253" on="1"/>
        <pt x="47" y="810" on="1"/>
        <pt x="265" y="810" on="1"/>
        <pt x="265" y="706" on="1"/>
      </contour>
    </TTGlyph>
    <TTGlyph name="bracketright" xMin="21" yMin="-168" xMax="336" yMax="701">
      <contour>
        <pt x="336" y="-168" on="1"/>
        <pt x="21" y="-168" on="1"/>
        <pt x="21" y="-17" on="1"/>
        <pt x="141" y="-17" on="1"/>
        <pt x="141" y="550" on="1"/>
        <pt x="21" y="550" on="1"/>
        <pt x="21" y="701" on="1"/>
        <pt x="336" y="701" on="1"/>
      </contour>
    </TTGlyph>
    <TTGlyph name="bracketright.case" xMin="21" yMin="-97" xMax="336" yMax="752">
      <contour>
        <pt x="336" y="-97" on="1"/>
        <pt x="21" y="-97" on="1"/>
        <pt x="21" y="54" on="1"/>
        <pt x="141" y="54" on="1"/>
        <pt x="141" y="601" on="1"/>
        <pt x="21" y="601" on="1"/>
        <pt x="21" y="752" on="1"/>
        <pt x="336" y="752" on="1"/>
      </contour>
    </TTGlyph>
    <TTGlyph name="bracketrightinferior" xMin="20" yMin="-269" xMax="238" yMax="288">
      <component glyphName="bracketrightsuperior" x="0" y="-522" flags="0x4"/>
    </TTGlyph>
    <TTGlyph name="bracketrightsuperior" xMin="20" yMin="253" xMax="238" yMax="810">
      <contour>
        <pt x="238" y="253" on="1"/>
        <pt x="20" y="253" on="1"/>
        <pt x="20" y="357" on="1"/>
        <pt x="109" y="357" on="1"/>
        <pt x="109" y="706" on="1"/>
        <pt x="20" y="706" on="1"/>
        <pt x="20" y="810" on="1"/>
        <pt x="238" y="810" on="1"/>
      </contour>
    </TTGlyph>
    <TTGlyph name="breve" xMin="67" yMin="540" xMax="433" yMax="713">
      <contour>
        <pt x="433" y="631" on="0"/>
        <pt x="337" y="540" on="0"/>
        <pt x="250" y="540" on="1"/>
        <pt x="163" y="540" on="0"/>
        <pt x="67" y="631" on="0"/>
        <pt x="67" y="713" on="1"/>
        <pt x="206" y="713" on="1"/>
        <pt x="206" y="658" on="0"/>
        <pt x="250" y="658" on="1"/>
        <pt x="294" y="658" on="0"/>
        <pt x="294" y="713" on="1"/>
        <pt x="433" y="713" on="1"/>
      </contour>
    </TTGlyph>
    <TTGlyph name="brokenbar" xMin="40" yMin="-168" xMax="244" yMax="701">
      <contour>
        <pt x="244" y="310" on="1"/>
        <pt x="40" y="310" on="1"/>
        <pt x="40" y="701" on="1"/>
        <pt x="244" y="701" on="1"/>
      </contour>
      <contour>
        <pt x="244" y="-168" on="1"/>
        <pt x="40" y="-168" on="1"/>
        <pt x="40" y="223" on="1"/>
        <pt x="244" y="223" on="1"/>
      </contour>
    </TTGlyph>
    <TTGlyph name="bullet" xMin="42" yMin="163" xMax="388" yMax="497">
      <contour>
        <pt x="297" y="497" on="0"/>
        <pt x="388" y="410" on="0"/>
        <pt x="388" y="330" on="1"/>
        <pt x="388" y="250" on="0"/>
        <pt x="297" y="163" on="0"/>
        <pt x="215" y="163" on="1"/>
        <pt x="133" y="163" on="0"/>
        <pt x="42" y="250" on="0"/>
        <pt x="42" y="330" on="1"/>
        <pt x="42" y="410" on="0"/>
        <pt x="133" y="497" on="0"/>
        <pt x="215" y="497" on="1"/>
      </contour>
    </TTGlyph>
    <TTGlyph name="c" xMin="20" yMin="-10" xMax="561" yMax="510">
      <contour>
        <pt x="436" y="510" on="0"/>
        <pt x="559" y="411" on="0"/>
        <pt x="561" y="340" on="1"/>
        <pt x="349" y="278" on="1"/>
        <pt x="352" y="355" on="0"/>
        <pt x="309" y="355" on="1"/>
        <pt x="278" y="355" on="0"/>
        <pt x="251" y="308" on="0"/>
        <pt x="251" y="247" on="1"/>
        <pt x="251" y="187" on="0"/>
        <pt x="280" y="145" on="0"/>
        <pt x="308" y="145" on="1"/>
        <pt x="329" y="145" on="0"/>
        <pt x="351" y="178" on="0"/>
        <pt x="353" y="211" on="1"/>
        <pt x="559" y="147" on="1"/>
        <pt x="559" y="104" on="0"/>
        <pt x="500" y="33" on="0"/>
        <pt x="387" y="-10" on="0"/>
        <pt x="309" y="-10" on="1"/>
        <pt x="167" y="-10" on="0"/>
        <pt x="20" y="124" on="0"/>
        <pt x="20" y="250" on="1"/>
        <pt x="20" y="374" on="0"/>
        <pt x="165" y="510" on="0"/>
        <pt x="297" y="510" on="1"/>
      </contour>
    </TTGlyph>
    <TTGlyph name="c.sc" xMin="26" yMin="-8" xMax="598" yMax="568">
      <contour>
        <pt x="592" y="125" on="0"/>
        <pt x="525" y="41" on="0"/>
        <pt x="405" y="-8" on="0"/>
        <pt x="325" y="-8" on="1"/>
        <pt x="182" y="-8" on="0"/>
        <pt x="26" y="141" on="0"/>
        <pt x="26" y="280" on="1"/>
        <pt x="26" y="419" on="0"/>
        <pt x="185" y="568" on="0"/>
        <pt x="332" y="568" on="1"/>
        <pt x="399" y="568" on="0"/>
        <pt x="514" y="524" on="0"/>
        <pt x="589" y="438" on="0"/>
        <pt x="596" y="378" on="1"/>
        <pt x="392" y="326" on="1"/>
        <pt x="392" y="366" on="0"/>
        <pt x="357" y="398" on="0"/>
        <pt x="331" y="398" on="1"/>
        <pt x="295" y="398" on="0"/>
        <pt x="257" y="342" on="0"/>
        <pt x="257" y="280" on="1"/>
        <pt x="257" y="217" on="0"/>
        <pt x="294" y="162" on="0"/>
        <pt x="335" y="162" on="1"/>
        <pt x="395" y="162" on="0"/>
        <pt x="398" y="231" on="1"/>
        <pt x="598" y="179" on="1"/>
      </contour>
    </TTGlyph>
    <TTGlyph name="c_t" xMin="20" yMin="-10" xMax="977" yMax="720">
      <contour>
        <pt x="977" y="24" on="1"/>
        <pt x="952" y="9" on="0"/>
        <pt x="867" y="-10" on="0"/>
        <pt x="828" y="-10" on="1"/>
        <pt x="720" y="-10" on="0"/>
        <pt x="614" y="73" on="0"/>
        <pt x="614" y="168" on="1"/>
        <pt x="614" y="491" on="1"/>
        <pt x="614" y="529" on="0"/>
        <pt x="585" y="565" on="0"/>
        <pt x="566" y="565" on="1"/>
        <pt x="521" y="565" on="0"/>
        <pt x="521" y="497" on="1"/>
        <pt x="521" y="438" on="0"/>
        <pt x="561" y="340" on="1"/>
        <pt x="349" y="278" on="1"/>
        <pt x="352" y="355" on="0"/>
        <pt x="309" y="355" on="1"/>
        <pt x="278" y="355" on="0"/>
        <pt x="251" y="308" on="0"/>
        <pt x="251" y="247" on="1"/>
        <pt x="251" y="187" on="0"/>
        <pt x="280" y="145" on="0"/>
        <pt x="308" y="145" on="1"/>
        <pt x="329" y="145" on="0"/>
        <pt x="351" y="178" on="0"/>
        <pt x="353" y="211" on="1"/>
        <pt x="559" y="147" on="1"/>
        <pt x="559" y="104" on="0"/>
        <pt x="500" y="33" on="0"/>
        <pt x="387" y="-10" on="0"/>
        <pt x="309" y="-10" on="1"/>
        <pt x="167" y="-10" on="0"/>
        <pt x="20" y="124" on="0"/>
        <pt x="20" y="250" on="1"/>
        <pt x="20" y="374" on="0"/>
        <pt x="165" y="510" on="0"/>
        <pt x="297" y="510" on="1"/>
        <pt x="325" y="510" on="0"/>
        <pt x="366" y="506" on="1"/>
        <pt x="359" y="525" on="0"/>
        <pt x="359" y="547" on="1"/>
        <pt x="359" y="627" on="0"/>
        <pt x="482" y="720" on="0"/>
        <pt x="588" y="720" on="1"/>
        <pt x="652" y="720" on="0"/>
        <pt x="768" y="679" on="0"/>
        <pt x="844" y="589" on="0"/>
        <pt x="844" y="520" on="1"/>
        <pt x="844" y="500" on="1"/>
        <pt x="970" y="500" on="1"/>
        <pt x="970" y="345" on="1"/>
        <pt x="844" y="345" on="1"/>
        <pt x="844" y="204" on="1"/>
        <pt x="844" y="170" on="0"/>
        <pt x="873" y="141" on="0"/>
        <pt x="904" y="141" on="1"/>
        <pt x="941" y="141" on="0"/>
        <pt x="967" y="154" on="1"/>
      </contour>
    </TTGlyph>
    <TTGlyph name="cacute" xMin="20" yMin="-10" xMax="561" yMax="730">
      <component glyphName="c" x="0" y="0" flags="0x0"/>
      <component glyphName="acute" x="35" y="0" flags="0x0"/>
    </TTGlyph>
    <TTGlyph name="cacute.sc" xMin="26" yMin="-8" xMax="598" yMax="776">
      <component glyphName="c.sc" x="0" y="0" flags="0x0"/>
      <component glyphName="acutecomb.cap" x="338" y="-100" flags="0x4"/>
    </TTGlyph>
    <TTGlyph name="caron" xMin="37" yMin="553" xMax="463" yMax="730">
      <contour>
        <pt x="357" y="553" on="1"/>
        <pt x="143" y="553" on="1"/>
        <pt x="37" y="730" on="1"/>
        <pt x="193" y="730" on="1"/>
        <pt x="250" y="659" on="1"/>
        <pt x="307" y="730" on="1"/>
        <pt x="463" y="730" on="1"/>
      </contour>
    </TTGlyph>
    <TTGlyph name="ccaron" xMin="20" yMin="-10" xMax="561" yMax="730">
      <component glyphName="c" x="0" y="0" flags="0x0"/>
      <component glyphName="caron" x="41" y="0" flags="0x0"/>
    </TTGlyph>
    <TTGlyph name="ccaron.sc" xMin="26" yMin="-8" xMax="598" yMax="776">
      <component glyphName="c.sc" x="0" y="0" flags="0x0"/>
      <component glyphName="uni030C.cap" x="338" y="-100" flags="0x4"/>
    </TTGlyph>
    <TTGlyph name="ccedilla" xMin="20" yMin="-215" xMax="561" yMax="510">
      <contour>
        <pt x="329" y="145" on="0"/>
        <pt x="351" y="178" on="0"/>
        <pt x="353" y="211" on="1"/>
        <pt x="559" y="147" on="1"/>
        <pt x="559" y="97" on="0"/>
        <pt x="480" y="18" on="0"/>
        <pt x="407" y="0" on="1"/>
        <pt x="458" y="-35" on="0"/>
        <pt x="458" y="-90" on="1"/>
        <pt x="458" y="-156" on="0"/>
        <pt x="370" y="-215" on="0"/>
        <pt x="297" y="-215" on="1"/>
        <pt x="247" y="-215" on="0"/>
        <pt x="184" y="-191" on="0"/>
        <pt x="163" y="-171" on="1"/>
        <pt x="208" y="-76" on="1"/>
        <pt x="236" y="-104" on="0"/>
        <pt x="282" y="-104" on="1"/>
        <pt x="307" y="-104" on="0"/>
        <pt x="336" y="-81" on="0"/>
        <pt x="336" y="-60" on="1"/>
        <pt x="336" y="-26" on="0"/>
        <pt x="281" y="-9" on="1"/>
        <pt x="153" y="-3" on="0"/>
        <pt x="20" y="131" on="0"/>
        <pt x="20" y="250" on="1"/>
        <pt x="20" y="374" on="0"/>
        <pt x="165" y="510" on="0"/>
        <pt x="297" y="510" on="1"/>
        <pt x="436" y="510" on="0"/>
        <pt x="559" y="411" on="0"/>
        <pt x="561" y="340" on="1"/>
        <pt x="349" y="278" on="1"/>
        <pt x="352" y="355" on="0"/>
        <pt x="309" y="355" on="1"/>
        <pt x="278" y="355" on="0"/>
        <pt x="251" y="308" on="0"/>
        <pt x="251" y="247" on="1"/>
        <pt x="251" y="187" on="0"/>
        <pt x="280" y="145" on="0"/>
        <pt x="308" y="145" on="1"/>
      </contour>
    </TTGlyph>
    <TTGlyph name="ccedilla.sc" xMin="26" yMin="-215" xMax="598" yMax="568">
      <contour>
        <pt x="591" y="115" on="0"/>
        <pt x="501" y="22" on="0"/>
        <pt x="424" y="3" on="1"/>
        <pt x="451" y="-14" on="0"/>
        <pt x="479" y="-62" on="0"/>
        <pt x="479" y="-90" on="1"/>
        <pt x="479" y="-156" on="0"/>
        <pt x="391" y="-215" on="0"/>
        <pt x="318" y="-215" on="1"/>
        <pt x="268" y="-215" on="0"/>
        <pt x="205" y="-191" on="0"/>
        <pt x="184" y="-171" on="1"/>
        <pt x="229" y="-76" on="1"/>
        <pt x="257" y="-104" on="0"/>
        <pt x="303" y="-104" on="1"/>
        <pt x="328" y="-104" on="0"/>
        <pt x="357" y="-81" on="0"/>
        <pt x="357" y="-60" on="1"/>
        <pt x="357" y="-42" on="0"/>
        <pt x="329" y="-16" on="0"/>
        <pt x="294" y="-7" on="1"/>
        <pt x="165" y="1" on="0"/>
        <pt x="26" y="149" on="0"/>
        <pt x="26" y="280" on="1"/>
        <pt x="26" y="419" on="0"/>
        <pt x="185" y="568" on="0"/>
        <pt x="332" y="568" on="1"/>
        <pt x="399" y="568" on="0"/>
        <pt x="514" y="524" on="0"/>
        <pt x="589" y="438" on="0"/>
        <pt x="596" y="378" on="1"/>
        <pt x="392" y="326" on="1"/>
        <pt x="392" y="366" on="0"/>
        <pt x="357" y="398" on="0"/>
        <pt x="331" y="398" on="1"/>
        <pt x="295" y="398" on="0"/>
        <pt x="257" y="342" on="0"/>
        <pt x="257" y="280" on="1"/>
        <pt x="257" y="217" on="0"/>
        <pt x="294" y="162" on="0"/>
        <pt x="335" y="162" on="1"/>
        <pt x="395" y="162" on="0"/>
        <pt x="398" y="231" on="1"/>
        <pt x="598" y="179" on="1"/>
      </contour>
    </TTGlyph>
    <TTGlyph name="cedilla" xMin="109" yMin="-215" xMax="404" yMax="42">
      <contour>
        <pt x="208" y="42" on="1"/>
        <pt x="302" y="36" on="0"/>
        <pt x="404" y="-35" on="0"/>
        <pt x="404" y="-90" on="1"/>
        <pt x="404" y="-156" on="0"/>
        <pt x="316" y="-215" on="0"/>
        <pt x="243" y="-215" on="1"/>
        <pt x="193" y="-215" on="0"/>
        <pt x="130" y="-191" on="0"/>
        <pt x="109" y="-171" on="1"/>
        <pt x="154" y="-76" on="1"/>
        <pt x="182" y="-104" on="0"/>
        <pt x="228" y="-104" on="1"/>
        <pt x="253" y="-104" on="0"/>
        <pt x="282" y="-81" on="0"/>
        <pt x="282" y="-60" on="1"/>
        <pt x="282" y="-37" on="0"/>
        <pt x="232" y="-6" on="0"/>
        <pt x="168" y="2" on="1"/>
      </contour>
    </TTGlyph>
    <TTGlyph name="cent" xMin="29" yMin="-100" xMax="571" yMax="600">
      <contour>
        <pt x="403" y="322" on="0"/>
        <pt x="368" y="366" on="0"/>
        <pt x="340" y="373" on="1"/>
        <pt x="340" y="126" on="1"/>
        <pt x="398" y="138" on="0"/>
        <pt x="406" y="203" on="1"/>
        <pt x="566" y="148" on="1"/>
        <pt x="571" y="81" on="0"/>
        <pt x="451" y="-5" on="0"/>
        <pt x="340" y="-10" on="1"/>
        <pt x="340" y="-100" on="1"/>
        <pt x="282" y="-100" on="1"/>
        <pt x="282" y="-9" on="1"/>
        <pt x="158" y="-1" on="0"/>
        <pt x="29" y="132" on="0"/>
        <pt x="29" y="250" on="1"/>
        <pt x="29" y="368" on="0"/>
        <pt x="162" y="503" on="0"/>
        <pt x="282" y="509" on="1"/>
        <pt x="282" y="600" on="1"/>
        <pt x="340" y="600" on="1"/>
        <pt x="340" y="509" on="1"/>
        <pt x="461" y="503" on="0"/>
        <pt x="570" y="408" on="0"/>
        <pt x="567" y="340" on="1"/>
        <pt x="405" y="287" on="1"/>
      </contour>
      <contour>
        <pt x="227" y="189" on="0"/>
        <pt x="254" y="135" on="0"/>
        <pt x="282" y="128" on="1"/>
        <pt x="282" y="372" on="1"/>
        <pt x="253" y="364" on="0"/>
        <pt x="227" y="307" on="0"/>
        <pt x="227" y="247" on="1"/>
      </contour>
    </TTGlyph>
    <TTGlyph name="cent.tf" xMin="32" yMin="-100" xMax="570" yMax="600">
      <component glyphName="cent" x="3" y="0" flags="0x0"/>
    </TTGlyph>
    <TTGlyph name="circle" xMin="26" yMin="-10" xMax="574" yMax="510">
      <contour>
        <pt x="223" y="-10" on="0"/>
        <pt x="98" y="58" on="0"/>
        <pt x="26" y="177" on="0"/>
        <pt x="26" y="250" on="1"/>
        <pt x="26" y="323" on="0"/>
        <pt x="98" y="442" on="0"/>
        <pt x="223" y="510" on="0"/>
        <pt x="300" y="510" on="1"/>
        <pt x="377" y="510" on="0"/>
        <pt x="502" y="442" on="0"/>
        <pt x="574" y="323" on="0"/>
        <pt x="574" y="250" on="1"/>
        <pt x="574" y="177" on="0"/>
        <pt x="502" y="58" on="0"/>
        <pt x="377" y="-10" on="0"/>
        <pt x="300" y="-10" on="1"/>
      </contour>
      <contour>
        <pt x="351" y="130" on="0"/>
        <pt x="419" y="199" on="0"/>
        <pt x="419" y="250" on="1"/>
        <pt x="419" y="301" on="0"/>
        <pt x="351" y="370" on="0"/>
        <pt x="300" y="370" on="1"/>
        <pt x="249" y="370" on="0"/>
        <pt x="181" y="301" on="0"/>
        <pt x="181" y="250" on="1"/>
        <pt x="181" y="199" on="0"/>
        <pt x="249" y="130" on="0"/>
        <pt x="300" y="130" on="1"/>
      </contour>
    </TTGlyph>
    <TTGlyph name="circle.case" xMin="62" yMin="-10" xMax="758" yMax="670">
      <contour>
        <pt x="312" y="-10" on="0"/>
        <pt x="153" y="79" on="0"/>
        <pt x="62" y="234" on="0"/>
        <pt x="62" y="330" on="1"/>
        <pt x="62" y="426" on="0"/>
        <pt x="153" y="581" on="0"/>
        <pt x="312" y="670" on="0"/>
        <pt x="410" y="670" on="1"/>
        <pt x="508" y="670" on="0"/>
        <pt x="667" y="581" on="0"/>
        <pt x="758" y="426" on="0"/>
        <pt x="758" y="330" on="1"/>
        <pt x="758" y="234" on="0"/>
        <pt x="667" y="79" on="0"/>
        <pt x="508" y="-10" on="0"/>
        <pt x="410" y="-10" on="1"/>
      </contour>
      <contour>
        <pt x="466" y="130" on="0"/>
        <pt x="554" y="181" on="0"/>
        <pt x="603" y="272" on="0"/>
        <pt x="603" y="330" on="1"/>
        <pt x="603" y="388" on="0"/>
        <pt x="554" y="479" on="0"/>
        <pt x="466" y="530" on="0"/>
        <pt x="410" y="530" on="1"/>
        <pt x="354" y="530" on="0"/>
        <pt x="266" y="479" on="0"/>
        <pt x="217" y="388" on="0"/>
        <pt x="217" y="330" on="1"/>
        <pt x="217" y="272" on="0"/>
        <pt x="266" y="181" on="0"/>
        <pt x="354" y="130" on="0"/>
        <pt x="410" y="130" on="1"/>
      </contour>
    </TTGlyph>
    <TTGlyph name="circumflex" xMin="37" yMin="547" xMax="463" yMax="724">
      <contour>
        <pt x="307" y="547" on="1"/>
        <pt x="250" y="618" on="1"/>
        <pt x="193" y="547" on="1"/>
        <pt x="37" y="547" on="1"/>
        <pt x="143" y="724" on="1"/>
        <pt x="357" y="724" on="1"/>
        <pt x="463" y="547" on="1"/>
      </contour>
    </TTGlyph>
    <TTGlyph name="colon" xMin="30" yMin="-8" xMax="276" yMax="510">
      <component glyphName="period" x="0" y="304" flags="0x4"/>
      <component glyphName="period" x="0" y="0" flags="0x0"/>
    </TTGlyph>
    <TTGlyph name="colon.tf" xMin="28" yMin="-8" xMax="274" yMax="510">
      <component glyphName="period" x="-2" y="304" flags="0x4"/>
      <component glyphName="period" x="-2" y="0" flags="0x0"/>
    </TTGlyph>
    <TTGlyph name="coloninferior" xMin="32" yMin="-195" xMax="222" yMax="148">
      <component glyphName="periodsuperior" x="0" y="-522" flags="0x4"/>
      <component glyphName="periodsuperior" x="0" y="-339" flags="0x4"/>
    </TTGlyph>
    <TTGlyph name="colonsuperior" xMin="32" yMin="327" xMax="222" yMax="670">
      <component glyphName="periodsuperior" x="0" y="0" flags="0x0"/>
      <component glyphName="periodsuperior" x="0" y="183" flags="0x4"/>
    </TTGlyph>
    <TTGlyph name="comma" xMin="22" yMin="-166" xMax="278" yMax="206">
      <contour>
        <pt x="213" y="206" on="0"/>
        <pt x="278" y="122" on="0"/>
        <pt x="278" y="57" on="1"/>
        <pt x="278" y="-17" on="0"/>
        <pt x="196" y="-135" on="0"/>
        <pt x="119" y="-166" on="1"/>
        <pt x="22" y="-104" on="1"/>
        <pt x="77" y="-81" on="0"/>
        <pt x="148" y="-30" on="0"/>
        <pt x="164" y="6" on="1"/>
        <pt x="159" y="10" on="1"/>
        <pt x="146" y="-4" on="0"/>
        <pt x="127" y="-4" on="1"/>
        <pt x="86" y="-4" on="0"/>
        <pt x="25" y="47" on="0"/>
        <pt x="25" y="95" on="1"/>
        <pt x="25" y="151" on="0"/>
        <pt x="90" y="206" on="0"/>
        <pt x="148" y="206" on="1"/>
      </contour>
    </TTGlyph>
    <TTGlyph name="comma.tf" xMin="25" yMin="-166" xMax="281" yMax="206">
      <component glyphName="comma" x="3" y="0" flags="0x0"/>
    </TTGlyph>
    <TTGlyph name="commainferior" xMin="29" yMin="-319" xMax="225" yMax="-35">
      <component glyphName="commasuperior" x="0" y="-522" flags="0x4"/>
    </TTGlyph>
    <TTGlyph name="commasuperior" xMin="29" yMin="203" xMax="225" yMax="487">
      <contour>
        <pt x="176" y="487" on="0"/>
        <pt x="225" y="427" on="0"/>
        <pt x="225" y="373" on="1"/>
        <pt x="225" y="316" on="0"/>
        <pt x="162" y="227" on="0"/>
        <pt x="103" y="203" on="1"/>
        <pt x="29" y="250" on="1"/>
        <pt x="117" y="286" on="0"/>
        <pt x="136" y="330" on="1"/>
        <pt x="132" y="333" on="1"/>
        <pt x="122" y="327" on="0"/>
        <pt x="111" y="327" on="1"/>
        <pt x="83" y="327" on="0"/>
        <pt x="32" y="369" on="0"/>
        <pt x="32" y="405" on="1"/>
        <pt x="32" y="445" on="0"/>
        <pt x="79" y="487" on="0"/>
        <pt x="125" y="487" on="1"/>
      </contour>
    </TTGlyph>
    <TTGlyph name="copyright" xMin="24" yMin="-10" xMax="716" yMax="670">
      <contour>
        <pt x="473" y="670" on="0"/>
        <pt x="630" y="586" on="0"/>
        <pt x="716" y="432" on="0"/>
        <pt x="716" y="330" on="1"/>
        <pt x="716" y="228" on="0"/>
        <pt x="630" y="74" on="0"/>
        <pt x="473" y="-10" on="0"/>
        <pt x="370" y="-10" on="1"/>
        <pt x="267" y="-10" on="0"/>
        <pt x="110" y="74" on="0"/>
        <pt x="24" y="228" on="0"/>
        <pt x="24" y="330" on="1"/>
        <pt x="24" y="432" on="0"/>
        <pt x="110" y="586" on="0"/>
        <pt x="267" y="670" on="0"/>
        <pt x="370" y="670" on="1"/>
      </contour>
      <contour>
        <pt x="278" y="542" on="0"/>
        <pt x="162" y="428" on="0"/>
        <pt x="162" y="332" on="1"/>
        <pt x="162" y="236" on="0"/>
        <pt x="278" y="122" on="0"/>
        <pt x="379" y="122" on="1"/>
        <pt x="462" y="122" on="0"/>
        <pt x="559" y="189" on="0"/>
        <pt x="585" y="265" on="1"/>
        <pt x="467" y="309" on="1"/>
        <pt x="456" y="276" on="0"/>
        <pt x="418" y="251" on="0"/>
        <pt x="386" y="251" on="1"/>
        <pt x="304" y="251" on="0"/>
        <pt x="304" y="330" on="1"/>
        <pt x="304" y="369" on="0"/>
        <pt x="346" y="411" on="0"/>
        <pt x="386" y="411" on="1"/>
        <pt x="417" y="411" on="0"/>
        <pt x="449" y="390" on="0"/>
        <pt x="461" y="362" on="1"/>
        <pt x="570" y="412" on="1"/>
        <pt x="551" y="478" on="0"/>
        <pt x="458" y="542" on="0"/>
        <pt x="379" y="542" on="1"/>
      </contour>
    </TTGlyph>
    <TTGlyph name="currency" xMin="14" yMin="27" xMax="620" yMax="632">
      <contour>
        <pt x="532" y="285" on="0"/>
        <pt x="516" y="243" on="1"/>
        <pt x="620" y="156" on="1"/>
        <pt x="490" y="27" on="1"/>
        <pt x="399" y="136" on="1"/>
        <pt x="364" y="123" on="0"/>
        <pt x="318" y="123" on="1"/>
        <pt x="275" y="123" on="0"/>
        <pt x="234" y="136" on="1"/>
        <pt x="143" y="27" on="1"/>
        <pt x="14" y="156" on="1"/>
        <pt x="118" y="243" on="1"/>
        <pt x="102" y="285" on="0"/>
        <pt x="102" y="330" on="1"/>
        <pt x="102" y="374" on="0"/>
        <pt x="118" y="416" on="1"/>
        <pt x="14" y="503" on="1"/>
        <pt x="143" y="632" on="1"/>
        <pt x="234" y="523" on="1"/>
        <pt x="275" y="536" on="0"/>
        <pt x="318" y="536" on="1"/>
        <pt x="364" y="536" on="0"/>
        <pt x="399" y="523" on="1"/>
        <pt x="490" y="632" on="1"/>
        <pt x="620" y="503" on="1"/>
        <pt x="516" y="415" on="1"/>
        <pt x="532" y="375" on="0"/>
        <pt x="532" y="330" on="1"/>
      </contour>
      <contour>
        <pt x="342" y="276" on="0"/>
        <pt x="369" y="305" on="0"/>
        <pt x="369" y="330" on="1"/>
        <pt x="369" y="355" on="0"/>
        <pt x="342" y="384" on="0"/>
        <pt x="318" y="384" on="1"/>
        <pt x="293" y="384" on="0"/>
        <pt x="265" y="355" on="0"/>
        <pt x="265" y="330" on="1"/>
        <pt x="265" y="305" on="0"/>
        <pt x="293" y="276" on="0"/>
        <pt x="318" y="276" on="1"/>
      </contour>
    </TTGlyph>
    <TTGlyph name="currency.tf" xMin="-1" yMin="27" xMax="605" yMax="632">
      <component glyphName="currency" x="-15" y="0" flags="0x0"/>
    </TTGlyph>
    <TTGlyph name="d" xMin="25" yMin="-10" xMax="588" yMax="700">
      <contour>
        <pt x="588" y="700" on="1"/>
        <pt x="588" y="0" on="1"/>
        <pt x="381" y="0" on="1"/>
        <pt x="374" y="99" on="1"/>
        <pt x="352" y="48" on="0"/>
        <pt x="272" y="-10" on="0"/>
        <pt x="216" y="-10" on="1"/>
        <pt x="124" y="-10" on="0"/>
        <pt x="25" y="124" on="0"/>
        <pt x="25" y="247" on="1"/>
        <pt x="25" y="372" on="0"/>
        <pt x="126" y="510" on="0"/>
        <pt x="217" y="510" on="1"/>
        <pt x="268" y="510" on="0"/>
        <pt x="338" y="460" on="0"/>
        <pt x="358" y="416" on="1"/>
        <pt x="358" y="700" on="1"/>
      </contour>
      <contour>
        <pt x="333" y="151" on="0"/>
        <pt x="358" y="196" on="0"/>
        <pt x="358" y="246" on="1"/>
        <pt x="358" y="254" on="1"/>
        <pt x="358" y="302" on="0"/>
        <pt x="334" y="348" on="0"/>
        <pt x="309" y="348" on="1"/>
        <pt x="283" y="348" on="0"/>
        <pt x="257" y="306" on="0"/>
        <pt x="257" y="250" on="1"/>
        <pt x="257" y="194" on="0"/>
        <pt x="283" y="151" on="0"/>
        <pt x="309" y="151" on="1"/>
      </contour>
    </TTGlyph>
    <TTGlyph name="d.sc" xMin="53" yMin="0" xMax="631" yMax="560">
      <contour>
        <pt x="479" y="560" on="0"/>
        <pt x="631" y="413" on="0"/>
        <pt x="631" y="280" on="1"/>
        <pt x="631" y="147" on="0"/>
        <pt x="479" y="0" on="0"/>
        <pt x="338" y="0" on="1"/>
        <pt x="53" y="0" on="1"/>
        <pt x="53" y="560" on="1"/>
        <pt x="338" y="560" on="1"/>
      </contour>
      <contour>
        <pt x="372" y="165" on="0"/>
        <pt x="400" y="219" on="0"/>
        <pt x="400" y="280" on="1"/>
        <pt x="400" y="341" on="0"/>
        <pt x="372" y="395" on="0"/>
        <pt x="334" y="395" on="1"/>
        <pt x="278" y="395" on="1"/>
        <pt x="278" y="165" on="1"/>
        <pt x="334" y="165" on="1"/>
      </contour>
    </TTGlyph>
    <TTGlyph name="dagger" xMin="31" yMin="-100" xMax="619" yMax="660">
      <contour>
        <pt x="619" y="299" on="1"/>
        <pt x="429" y="299" on="1"/>
        <pt x="429" y="-100" on="1"/>
        <pt x="219" y="-100" on="1"/>
        <pt x="219" y="299" on="1"/>
        <pt x="31" y="299" on="1"/>
        <pt x="31" y="470" on="1"/>
        <pt x="219" y="470" on="1"/>
        <pt x="219" y="660" on="1"/>
        <pt x="429" y="660" on="1"/>
        <pt x="429" y="470" on="1"/>
        <pt x="619" y="470" on="1"/>
      </contour>
    </TTGlyph>
    <TTGlyph name="daggerdbl" xMin="41" yMin="-100" xMax="609" yMax="660">
      <contour>
        <pt x="419" y="329" on="1"/>
        <pt x="419" y="221" on="1"/>
        <pt x="609" y="221" on="1"/>
        <pt x="609" y="60" on="1"/>
        <pt x="419" y="60" on="1"/>
        <pt x="419" y="-100" on="1"/>
        <pt x="229" y="-100" on="1"/>
        <pt x="229" y="60" on="1"/>
        <pt x="41" y="60" on="1"/>
        <pt x="41" y="221" on="1"/>
        <pt x="229" y="221" on="1"/>
        <pt x="229" y="329" on="1"/>
        <pt x="41" y="329" on="1"/>
        <pt x="41" y="490" on="1"/>
        <pt x="229" y="490" on="1"/>
        <pt x="229" y="660" on="1"/>
        <pt x="419" y="660" on="1"/>
        <pt x="419" y="490" on="1"/>
        <pt x="609" y="490" on="1"/>
        <pt x="609" y="329" on="1"/>
      </contour>
    </TTGlyph>
    <TTGlyph name="daggerdblsuperior" xMin="36" yMin="185" xMax="494" yMax="730">
      <contour>
        <pt x="345" y="494" on="1"/>
        <pt x="345" y="421" on="1"/>
        <pt x="494" y="421" on="1"/>
        <pt x="494" y="307" on="1"/>
        <pt x="345" y="307" on="1"/>
        <pt x="345" y="185" on="1"/>
        <pt x="185" y="185" on="1"/>
        <pt x="185" y="307" on="1"/>
        <pt x="36" y="307" on="1"/>
        <pt x="36" y="421" on="1"/>
        <pt x="185" y="421" on="1"/>
        <pt x="185" y="494" on="1"/>
        <pt x="36" y="494" on="1"/>
        <pt x="36" y="608" on="1"/>
        <pt x="185" y="608" on="1"/>
        <pt x="185" y="730" on="1"/>
        <pt x="345" y="730" on="1"/>
        <pt x="345" y="608" on="1"/>
        <pt x="494" y="608" on="1"/>
        <pt x="494" y="494" on="1"/>
      </contour>
    </TTGlyph>
    <TTGlyph name="daggersuperior" xMin="36" yMin="185" xMax="494" yMax="730">
      <contour>
        <pt x="494" y="444" on="1"/>
        <pt x="345" y="444" on="1"/>
        <pt x="345" y="185" on="1"/>
        <pt x="185" y="185" on="1"/>
        <pt x="185" y="444" on="1"/>
        <pt x="36" y="444" on="1"/>
        <pt x="36" y="578" on="1"/>
        <pt x="185" y="578" on="1"/>
        <pt x="185" y="730" on="1"/>
        <pt x="345" y="730" on="1"/>
        <pt x="345" y="578" on="1"/>
        <pt x="494" y="578" on="1"/>
      </contour>
    </TTGlyph>
    <TTGlyph name="dcaron" xMin="25" yMin="-10" xMax="808" yMax="700">
      <contour>
        <pt x="358" y="700" on="1"/>
        <pt x="588" y="700" on="1"/>
        <pt x="588" y="0" on="1"/>
        <pt x="381" y="0" on="1"/>
        <pt x="374" y="99" on="1"/>
        <pt x="352" y="48" on="0"/>
        <pt x="272" y="-10" on="0"/>
        <pt x="216" y="-10" on="1"/>
        <pt x="124" y="-10" on="0"/>
        <pt x="25" y="124" on="0"/>
        <pt x="25" y="247" on="1"/>
        <pt x="25" y="372" on="0"/>
        <pt x="126" y="510" on="0"/>
        <pt x="217" y="510" on="1"/>
        <pt x="268" y="510" on="0"/>
        <pt x="338" y="460" on="0"/>
        <pt x="358" y="416" on="1"/>
      </contour>
      <contour>
        <pt x="808" y="700" on="1"/>
        <pt x="747" y="433" on="1"/>
        <pt x="621" y="433" on="1"/>
        <pt x="643" y="700" on="1"/>
      </contour>
      <contour>
        <pt x="333" y="151" on="0"/>
        <pt x="358" y="196" on="0"/>
        <pt x="358" y="246" on="1"/>
        <pt x="358" y="254" on="1"/>
        <pt x="358" y="302" on="0"/>
        <pt x="334" y="348" on="0"/>
        <pt x="309" y="348" on="1"/>
        <pt x="283" y="348" on="0"/>
        <pt x="257" y="306" on="0"/>
        <pt x="257" y="250" on="1"/>
        <pt x="257" y="194" on="0"/>
        <pt x="283" y="151" on="0"/>
        <pt x="309" y="151" on="1"/>
      </contour>
    </TTGlyph>
    <TTGlyph name="dcaron.sc" xMin="53" yMin="0" xMax="631" yMax="776">
      <component glyphName="d.sc" x="0" y="0" flags="0x0"/>
      <component glyphName="uni030C.cap" x="305" y="-100" flags="0x4"/>
    </TTGlyph>
    <TTGlyph name="dcroat" xMin="25" yMin="-10" xMax="674" yMax="700">
      <contour>
        <pt x="674" y="539" on="1"/>
        <pt x="588" y="539" on="1"/>
        <pt x="588" y="0" on="1"/>
        <pt x="381" y="0" on="1"/>
        <pt x="374" y="99" on="1"/>
        <pt x="352" y="48" on="0"/>
        <pt x="272" y="-10" on="0"/>
        <pt x="216" y="-10" on="1"/>
        <pt x="124" y="-10" on="0"/>
        <pt x="25" y="124" on="0"/>
        <pt x="25" y="247" on="1"/>
        <pt x="25" y="372" on="0"/>
        <pt x="126" y="510" on="0"/>
        <pt x="217" y="510" on="1"/>
        <pt x="268" y="510" on="0"/>
        <pt x="338" y="460" on="0"/>
        <pt x="358" y="416" on="1"/>
        <pt x="358" y="539" on="1"/>
        <pt x="246" y="539" on="1"/>
        <pt x="246" y="629" on="1"/>
        <pt x="358" y="629" on="1"/>
        <pt x="358" y="700" on="1"/>
        <pt x="588" y="700" on="1"/>
        <pt x="588" y="629" on="1"/>
        <pt x="674" y="629" on="1"/>
      </contour>
      <contour>
        <pt x="333" y="151" on="0"/>
        <pt x="358" y="196" on="0"/>
        <pt x="358" y="246" on="1"/>
        <pt x="358" y="254" on="1"/>
        <pt x="358" y="302" on="0"/>
        <pt x="334" y="348" on="0"/>
        <pt x="309" y="348" on="1"/>
        <pt x="283" y="348" on="0"/>
        <pt x="257" y="306" on="0"/>
        <pt x="257" y="250" on="1"/>
        <pt x="257" y="194" on="0"/>
        <pt x="283" y="151" on="0"/>
        <pt x="309" y="151" on="1"/>
      </contour>
    </TTGlyph>
    <TTGlyph name="dcroat.sc" xMin="0" yMin="0" xMax="650" yMax="560">
      <contour>
        <pt x="498" y="560" on="0"/>
        <pt x="650" y="413" on="0"/>
        <pt x="650" y="280" on="1"/>
        <pt x="650" y="147" on="0"/>
        <pt x="498" y="0" on="0"/>
        <pt x="357" y="0" on="1"/>
        <pt x="72" y="0" on="1"/>
        <pt x="72" y="236" on="1"/>
        <pt x="0" y="236" on="1"/>
        <pt x="0" y="320" on="1"/>
        <pt x="72" y="320" on="1"/>
        <pt x="72" y="560" on="1"/>
        <pt x="357" y="560" on="1"/>
      </contour>
      <contour>
        <pt x="391" y="165" on="0"/>
        <pt x="419" y="219" on="0"/>
        <pt x="419" y="280" on="1"/>
        <pt x="419" y="341" on="0"/>
        <pt x="391" y="395" on="0"/>
        <pt x="353" y="395" on="1"/>
        <pt x="297" y="395" on="1"/>
        <pt x="297" y="320" on="1"/>
        <pt x="376" y="320" on="1"/>
        <pt x="376" y="236" on="1"/>
        <pt x="297" y="236" on="1"/>
        <pt x="297" y="165" on="1"/>
        <pt x="353" y="165" on="1"/>
      </contour>
    </TTGlyph>
    <TTGlyph name="degree" xMin="36" yMin="270" xMax="483" yMax="670">
      <contour>
        <pt x="155" y="270" on="0"/>
        <pt x="36" y="376" on="0"/>
        <pt x="36" y="470" on="1"/>
        <pt x="36" y="563" on="0"/>
        <pt x="155" y="670" on="0"/>
        <pt x="260" y="670" on="1"/>
        <pt x="364" y="670" on="0"/>
        <pt x="483" y="563" on="0"/>
        <pt x="483" y="470" on="1"/>
        <pt x="483" y="376" on="0"/>
        <pt x="364" y="270" on="0"/>
        <pt x="260" y="270" on="1"/>
      </contour>
      <contour>
        <pt x="289" y="408" on="0"/>
        <pt x="324" y="443" on="0"/>
        <pt x="324" y="471" on="1"/>
        <pt x="324" y="499" on="0"/>
        <pt x="289" y="533" on="0"/>
        <pt x="260" y="533" on="1"/>
        <pt x="231" y="533" on="0"/>
        <pt x="195" y="499" on="0"/>
        <pt x="195" y="471" on="1"/>
        <pt x="195" y="443" on="0"/>
        <pt x="231" y="408" on="0"/>
        <pt x="260" y="408" on="1"/>
      </contour>
    </TTGlyph>
    <TTGlyph name="dieresis" xMin="28" yMin="538" xMax="472" yMax="720">
      <contour>
        <pt x="180" y="720" on="0"/>
        <pt x="235" y="673" on="0"/>
        <pt x="235" y="629" on="1"/>
        <pt x="235" y="585" on="0"/>
        <pt x="180" y="538" on="0"/>
        <pt x="130" y="538" on="1"/>
        <pt x="81" y="538" on="0"/>
        <pt x="28" y="586" on="0"/>
        <pt x="28" y="629" on="1"/>
        <pt x="28" y="672" on="0"/>
        <pt x="81" y="720" on="0"/>
        <pt x="130" y="720" on="1"/>
      </contour>
      <contour>
        <pt x="417" y="720" on="0"/>
        <pt x="472" y="673" on="0"/>
        <pt x="472" y="629" on="1"/>
        <pt x="472" y="585" on="0"/>
        <pt x="417" y="538" on="0"/>
        <pt x="367" y="538" on="1"/>
        <pt x="318" y="538" on="0"/>
        <pt x="265" y="586" on="0"/>
        <pt x="265" y="629" on="1"/>
        <pt x="265" y="672" on="0"/>
        <pt x="318" y="720" on="0"/>
        <pt x="367" y="720" on="1"/>
      </contour>
    </TTGlyph>
    <TTGlyph name="divide" xMin="44" yMin="10" xMax="560" yMax="651">
      <contour>
        <pt x="347" y="651" on="0"/>
        <pt x="397" y="602" on="0"/>
        <pt x="397" y="558" on="1"/>
        <pt x="397" y="514" on="0"/>
        <pt x="347" y="466" on="0"/>
        <pt x="302" y="466" on="1"/>
        <pt x="256" y="466" on="0"/>
        <pt x="206" y="514" on="0"/>
        <pt x="206" y="558" on="1"/>
        <pt x="206" y="602" on="0"/>
        <pt x="256" y="651" on="0"/>
        <pt x="302" y="651" on="1"/>
      </contour>
      <contour>
        <pt x="560" y="254" on="1"/>
        <pt x="44" y="254" on="1"/>
        <pt x="44" y="407" on="1"/>
        <pt x="560" y="407" on="1"/>
      </contour>
      <contour>
        <pt x="347" y="195" on="0"/>
        <pt x="397" y="146" on="0"/>
        <pt x="397" y="102" on="1"/>
        <pt x="397" y="58" on="0"/>
        <pt x="347" y="10" on="0"/>
        <pt x="302" y="10" on="1"/>
        <pt x="256" y="10" on="0"/>
        <pt x="206" y="58" on="0"/>
        <pt x="206" y="102" on="1"/>
        <pt x="206" y="146" on="0"/>
        <pt x="256" y="195" on="0"/>
        <pt x="302" y="195" on="1"/>
      </contour>
    </TTGlyph>
    <TTGlyph name="dollar" xMin="11" yMin="-80" xMax="649" yMax="740">
      <contour>
        <pt x="301" y="1" on="1"/>
        <pt x="198" y="5" on="0"/>
        <pt x="65" y="51" on="0"/>
        <pt x="11" y="96" on="1"/>
        <pt x="102" y="235" on="1"/>
        <pt x="167" y="155" on="0"/>
        <pt x="301" y="149" on="1"/>
        <pt x="301" y="246" on="1"/>
        <pt x="219" y="261" on="0"/>
        <pt x="110" y="296" on="0"/>
        <pt x="30" y="378" on="0"/>
        <pt x="30" y="450" on="1"/>
        <pt x="30" y="538" on="0"/>
        <pt x="172" y="651" on="0"/>
        <pt x="301" y="659" on="1"/>
        <pt x="301" y="740" on="1"/>
        <pt x="366" y="740" on="1"/>
        <pt x="366" y="660" on="1"/>
        <pt x="469" y="657" on="0"/>
        <pt x="593" y="603" on="0"/>
        <pt x="649" y="552" on="1"/>
        <pt x="551" y="426" on="1"/>
        <pt x="516" y="468" on="0"/>
        <pt x="426" y="509" on="0"/>
        <pt x="366" y="512" on="1"/>
        <pt x="366" y="408" on="1"/>
        <pt x="446" y="394" on="0"/>
        <pt x="558" y="356" on="0"/>
        <pt x="639" y="271" on="0"/>
        <pt x="639" y="197" on="1"/>
        <pt x="639" y="109" on="0"/>
        <pt x="486" y="6" on="0"/>
        <pt x="366" y="1" on="1"/>
        <pt x="366" y="-80" on="1"/>
        <pt x="301" y="-80" on="1"/>
      </contour>
      <contour>
        <pt x="301" y="508" on="1"/>
        <pt x="271" y="503" on="0"/>
        <pt x="238" y="480" on="0"/>
        <pt x="238" y="464" on="1"/>
        <pt x="238" y="449" on="0"/>
        <pt x="269" y="429" on="0"/>
        <pt x="301" y="421" on="1"/>
      </contour>
      <contour>
        <pt x="432" y="157" on="0"/>
        <pt x="432" y="188" on="1"/>
        <pt x="432" y="218" on="0"/>
        <pt x="366" y="233" on="1"/>
        <pt x="366" y="150" on="1"/>
      </contour>
    </TTGlyph>
    <TTGlyph name="dollar.tf" xMin="12" yMin="-80" xMax="591" yMax="740">
      <contour>
        <pt x="411" y="387" on="0"/>
        <pt x="508" y="350" on="0"/>
        <pt x="578" y="267" on="0"/>
        <pt x="578" y="197" on="1"/>
        <pt x="578" y="111" on="0"/>
        <pt x="445" y="8" on="0"/>
        <pt x="339" y="1" on="1"/>
        <pt x="339" y="-80" on="1"/>
        <pt x="281" y="-80" on="1"/>
        <pt x="281" y="0" on="1"/>
        <pt x="186" y="3" on="0"/>
        <pt x="64" y="50" on="0"/>
        <pt x="12" y="96" on="1"/>
        <pt x="115" y="235" on="1"/>
        <pt x="138" y="197" on="0"/>
        <pt x="230" y="153" on="0"/>
        <pt x="281" y="149" on="1"/>
        <pt x="281" y="242" on="1"/>
        <pt x="210" y="256" on="0"/>
        <pt x="111" y="292" on="0"/>
        <pt x="39" y="377" on="0"/>
        <pt x="39" y="450" on="1"/>
        <pt x="39" y="538" on="0"/>
        <pt x="167" y="652" on="0"/>
        <pt x="281" y="659" on="1"/>
        <pt x="281" y="740" on="1"/>
        <pt x="339" y="740" on="1"/>
        <pt x="339" y="660" on="1"/>
        <pt x="400" y="657" on="0"/>
        <pt x="486" y="629" on="0"/>
        <pt x="545" y="590" on="0"/>
        <pt x="591" y="552" on="1"/>
        <pt x="490" y="425" on="1"/>
        <pt x="467" y="465" on="0"/>
        <pt x="387" y="508" on="0"/>
        <pt x="339" y="511" on="1"/>
        <pt x="339" y="403" on="1"/>
      </contour>
      <contour>
        <pt x="219" y="447" on="0"/>
        <pt x="250" y="425" on="0"/>
        <pt x="281" y="416" on="1"/>
        <pt x="281" y="510" on="1"/>
        <pt x="219" y="500" on="0"/>
        <pt x="219" y="464" on="1"/>
      </contour>
      <contour>
        <pt x="372" y="153" on="0"/>
        <pt x="399" y="172" on="0"/>
        <pt x="399" y="188" on="1"/>
        <pt x="399" y="203" on="0"/>
        <pt x="369" y="223" on="0"/>
        <pt x="339" y="230" on="1"/>
        <pt x="339" y="150" on="1"/>
      </contour>
    </TTGlyph>
    <TTGlyph name="dotaccent" xMin="138" yMin="538" xMax="365" yMax="726">
      <contour>
        <pt x="365" y="726" on="0"/>
        <pt x="365" y="632" on="1"/>
        <pt x="365" y="538" on="0"/>
        <pt x="250" y="538" on="1"/>
        <pt x="138" y="538" on="0"/>
        <pt x="138" y="632" on="1"/>
        <pt x="138" y="726" on="0"/>
        <pt x="250" y="726" on="1"/>
      </contour>
    </TTGlyph>
    <TTGlyph name="dotlessi" xMin="39" yMin="0" xMax="269" yMax="500">
      <contour>
        <pt x="269" y="0" on="1"/>
        <pt x="39" y="0" on="1"/>
        <pt x="39" y="500" on="1"/>
        <pt x="269" y="500" on="1"/>
      </contour>
    </TTGlyph>
    <TTGlyph name="e" xMin="20" yMin="-10" xMax="563" yMax="510">
      <contour>
        <pt x="563" y="228" on="0"/>
        <pt x="558" y="206" on="1"/>
        <pt x="240" y="206" on="1"/>
        <pt x="245" y="169" on="0"/>
        <pt x="277" y="143" on="0"/>
        <pt x="309" y="143" on="1"/>
        <pt x="358" y="143" on="0"/>
        <pt x="369" y="186" on="1"/>
        <pt x="554" y="136" on="1"/>
        <pt x="537" y="64" on="0"/>
        <pt x="404" y="-10" on="0"/>
        <pt x="309" y="-10" on="1"/>
        <pt x="167" y="-10" on="0"/>
        <pt x="20" y="124" on="0"/>
        <pt x="20" y="250" on="1"/>
        <pt x="20" y="374" on="0"/>
        <pt x="165" y="510" on="0"/>
        <pt x="297" y="510" on="1"/>
        <pt x="426" y="510" on="0"/>
        <pt x="563" y="378" on="0"/>
        <pt x="563" y="266" on="1"/>
      </contour>
      <contour>
        <pt x="272" y="358" on="0"/>
        <pt x="244" y="328" on="0"/>
        <pt x="240" y="291" on="1"/>
        <pt x="348" y="291" on="1"/>
        <pt x="345" y="325" on="0"/>
        <pt x="322" y="358" on="0"/>
        <pt x="298" y="358" on="1"/>
      </contour>
    </TTGlyph>
    <TTGlyph name="e.sc" xMin="53" yMin="0" xMax="563" yMax="560">
      <contour>
        <pt x="563" y="153" on="1"/>
        <pt x="563" y="0" on="1"/>
        <pt x="53" y="0" on="1"/>
        <pt x="53" y="560" on="1"/>
        <pt x="562" y="560" on="1"/>
        <pt x="562" y="407" on="1"/>
        <pt x="278" y="407" on="1"/>
        <pt x="278" y="353" on="1"/>
        <pt x="499" y="353" on="1"/>
        <pt x="499" y="209" on="1"/>
        <pt x="278" y="209" on="1"/>
        <pt x="278" y="153" on="1"/>
      </contour>
    </TTGlyph>
    <TTGlyph name="eacute" xMin="20" yMin="-10" xMax="563" yMax="730">
      <component glyphName="e" x="0" y="0" flags="0x0"/>
      <component glyphName="acute" x="34" y="0" flags="0x0"/>
    </TTGlyph>
    <TTGlyph name="eacute.sc" xMin="53" yMin="0" xMax="563" yMax="776">
      <component glyphName="e.sc" x="0" y="0" flags="0x0"/>
      <component glyphName="acutecomb.cap" x="302" y="-100" flags="0x4"/>
    </TTGlyph>
    <TTGlyph name="ecaron" xMin="20" yMin="-10" xMax="563" yMax="730">
      <component glyphName="e" x="0" y="0" flags="0x0"/>
      <component glyphName="caron" x="40" y="0" flags="0x0"/>
    </TTGlyph>
    <TTGlyph name="ecaron.sc" xMin="53" yMin="0" xMax="563" yMax="776">
      <component glyphName="e.sc" x="0" y="0" flags="0x0"/>
      <component glyphName="uni030C.cap" x="302" y="-100" flags="0x4"/>
    </TTGlyph>
    <TTGlyph name="ecircumflex" xMin="20" yMin="-10" xMax="563" yMax="724">
      <component glyphName="e" x="0" y="0" flags="0x0"/>
      <component glyphName="circumflex" x="46" y="0" flags="0x0"/>
    </TTGlyph>
    <TTGlyph name="ecircumflex.sc" xMin="53" yMin="0" xMax="563" yMax="776">
      <component glyphName="e.sc" x="0" y="0" flags="0x0"/>
      <component glyphName="uni0302.cap" x="302" y="-100" flags="0x4"/>
    </TTGlyph>
    <TTGlyph name="edieresis" xMin="20" yMin="-10" xMax="563" yMax="720">
      <component glyphName="e" x="0" y="0" flags="0x0"/>
      <component glyphName="dieresis" x="46" y="0" flags="0x0"/>
    </TTGlyph>
    <TTGlyph name="edieresis.sc" xMin="53" yMin="0" xMax="563" yMax="780">
      <component glyphName="e.sc" x="0" y="0" flags="0x0"/>
      <component glyphName="dieresis" x="52" y="60" flags="0x4"/>
    </TTGlyph>
    <TTGlyph name="edotaccent" xMin="20" yMin="-10" xMax="563" yMax="726">
      <component glyphName="e" x="0" y="0" flags="0x0"/>
      <component glyphName="dotaccent" x="46" y="0" flags="0x0"/>
    </TTGlyph>
    <TTGlyph name="edotaccent.sc" xMin="53" yMin="0" xMax="563" yMax="786">
      <component glyphName="e.sc" x="0" y="0" flags="0x0"/>
      <component glyphName="dotaccent" x="52" y="60" flags="0x4"/>
    </TTGlyph>
    <TTGlyph name="egrave" xMin="20" yMin="-10" xMax="563" yMax="730">
      <component glyphName="e" x="0" y="0" flags="0x0"/>
      <component glyphName="grave" x="46" y="0" flags="0x0"/>
    </TTGlyph>
    <TTGlyph name="egrave.sc" xMin="53" yMin="0" xMax="563" yMax="776">
      <component glyphName="e.sc" x="0" y="0" flags="0x0"/>
      <component glyphName="gravecomb.cap" x="302" y="-100" flags="0x4"/>
    </TTGlyph>
    <TTGlyph name="eight" xMin="30" yMin="-10" xMax="604" yMax="667">
      <contour>
        <pt x="444" y="667" on="0"/>
        <pt x="589" y="564" on="0"/>
        <pt x="589" y="474" on="1"/>
        <pt x="589" y="423" on="0"/>
        <pt x="531" y="350" on="0"/>
        <pt x="477" y="331" on="1"/>
        <pt x="477" y="330" on="1"/>
        <pt x="604" y="291" on="0"/>
        <pt x="604" y="173" on="1"/>
        <pt x="604" y="88" on="0"/>
        <pt x="453" y="-10" on="0"/>
        <pt x="317" y="-10" on="1"/>
        <pt x="181" y="-10" on="0"/>
        <pt x="30" y="88" on="0"/>
        <pt x="30" y="173" on="1"/>
        <pt x="30" y="291" on="0"/>
        <pt x="157" y="330" on="1"/>
        <pt x="157" y="331" on="1"/>
        <pt x="103" y="350" on="0"/>
        <pt x="45" y="423" on="0"/>
        <pt x="45" y="474" on="1"/>
        <pt x="45" y="564" on="0"/>
        <pt x="190" y="667" on="0"/>
        <pt x="317" y="667" on="1"/>
      </contour>
      <contour>
        <pt x="288" y="509" on="0"/>
        <pt x="256" y="479" on="0"/>
        <pt x="256" y="453" on="1"/>
        <pt x="256" y="427" on="0"/>
        <pt x="288" y="397" on="0"/>
        <pt x="317" y="397" on="1"/>
        <pt x="346" y="397" on="0"/>
        <pt x="378" y="427" on="0"/>
        <pt x="378" y="453" on="1"/>
        <pt x="378" y="479" on="0"/>
        <pt x="346" y="509" on="0"/>
        <pt x="317" y="509" on="1"/>
      </contour>
      <contour>
        <pt x="348" y="148" on="0"/>
        <pt x="382" y="178" on="0"/>
        <pt x="382" y="204" on="1"/>
        <pt x="382" y="231" on="0"/>
        <pt x="348" y="260" on="0"/>
        <pt x="317" y="260" on="1"/>
        <pt x="286" y="260" on="0"/>
        <pt x="252" y="231" on="0"/>
        <pt x="252" y="204" on="1"/>
        <pt x="252" y="178" on="0"/>
        <pt x="286" y="148" on="0"/>
        <pt x="317" y="148" on="1"/>
      </contour>
    </TTGlyph>
    <TTGlyph name="eight.dnom" xMin="28" yMin="-10" xMax="410" yMax="398">
      <component glyphName="uni2078" x="0" y="-337" flags="0x4"/>
    </TTGlyph>
    <TTGlyph name="eight.numr" xMin="28" yMin="262" xMax="410" yMax="670">
      <component glyphName="uni2078" x="0" y="-65" flags="0x4"/>
    </TTGlyph>
    <TTGlyph name="eight.osf" xMin="33" yMin="-10" xMax="607" yMax="667">
      <contour>
        <pt x="446" y="667" on="0"/>
        <pt x="588" y="566" on="0"/>
        <pt x="588" y="476" on="1"/>
        <pt x="588" y="376" on="0"/>
        <pt x="474" y="331" on="1"/>
        <pt x="474" y="330" on="1"/>
        <pt x="536" y="312" on="0"/>
        <pt x="607" y="232" on="0"/>
        <pt x="607" y="178" on="1"/>
        <pt x="607" y="88" on="0"/>
        <pt x="456" y="-10" on="0"/>
        <pt x="320" y="-10" on="1"/>
        <pt x="184" y="-10" on="0"/>
        <pt x="33" y="88" on="0"/>
        <pt x="33" y="178" on="1"/>
        <pt x="33" y="231" on="0"/>
        <pt x="103" y="311" on="0"/>
        <pt x="166" y="330" on="1"/>
        <pt x="166" y="331" on="1"/>
        <pt x="110" y="353" on="0"/>
        <pt x="52" y="426" on="0"/>
        <pt x="52" y="476" on="1"/>
        <pt x="52" y="566" on="0"/>
        <pt x="194" y="667" on="0"/>
        <pt x="320" y="667" on="1"/>
      </contour>
      <contour>
        <pt x="290" y="517" on="0"/>
        <pt x="257" y="488" on="0"/>
        <pt x="257" y="461" on="1"/>
        <pt x="257" y="434" on="0"/>
        <pt x="290" y="405" on="0"/>
        <pt x="320" y="405" on="1"/>
        <pt x="350" y="405" on="0"/>
        <pt x="383" y="434" on="0"/>
        <pt x="383" y="461" on="1"/>
        <pt x="383" y="488" on="0"/>
        <pt x="350" y="517" on="0"/>
        <pt x="320" y="517" on="1"/>
      </contour>
      <contour>
        <pt x="351" y="140" on="0"/>
        <pt x="384" y="170" on="0"/>
        <pt x="384" y="197" on="1"/>
        <pt x="384" y="224" on="0"/>
        <pt x="351" y="254" on="0"/>
        <pt x="320" y="254" on="1"/>
        <pt x="289" y="254" on="0"/>
        <pt x="256" y="224" on="0"/>
        <pt x="256" y="197" on="1"/>
        <pt x="256" y="170" on="0"/>
        <pt x="289" y="140" on="0"/>
        <pt x="320" y="140" on="1"/>
      </contour>
    </TTGlyph>
    <TTGlyph name="eight.sc" xMin="28" yMin="-8" xMax="556" yMax="568">
      <contour>
        <pt x="168" y="-8" on="0"/>
        <pt x="28" y="78" on="0"/>
        <pt x="28" y="152" on="1"/>
        <pt x="28" y="239" on="0"/>
        <pt x="130" y="282" on="1"/>
        <pt x="130" y="284" on="1"/>
        <pt x="37" y="321" on="0"/>
        <pt x="37" y="397" on="1"/>
        <pt x="37" y="478" on="0"/>
        <pt x="173" y="568" on="0"/>
        <pt x="292" y="568" on="1"/>
        <pt x="411" y="568" on="0"/>
        <pt x="547" y="478" on="0"/>
        <pt x="547" y="397" on="1"/>
        <pt x="547" y="321" on="0"/>
        <pt x="454" y="284" on="1"/>
        <pt x="454" y="282" on="1"/>
        <pt x="556" y="239" on="0"/>
        <pt x="556" y="152" on="1"/>
        <pt x="556" y="78" on="0"/>
        <pt x="416" y="-8" on="0"/>
        <pt x="292" y="-8" on="1"/>
      </contour>
      <contour>
        <pt x="315" y="340" on="0"/>
        <pt x="340" y="362" on="0"/>
        <pt x="340" y="381" on="1"/>
        <pt x="340" y="400" on="0"/>
        <pt x="315" y="422" on="0"/>
        <pt x="292" y="422" on="1"/>
        <pt x="269" y="422" on="0"/>
        <pt x="244" y="400" on="0"/>
        <pt x="244" y="381" on="1"/>
        <pt x="244" y="362" on="0"/>
        <pt x="269" y="340" on="0"/>
        <pt x="292" y="340" on="1"/>
      </contour>
      <contour>
        <pt x="315" y="137" on="0"/>
        <pt x="341" y="159" on="0"/>
        <pt x="341" y="178" on="1"/>
        <pt x="341" y="197" on="0"/>
        <pt x="315" y="219" on="0"/>
        <pt x="292" y="219" on="1"/>
        <pt x="269" y="219" on="0"/>
        <pt x="243" y="197" on="0"/>
        <pt x="243" y="178" on="1"/>
        <pt x="243" y="159" on="0"/>
        <pt x="269" y="137" on="0"/>
        <pt x="292" y="137" on="1"/>
      </contour>
    </TTGlyph>
</ttFont>
